<?xml version="1.0" standalone="no"?>
<!DOCTYPE svg PUBLIC "-//W3C//DTD SVG 20010904//EN"
 "http://www.w3.org/TR/2001/REC-SVG-20010904/DTD/svg10.dtd">
<svg version="1.0" xmlns="http://www.w3.org/2000/svg"
 width="1119.000000pt" height="1280.000000pt" viewBox="0 0 1119.000000 1280.000000"
 preserveAspectRatio="xMidYMid meet">
<metadata>
Created by potrace 1.15, written by Peter Selinger 2001-2017
</metadata>
<g transform="translate(0.000000,1280.000000) scale(0.100000,-0.100000)"
fill="#000000" stroke="none">
<path d="M10620 12794 c-102 -18 -217 -48 -500 -129 -434 -124 -594 -160 -840
-186 -88 -9 -130 -19 -177 -41 -295 -137 -397 -773 -268 -1663 29 -193 23
-178 64 -170 138 26 619 252 890 419 461 285 689 536 918 1016 140 292 195
453 197 575 1 126 -50 177 -183 181 -42 1 -87 0 -101 -2z"/>
<path d="M8051 12119 c-258 -24 -469 -122 -546 -254 -97 -164 -16 -376 238
-627 156 -155 412 -347 586 -442 167 -91 357 -169 470 -191 l33 -7 -6 38 c-3
22 -15 158 -26 304 -56 730 -110 1031 -195 1099 -79 61 -343 100 -554 80z"/>
<path d="M9637 10753 c-13 -13 -7 -51 13 -76 l21 -26 -28 -14 c-15 -8 -66 -22
-112 -31 -47 -8 -89 -21 -95 -27 -8 -9 -5 -10 14 -6 14 3 57 11 95 18 109 18
155 51 155 110 0 37 -43 73 -63 52z"/>
<path d="M9120 10625 c-245 -57 -249 -58 -360 -46 -181 19 -316 15 -396 -13
-92 -31 -205 -88 -201 -100 2 -6 44 -24 93 -40 130 -43 252 -46 399 -12 61 14
121 28 135 31 l25 6 -25 -13 c-287 -138 -421 -227 -627 -417 -358 -330 -550
-631 -530 -829 19 -184 178 -298 463 -332 198 -24 480 17 628 92 80 40 102 63
119 125 40 144 47 501 22 1028 -18 375 -18 355 0 355 13 0 15 -33 15 -233 0
-842 172 -1416 466 -1549 46 -21 63 -22 304 -24 273 -2 374 -11 782 -68 134
-19 295 -40 358 -47 429 -43 503 104 263 520 -65 111 -206 325 -283 425 -249
330 -559 545 -1080 749 -266 105 -645 215 -746 218 -16 0 -22 3 -14 6 8 3 68
0 135 -7 115 -12 122 -11 180 10 33 12 76 23 95 24 59 4 80 21 80 66 0 49 -32
76 -79 65 -16 -3 -47 -2 -68 3 -72 18 -98 20 -153 7z"/>
<path d="M9434 10549 c-6 -10 53 -19 127 -19 64 0 119 -14 119 -30 0 -4 -7
-13 -16 -20 -9 -8 -14 -25 -12 -44 2 -25 7 -31 28 -31 34 0 50 45 30 83 -24
42 -73 60 -178 64 -52 2 -96 0 -98 -3z"/>
<path d="M4908 10346 c-101 -36 -214 -156 -373 -396 -275 -416 -373 -656 -426
-1040 -19 -135 -16 -560 5 -780 14 -146 48 -375 71 -480 3 -14 -8 12 -23 57
-30 82 -56 122 -112 169 -16 14 -30 34 -30 44 0 23 -36 50 -66 50 -23 0 -64
-42 -64 -65 0 -7 8 -23 19 -36 10 -13 21 -46 26 -74 10 -74 25 -101 105 -200
86 -107 109 -150 161 -302 46 -132 88 -221 132 -277 37 -47 188 -177 198 -170
17 10 -25 243 -56 311 -28 62 -64 116 -162 241 -40 51 -73 96 -73 100 0 4 64
36 143 71 310 139 632 320 828 468 242 181 375 332 436 491 21 58 24 79 21
152 -4 80 -8 92 -63 200 -105 209 -167 381 -304 850 -44 151 -91 306 -106 343
-61 164 -128 258 -193 277 -46 12 -48 12 -94 -4z"/>
<path d="M1605 8516 c-135 -19 -202 -43 -252 -91 -40 -39 -43 -45 -43 -96 0
-109 70 -218 350 -544 304 -355 428 -518 550 -726 93 -157 147 -202 282 -234
232 -54 580 32 1017 252 191 97 195 96 21 -7 -284 -166 -517 -335 -568 -410
-22 -32 -23 -42 -18 -115 21 -262 241 -636 450 -770 339 -216 604 104 747 900
29 162 37 496 16 638 -8 54 -17 101 -20 104 -3 2 -54 -24 -114 -60 -126 -74
-153 -89 -153 -84 0 3 56 40 125 83 69 43 125 82 125 86 0 4 -29 40 -66 80
-129 144 -369 349 -611 521 -401 287 -693 412 -1088 467 -125 17 -643 22 -750
6z m2255 -1251 c0 -2 -10 -9 -22 -15 -22 -11 -22 -10 -4 4 21 17 26 19 26 11z
m-140 -80 c0 -2 -10 -9 -22 -15 -22 -11 -22 -10 -4 4 21 17 26 19 26 11z"/>
<path d="M3873 8253 c-26 -39 -21 -88 15 -175 18 -42 32 -82 32 -89 0 -20 -30
12 -77 82 -43 67 -87 99 -132 99 -44 0 -83 -72 -47 -86 21 -8 56 14 66 42 8
21 13 23 30 14 20 -11 34 -29 107 -134 30 -42 35 -45 53 -34 23 15 22 20 -21
125 -16 39 -29 84 -29 98 0 24 3 26 28 20 20 -4 36 0 52 13 33 27 21 52 -24
52 -27 0 -40 -6 -53 -27z"/>
<path d="M5375 8011 c-159 -54 -286 -113 -680 -311 -192 -97 -370 -185 -395
-194 l-45 -18 55 -51 c243 -223 670 -437 1065 -533 431 -104 665 4 665 306 0
226 -127 518 -310 714 -132 141 -172 151 -355 87z"/>
<path d="M6525 6051 c-32 -14 -72 -62 -93 -111 -41 -97 -60 -215 -102 -631
-42 -425 -75 -621 -136 -824 -40 -129 -39 -218 2 -305 112 -236 444 -444 1009
-631 161 -54 575 -162 584 -153 12 11 13 404 2 538 -53 640 -166 1043 -384
1369 -174 258 -537 634 -697 721 -55 30 -148 43 -185 27z"/>
<path d="M10140 4869 c-101 -8 -347 -53 -520 -94 -298 -72 -552 -193 -792
-377 -199 -154 -526 -497 -722 -758 -133 -178 -192 -275 -177 -294 6 -7 67
-35 136 -62 69 -26 123 -49 121 -51 -3 -3 -183 61 -260 93 -18 7 -19 3 -13
-107 16 -294 99 -585 263 -928 92 -192 180 -325 277 -419 98 -94 165 -127 262
-126 87 0 156 32 233 107 187 182 326 575 297 843 -6 63 -10 72 -47 107 -67
64 -368 201 -664 303 -57 20 -103 38 -101 40 2 2 35 -5 73 -16 122 -35 386
-99 479 -116 50 -9 165 -18 256 -21 189 -6 292 8 394 56 115 53 163 112 214
261 76 220 170 414 368 758 277 482 324 602 274 704 -27 57 -77 85 -173 98
-40 5 -75 9 -78 8 -3 0 -48 -4 -100 -9z"/>
<path d="M2085 4821 c-72 -42 -205 -184 -414 -446 -101 -126 -211 -261 -244
-300 -92 -107 -283 -299 -369 -371 -99 -83 -139 -157 -146 -268 -17 -261 175
-646 537 -1080 107 -128 351 -396 361 -396 35 0 245 331 376 593 285 567 378
954 334 1375 -13 120 -55 378 -81 494 -47 217 -121 378 -188 412 -47 25 -109
20 -166 -13z"/>
<path d="M7934 4195 c-13 -33 4 -47 54 -43 l47 3 3 -36 c2 -21 -4 -64 -12 -97
-9 -33 -16 -70 -16 -83 -1 -16 -12 -31 -33 -44 -22 -14 -33 -29 -35 -50 -2
-17 -14 -41 -27 -55 -42 -45 -64 -105 -75 -201 -17 -142 -35 -199 -110 -349
-98 -196 -113 -252 -108 -403 2 -67 7 -128 12 -135 9 -15 78 62 146 165 53 80
77 162 105 353 21 142 32 175 106 317 57 108 59 116 59 187 0 41 5 78 10 81
13 8 13 51 0 75 -7 14 0 40 34 112 24 51 51 99 60 107 14 12 20 10 43 -13 31
-31 67 -31 71 0 5 33 -31 58 -74 50 -49 -10 -72 -38 -119 -144 -22 -50 -43
-88 -46 -86 -7 4 4 84 20 140 16 58 13 93 -10 130 -18 29 -26 34 -60 34 -26 0
-42 -5 -45 -15z"/>
<path d="M6413 3693 c-42 -5 -123 -92 -180 -194 -58 -102 -117 -263 -143 -389
-29 -139 -25 -335 8 -420 119 -305 508 -257 1104 136 154 102 271 199 399 330
81 84 179 203 179 217 0 3 -24 5 -54 6 -70 1 -213 39 -561 146 -321 99 -514
150 -600 160 -112 11 -120 12 -152 8z"/>
<path d="M673 2931 c-229 -79 -492 -302 -606 -511 -95 -175 -88 -317 23 -428
152 -151 469 -220 967 -210 191 5 250 10 363 31 155 30 296 70 353 99 l40 20
-55 56 c-30 32 -126 140 -213 242 -436 508 -667 730 -759 730 -17 0 -68 -13
-113 -29z"/>
<path d="M2363 2524 c-9 -23 9 -47 43 -59 16 -5 30 -10 32 -11 9 -6 -27 -56
-84 -116 -35 -36 -64 -72 -64 -79 0 -16 114 95 140 137 28 44 27 108 -2 128
-29 21 -57 20 -65 0z"/>
<path d="M2489 2350 c-19 -5 -101 -55 -178 -107 -2 -2 -1 -6 2 -9 4 -4 41 16
84 44 43 28 90 54 106 57 24 6 27 4 27 -17 0 -53 61 -93 75 -49 17 53 -51 101
-116 81z"/>
<path d="M2191 2236 c-12 -13 -49 -34 -81 -45 -51 -19 -70 -34 -132 -104 -119
-133 -164 -171 -299 -247 -138 -78 -221 -145 -271 -218 -50 -73 -107 -181 -98
-187 11 -7 143 37 226 75 66 30 167 121 288 260 27 30 40 42 30 25 -166 -275
-263 -566 -320 -960 -24 -162 -24 -434 -1 -528 49 -196 146 -293 305 -305 175
-12 415 106 624 306 146 140 227 262 228 341 0 76 -143 314 -373 619 -59 78
-106 142 -104 142 2 0 42 -46 88 -102 101 -125 317 -347 419 -433 207 -172
380 -255 535 -255 99 0 140 17 264 109 215 159 308 214 715 423 360 185 455
240 531 310 66 60 85 93 85 146 0 87 -126 197 -335 292 -262 119 -524 209
-725 251 -133 27 -418 37 -582 20 -276 -29 -701 -133 -1004 -247 -131 -48
-264 -110 -264 -122 0 -9 115 -178 174 -255 16 -20 26 -37 23 -37 -7 0 -221
279 -236 308 -16 29 -14 30 139 118 118 67 147 91 181 157 11 20 25 37 33 37
22 0 46 35 46 67 0 60 -67 84 -109 39z m-26 -756 c10 -11 16 -20 13 -20 -3 0
-13 9 -23 20 -10 11 -16 20 -13 20 3 0 13 -9 23 -20z m36 -47 c13 -16 12 -17
-3 -4 -10 7 -18 15 -18 17 0 8 8 3 21 -13z"/>
</g>
</svg>
