<?xml version="1.0" standalone="no"?>
<!DOCTYPE svg PUBLIC "-//W3C//DTD SVG 20010904//EN"
 "http://www.w3.org/TR/2001/REC-SVG-20010904/DTD/svg10.dtd">
<svg version="1.0" xmlns="http://www.w3.org/2000/svg"
 width="1280.000000pt" height="332.000000pt" viewBox="0 0 1280.000000 332.000000"
 preserveAspectRatio="xMidYMid meet">
<metadata>
Created by potrace 1.15, written by Peter Selinger 2001-2017
</metadata>
<g transform="translate(0.000000,332.000000) scale(0.100000,-0.100000)"
fill="#065f46" stroke="none">
<path d="M4509 3282 c-106 -43 -163 -117 -164 -212 0 -78 28 -145 76 -180 21
-15 75 -40 120 -56 67 -23 88 -36 121 -73 39 -45 39 -63 -1 -41 -12 6 -21 17
-21 24 0 19 -41 35 -68 25 -19 -7 -32 -1 -75 33 -86 68 -143 82 -229 56 -52
-15 -124 -80 -138 -123 -6 -19 -17 -35 -23 -35 -7 0 -91 25 -187 55 -223 71
-312 81 -583 65 -185 -11 -478 -39 -622 -59 -38 -6 -73 -11 -77 -11 -5 0 -8
19 -8 43 -1 91 -67 173 -162 202 -65 19 -88 19 -159 -1 -118 -33 -175 -119
-167 -250 4 -72 -2 -77 -62 -48 -45 23 -145 22 -190 0 -19 -10 -48 -31 -65
-46 -23 -21 -44 -30 -88 -35 l-57 -7 0 28 c-1 41 -32 105 -75 152 -94 105
-236 113 -338 18 -43 -40 -57 -85 -57 -186 0 -73 -3 -92 -16 -97 -9 -3 -24 3
-35 16 l-20 22 21 65 c40 120 27 188 -50 263 -69 67 -158 78 -255 32 -114 -54
-174 -152 -155 -253 19 -99 69 -160 155 -189 37 -13 38 -14 13 -17 -15 -2 -39
3 -55 11 -77 40 -173 24 -244 -40 -40 -36 -46 -38 -292 -87 -139 -28 -252 -55
-251 -61 0 -5 19 -23 42 -38 l42 -28 188 25 c104 15 192 26 195 26 4 0 7 -11
7 -24 0 -92 86 -215 164 -235 132 -33 220 7 291 134 34 61 55 87 55 67 0 -5
10 -13 22 -19 22 -9 18 -15 -69 -99 -50 -49 -96 -102 -102 -117 -17 -44 -13
-137 8 -182 39 -84 115 -128 222 -127 69 0 143 25 182 60 32 29 59 93 64 151
l5 56 59 -28 c72 -36 138 -39 203 -7 84 40 146 143 146 242 0 71 -10 96 -56
148 -72 79 -147 97 -265 64 -62 -17 -89 -14 -89 11 0 12 14 15 68 15 37 0 99
6 137 14 39 8 100 17 137 21 l67 6 11 -40 c14 -53 61 -106 119 -135 95 -47
143 -43 251 24 36 22 68 40 71 40 3 0 11 -11 17 -26 11 -23 10 -26 -20 -38
-18 -8 -59 -19 -91 -26 -118 -24 -173 -64 -201 -147 -34 -99 -12 -180 68 -250
74 -65 186 -91 263 -62 32 12 97 71 123 112 l17 28 18 -28 c54 -85 117 -123
202 -123 96 1 186 56 240 147 22 39 25 52 21 106 -6 73 -33 132 -81 174 -31
27 -50 35 -164 63 -35 9 -43 15 -43 33 0 13 -5 28 -12 35 -23 23 3 12 66 -28
119 -75 172 -82 266 -35 95 48 125 97 125 207 l0 77 51 7 c28 3 168 4 310 2
301 -6 237 9 757 -169 297 -101 327 -113 327 -133 0 -13 12 -47 28 -77 38 -76
96 -110 195 -117 84 -5 145 9 184 42 26 22 29 23 69 9 l42 -14 -20 -47 c-12
-26 -23 -77 -26 -113 -9 -125 42 -209 158 -263 95 -44 172 -32 298 48 23 14
45 26 50 26 12 0 34 -49 27 -60 -7 -12 -55 -26 -150 -45 -127 -26 -176 -59
-214 -146 -49 -109 -33 -205 47 -286 99 -102 242 -135 348 -80 37 19 124 113
124 133 0 23 17 16 24 -9 11 -45 74 -114 128 -141 100 -50 223 -26 322 65 97
88 118 188 65 309 -38 86 -85 120 -213 154 -73 20 -79 23 -82 49 -1 16 -8 35
-15 43 -21 26 3 15 78 -37 79 -53 138 -79 183 -79 24 0 28 -5 34 -38 18 -114
165 -222 303 -222 75 0 131 28 190 95 52 59 67 61 101 9 32 -48 95 -91 156
-105 43 -9 63 -8 113 4 49 13 67 14 94 4 19 -6 36 -13 38 -14 3 -2 -9 -18 -27
-36 -79 -82 -102 -199 -58 -294 56 -119 151 -171 296 -160 86 7 135 -2 182
-31 27 -18 30 -22 15 -28 -11 -4 -23 1 -35 16 -24 29 -71 30 -90 1 -18 -26
-24 -26 -103 -1 -127 41 -219 21 -294 -62 -49 -54 -65 -95 -65 -170 0 -112 81
-236 185 -284 59 -28 81 -29 160 -9 132 35 179 96 215 279 9 42 15 55 23 47 6
-6 21 -11 34 -11 13 0 23 -4 23 -10 0 -16 -23 -62 -58 -118 -50 -80 -82 -153
-82 -189 0 -47 37 -139 73 -179 87 -100 244 -109 379 -21 97 63 137 174 105
293 l-13 51 32 -13 c56 -23 152 -18 212 12 116 58 178 219 138 357 -21 71 -59
115 -131 152 -108 54 -176 46 -303 -37 -58 -38 -64 -40 -81 -24 -9 9 -31 16
-47 16 -46 1 -10 16 90 40 93 21 138 40 172 72 22 19 22 19 150 -21 322 -100
302 -96 489 -95 211 2 552 48 1021 138 l71 13 24 -39 c44 -71 122 -108 231
-108 l57 0 -24 -53 c-32 -68 -34 -162 -4 -224 45 -94 167 -164 284 -165 78 0
110 13 168 70 101 98 116 182 58 326 -32 78 -32 80 -13 95 10 9 23 25 27 36 6
13 11 -15 16 -87 9 -125 28 -177 86 -229 22 -20 67 -47 99 -59 101 -38 192
-13 283 78 61 61 84 112 89 193 3 55 0 73 -21 115 -33 66 -104 131 -153 140
-20 4 -88 4 -150 0 -122 -7 -176 1 -216 33 l-23 19 28 7 c19 5 33 2 46 -9 25
-23 67 -20 85 5 14 21 16 21 87 5 127 -28 188 -19 257 39 19 16 44 45 57 65
22 35 29 38 117 58 372 85 959 221 1194 277 l281 68 6 111 c3 65 1 113 -5 117
-5 3 -12 47 -15 97 -3 51 -10 92 -14 92 -4 0 -207 -49 -450 -110 -243 -60
-445 -110 -448 -110 -4 0 -12 19 -18 43 -19 71 -80 148 -143 180 -52 27 -60
29 -157 24 -85 -4 -103 -2 -103 10 0 7 -12 25 -27 39 l-28 26 30 -7 c17 -4 60
-16 96 -26 79 -23 157 -24 205 -4 48 20 139 115 154 161 17 49 8 149 -18 207
-50 114 -143 182 -247 181 -41 0 -76 -7 -110 -22 -93 -42 -123 -87 -154 -231
-23 -104 -32 -124 -74 -169 -38 -39 -47 -40 -47 -4 0 19 7 30 22 37 34 15 46
59 24 84 -17 18 -16 21 10 62 80 127 92 202 49 294 -52 110 -159 167 -274 147
-111 -20 -204 -80 -240 -155 -16 -32 -21 -62 -21 -118 1 -128 40 -183 195
-267 68 -37 97 -59 119 -91 15 -23 26 -44 23 -47 -11 -11 -35 10 -41 37 -7 37
-44 54 -81 37 -23 -10 -30 -6 -104 64 -63 61 -87 78 -124 86 -85 18 -180 -10
-245 -71 -68 -65 -93 -212 -53 -317 40 -104 92 -147 209 -171 107 -22 168 7
285 139 l39 43 24 -26 c18 -19 22 -30 15 -39 -6 -7 -54 -37 -107 -67 -141 -79
-184 -139 -184 -256 0 -51 -13 -72 -52 -86 -15 -5 -18 -1 -18 27 0 99 -90 219
-182 245 -127 36 -301 -38 -359 -150 -21 -43 -26 -149 -9 -208 5 -19 8 -36 7
-37 -2 -2 -97 -23 -212 -48 -553 -118 -958 -188 -1211 -211 -83 -8 -170 11
-460 98 -144 43 -190 62 -228 91 -58 44 -143 71 -200 62 -34 -5 -88 10 -314
82 l-272 87 -11 40 c-31 114 -97 177 -210 200 -97 20 -109 25 -109 50 0 13
-10 33 -22 45 -36 33 -5 23 63 -22 147 -95 212 -107 315 -58 113 55 161 140
152 268 -12 168 -115 275 -265 274 -113 -1 -182 -50 -244 -175 -44 -87 -74
-124 -121 -148 -46 -23 -52 -21 -42 15 4 19 13 26 30 26 34 0 60 43 46 75 -10
22 -6 28 48 75 82 71 114 138 108 224 -10 119 -81 207 -193 237 -91 25 -242
-10 -298 -69 -37 -39 -68 -116 -74 -183 -8 -82 26 -149 113 -226 66 -57 96
-101 109 -160 5 -28 4 -32 -9 -27 -10 4 -16 18 -16 39 0 42 -30 70 -68 62 -26
-5 -30 -2 -56 51 -15 31 -39 74 -54 95 -71 104 -241 126 -351 46 -50 -37 -100
-134 -108 -210 -5 -44 -11 -58 -35 -77 -16 -13 -35 -21 -43 -18 -12 4 -10 12
10 42 33 49 39 74 32 143 -8 93 -59 169 -142 214 -33 18 -56 22 -135 21 -162
-1 -241 -58 -279 -201 -11 -40 -12 -41 -43 -33 -41 12 -44 17 -26 37 50 57 79
175 64 258 -9 47 -66 110 -129 141 l-49 25 40 35 c109 93 107 250 -3 357 -77
75 -168 96 -253 57 -106 -48 -138 -97 -150 -227 -6 -67 -10 -78 -27 -81 -11
-2 -26 -11 -32 -20 -22 -27 -14 1 22 85 46 107 47 159 3 233 -18 29 -50 67
-70 83 -32 26 -47 30 -110 34 -55 2 -85 -1 -119 -15z m268 -494 c-3 -8 -6 -5
-6 6 -1 11 2 17 5 13 3 -3 4 -12 1 -19z m272 -55 l35 -6 -55 -28 c-62 -32 -79
-35 -79 -14 0 8 -11 22 -25 31 -23 15 -27 15 -50 0 -14 -9 -25 -23 -25 -31 0
-8 -7 -15 -15 -15 -8 0 -15 8 -15 19 0 12 15 25 48 40 47 21 80 22 181 4z
m-349 -123 c0 -5 -9 -10 -20 -10 -28 0 -62 -37 -55 -60 5 -15 2 -17 -15 -13
-11 3 -20 7 -20 8 0 17 19 40 49 60 37 26 61 32 61 15z m199 -107 c10 -21 22
-48 25 -60 6 -19 4 -22 -11 -16 -22 7 -83 64 -83 76 0 10 30 36 42 37 4 0 16
-17 27 -37z m-2369 -11 c0 -11 -36 -44 -72 -67 -28 -17 -28 -17 -28 9 0 19 5
26 18 26 11 0 27 9 37 20 18 20 45 27 45 12z m-198 -47 c4 -16 1 -24 -6 -22
-6 2 -12 16 -14 31 -4 35 14 26 20 -9z m178 -119 c0 -2 -7 -6 -15 -10 -8 -3
-15 -1 -15 4 0 6 7 10 15 10 8 0 15 -2 15 -4z m-102 -65 c7 -21 12 -56 12 -77
0 -46 -36 -166 -43 -144 -14 42 -37 114 -37 117 0 2 7 3 15 3 20 0 55 36 55
55 0 9 -12 27 -27 41 -23 21 -25 27 -13 34 23 15 26 13 38 -29z m-1163 -38
c12 -18 45 -143 45 -171 0 -3 -22 16 -50 43 l-50 49 22 23 c18 19 20 28 12 51
-7 21 -17 28 -42 30 -32 3 -45 26 -19 35 15 5 62 -29 82 -60z m10105 -38 c-14
-17 -40 -20 -40 -6 0 5 10 12 23 14 12 2 24 5 26 6 2 0 -2 -6 -9 -14z m-82
-118 c30 -50 32 -58 32 -152 l0 -100 -45 70 -46 69 26 13 c50 27 40 98 -16
110 -41 8 -37 39 6 42 6 1 25 -23 43 -52z m-4418 -69 c0 -4 -9 -8 -20 -8 -11
0 -20 4 -20 8 0 4 9 8 20 8 11 0 20 -4 20 -8z m-340 -26 c0 -10 5 -23 10 -28
8 -8 6 -15 -5 -24 -19 -15 -50 -16 -90 0 l-29 11 49 29 c59 35 65 36 65 12z
m224 -51 c22 -69 21 -101 -4 -101 -23 0 -24 4 -8 29 15 25 -4 71 -32 78 -36
10 -24 34 21 42 4 0 14 -21 23 -48z m-1139 -61 c3 -5 2 -10 -4 -10 -5 0 -13 5
-16 10 -3 6 -2 10 4 10 5 0 13 -4 16 -10z m200 -131 c-18 -5 -33 -5 -39 1 -7
7 4 10 30 9 39 -1 39 -1 9 -10z m-117 -65 c21 -77 12 -138 -34 -254 -4 -9 -14
11 -25 50 -24 83 -24 100 0 100 51 0 70 85 24 105 -34 15 -31 39 5 42 14 1 21
-10 30 -43z m1958 -568 c26 -87 30 -155 13 -206 l-12 -33 -18 24 c-15 20 -15
26 -3 43 8 11 14 29 14 40 0 24 -28 56 -48 56 -12 0 -13 9 -8 46 3 26 6 62 6
81 0 27 4 34 16 31 11 -2 25 -30 40 -82z m2864 34 c9 -17 5 -27 -22 -61 -18
-23 -46 -48 -63 -57 -35 -18 -165 -61 -165 -55 0 8 91 123 97 123 3 0 11 -6
17 -14 6 -8 21 -17 33 -21 32 -9 77 37 69 70 -5 20 -2 26 21 34 1 1 7 -8 13
-19z m122 -115 c9 -16 6 -15 -15 5 -14 13 -23 28 -20 33 5 9 13 1 35 -38z
m-2844 -160 c-6 -14 -18 -25 -26 -25 -12 0 -10 6 8 25 13 14 25 25 27 25 1 0
-3 -11 -9 -25z m-20 -139 c26 -13 54 -32 64 -42 17 -21 88 -146 88 -158 0 -5
-108 49 -138 69 -1 1 4 15 12 30 25 48 -1 87 -55 84 -45 -4 -57 5 -39 26 16
19 12 19 68 -9z"/>
</g>
</svg>
