<?xml version="1.0" standalone="no"?>
<!DOCTYPE svg PUBLIC "-//W3C//DTD SVG 20010904//EN"
 "http://www.w3.org/TR/2001/REC-SVG-20010904/DTD/svg10.dtd">
<svg version="1.0" xmlns="http://www.w3.org/2000/svg"
 width="1280.000000pt" height="256.000000pt" viewBox="0 0 1280.000000 256.000000"
 preserveAspectRatio="xMidYMid meet">
<metadata>
Created by potrace 1.15, written by Peter Selinger 2001-2017
</metadata>
<g transform="translate(0.000000,256.000000) scale(0.100000,-0.100000)"
fill="#fafaf9" stroke="none">
<path d="M7371 2053 c-1 -12 6 -52 15 -89 15 -66 12 -138 -7 -150 -5 -3 -9
-40 -10 -82 l0 -77 -19 60 c-12 37 -20 92 -21 145 l-2 85 -12 -70 -11 -70 -13
60 c-7 33 -16 83 -21 110 -6 28 -12 59 -14 70 -2 11 -4 0 -4 -25 0 -25 3 -58
7 -75 7 -34 -18 -210 -29 -198 -4 4 -19 52 -35 105 -15 54 -32 95 -36 92 -5
-3 -9 2 -9 10 0 27 -18 18 -24 -11 -7 -30 -25 -213 -26 -250 0 -40 -16 -25
-29 30 -16 64 -30 92 -31 62 0 -17 -2 -18 -11 -5 -9 12 -10 12 -5 -3 14 -44
18 -67 10 -67 -8 0 -11 -164 -4 -200 2 -8 2 -40 1 -70 l-2 -55 -13 35 c-7 19
-23 82 -36 140 -12 58 -26 109 -31 114 -14 15 -23 -45 -11 -78 6 -17 14 -53
17 -81 4 -27 9 -58 12 -69 4 -13 1 -16 -8 -11 -9 6 -10 2 -5 -16 4 -13 9 -49
11 -79 l5 -55 -25 50 c-16 32 -25 67 -25 98 0 44 13 63 23 35 2 -7 2 -4 -1 7
-2 11 -7 37 -9 59 -3 21 -12 50 -20 65 -14 25 -15 25 -9 2 7 -32 -16 -291 -26
-291 -4 0 -8 7 -8 15 0 8 -6 12 -14 9 -9 -4 -16 6 -20 30 -4 20 -14 52 -23 73
-14 34 -17 36 -24 18 -4 -11 -8 -29 -8 -40 0 -20 0 -20 8 0 7 16 9 13 15 -19
4 -22 9 -59 11 -82 2 -24 6 -54 9 -66 3 -13 -7 4 -24 37 -16 33 -29 53 -30 45
0 -9 -6 -6 -15 10 -20 36 -18 15 10 -102 27 -113 31 -143 15 -118 -7 11 -10 1
-10 -35 l-1 -50 -15 30 c-8 17 -23 50 -34 75 -11 25 -18 37 -15 27 3 -10 1
-15 -5 -12 -6 3 -10 17 -10 30 0 12 -6 25 -13 28 -7 2 -23 31 -36 63 -28 70
-36 81 -45 59 -3 -9 -2 -13 4 -10 9 6 12 -2 14 -37 0 -7 9 -35 19 -62 10 -27
25 -78 33 -112 8 -35 17 -71 20 -81 15 -49 -34 54 -67 142 -36 94 -51 119 -29
47 6 -17 14 -45 19 -62 14 -44 5 -36 -19 16 -16 37 -20 68 -20 148 0 55 -5
108 -10 116 -8 13 -10 12 -10 -3 0 -18 -27 -53 -35 -45 -2 2 -9 15 -15 28
l-11 25 6 -25 c3 -14 8 -38 10 -55 5 -30 5 -30 -11 5 -9 19 -19 52 -22 73 -3
26 -8 34 -13 25 -7 -10 -9 -8 -10 7 -4 46 -17 -88 -19 -180 l-1 -100 -35 95
c-32 86 -56 137 -40 83 4 -14 3 -23 -3 -23 -6 0 -16 19 -23 41 -24 82 -19 19
7 -75 14 -53 25 -111 23 -129 -3 -28 -7 -20 -36 58 -20 53 -36 118 -39 160 -4
39 -9 61 -13 51 -4 -13 -11 0 -23 44 -10 34 -20 60 -23 57 -9 -8 42 -188 92
-328 33 -94 44 -139 43 -175 -1 -27 1 -76 4 -109 5 -40 4 -53 -2 -40 -5 11
-10 31 -11 45 l-2 25 -7 -25 c-7 -23 -8 -23 -14 -5 -3 11 -11 57 -17 102 -10
74 -36 192 -44 200 -2 2 -2 -29 0 -69 5 -85 -3 -78 -15 13 l-8 64 -2 -55 c-1
-40 -4 -51 -11 -40 -8 12 -10 8 -12 -15 -1 -16 -1 -42 0 -57 5 -79 -50 19 -63
112 l-6 45 21 -25 c12 -14 20 -18 17 -9 -36 116 -40 143 -34 265 3 68 2 124
-2 124 -5 0 -13 -44 -18 -97 -7 -80 -11 -93 -18 -69 -4 17 -4 64 1 107 7 58 6
75 -3 72 -6 -3 -9 -11 -6 -19 3 -8 1 -20 -5 -27 -5 -6 -12 -21 -14 -32 -4 -16
-7 -13 -16 15 l-12 35 5 -40 c2 -22 7 -67 10 -100 l5 -60 -27 75 c-34 94 -41
71 -10 -31 21 -65 23 -86 15 -140 -4 -35 -10 -68 -12 -74 -5 -15 -76 144 -76
171 0 12 -4 24 -9 26 -5 2 -5 44 0 99 4 54 4 110 0 125 -8 27 -9 26 -16 -21
-4 -27 -10 -68 -14 -90 l-7 -40 -25 80 c-25 82 -51 106 -57 55 -13 -109 -32
-151 -44 -95 -4 16 -6 15 -13 -10 -4 -16 -12 -33 -16 -36 -5 -3 -10 -35 -11
-72 -1 -37 -5 -64 -9 -60 -4 5 -26 63 -49 130 -41 118 -76 192 -64 133 5 -20
4 -22 -6 -10 -9 12 -10 4 -5 -35 l6 -50 -20 37 c-12 21 -21 46 -22 55 0 11 -3
13 -6 5 -2 -6 -9 -10 -14 -7 -12 8 -1 -45 28 -129 25 -77 31 -112 12 -86 -8
12 -9 9 -4 -10 4 -14 9 -63 11 -110 l4 -85 -40 115 c-23 63 -48 138 -57 165
-33 104 -53 82 -53 -60 0 -121 -19 -113 -21 10 l-1 80 -10 -53 c-5 -29 -14
-50 -19 -47 -5 4 -9 12 -10 18 0 7 -9 30 -20 52 l-19 40 6 -64 c4 -35 10 -78
15 -94 5 -17 7 -33 4 -35 -9 -10 -84 185 -85 221 0 30 -15 18 -18 -16 -8 -75
-9 -90 -11 -139 l-3 -53 -12 39 c-7 22 -11 71 -9 110 2 60 0 68 -10 54 -12
-15 -15 -13 -26 18 -19 52 -24 35 -5 -19 8 -25 14 -58 12 -74 -3 -23 -8 -14
-27 45 -12 41 -24 72 -27 70 -4 -4 29 -128 51 -193 8 -23 -27 30 -62 95 l-25
45 6 -35 6 -35 -13 33 c-8 21 -10 56 -6 100 6 73 4 91 -6 46 -13 -58 -17 -60
-35 -19 -23 50 -25 36 -4 -30 16 -52 19 -133 8 -245 -5 -49 -9 -60 -16 -45 -7
17 -8 16 -3 -5 3 -14 7 -50 10 -80 l5 -55 -30 65 -31 64 5 146 c5 138 4 142
-8 85 l-14 -60 -2 55 c-2 50 -3 53 -11 25 -6 -16 -10 -104 -10 -195 -1 -160
-1 -163 -14 -105 -19 89 -36 148 -40 143 -3 -2 0 -20 5 -39 15 -51 11 -58 -10
-19 -11 19 -20 58 -21 85 -1 28 -4 40 -6 27 -2 -12 -9 -20 -14 -16 -7 4 -8 -8
-4 -33 5 -28 4 -34 -4 -23 -8 12 -11 5 -12 -30 l0 -45 -20 40 -19 40 3 -111 3
-111 -23 34 c-15 22 -23 49 -23 76 0 31 -3 38 -10 27 -5 -8 -10 -31 -10 -50
l0 -35 -20 33 c-11 18 -20 44 -20 58 0 14 -4 22 -10 19 -5 -3 -10 -16 -10 -28
0 -20 0 -20 -15 -1 -14 18 -14 18 -15 -4 0 -13 5 -33 12 -45 10 -20 10 -21 -5
-8 -14 11 -18 11 -23 -4 -5 -13 -12 -4 -27 36 -23 61 -64 133 -51 89 6 -23 6
-24 -11 -10 -17 14 -18 13 -11 -13 5 -21 4 -27 -5 -21 -8 5 -11 2 -7 -7 3 -8
11 -32 18 -54 7 -22 20 -56 28 -75 9 -19 17 -60 19 -90 l3 -55 -20 65 c-10 36
-27 94 -38 129 -10 35 -26 67 -35 73 -9 5 -17 6 -17 1 0 -4 -16 17 -36 47 -34
54 -35 54 -29 20 3 -19 8 -53 11 -75 l4 -40 -19 35 c-11 19 -28 53 -37 74 -28
62 -27 28 1 -54 30 -87 31 -97 8 -79 -15 12 -16 12 -9 -6 39 -98 48 -138 52
-240 l4 -110 -29 100 c-16 55 -34 125 -40 155 -6 32 -8 38 -6 15 3 -28 2 -35
-5 -25 -5 8 -10 33 -10 55 1 22 -5 85 -13 140 l-13 100 -8 -110 c-5 -60 -9
-127 -8 -147 0 -21 -3 -38 -8 -38 -10 0 -19 70 -30 230 -5 74 -12 144 -16 154
-7 19 -8 19 -15 0 -11 -28 -11 -46 1 -39 6 4 10 -14 9 -47 l-1 -53 -31 94
c-24 75 -32 90 -38 73 -5 -13 2 -56 21 -120 15 -55 31 -110 35 -123 5 -19 4
-21 -4 -9 -16 23 -14 -4 5 -48 8 -20 17 -66 20 -102 l4 -65 -20 45 c-30 63
-59 173 -69 261 -5 41 -9 64 -10 51 0 -13 -5 -21 -9 -18 -4 2 -6 -10 -4 -27 2
-18 -1 -43 -6 -57 -9 -24 -10 -24 -22 16 -6 22 -10 68 -8 102 2 43 -1 63 -9
67 -9 3 -13 -6 -14 -28 0 -27 -2 -29 -9 -12 -5 11 -15 40 -21 65 -6 25 -13 40
-16 34 -2 -5 8 -55 22 -109 26 -102 33 -191 15 -180 -6 4 -11 -8 -12 -27 -1
-20 -4 -9 -8 27 l-7 60 -1 -71 c-2 -51 2 -73 11 -77 8 -3 13 -27 14 -68 1 -44
-1 -58 -7 -44 -5 11 -9 31 -9 44 -1 13 -10 38 -21 55 -11 19 -19 50 -20 77 0
136 -13 322 -20 304 -5 -11 -9 -36 -9 -55 -2 -72 -18 -65 -46 21 -30 91 -54
144 -61 136 -9 -8 25 -123 51 -174 13 -26 27 -61 31 -78 6 -27 5 -29 -9 -15
-9 8 -23 29 -32 45 -12 21 -15 23 -11 8 17 -64 16 -67 -3 -33 l-20 35 5 -35
c3 -19 10 -50 15 -69 14 -56 3 -46 -21 19 -12 33 -25 59 -27 57 -4 -5 70 -211
98 -272 15 -33 43 -203 31 -191 -7 8 -92 266 -92 281 0 8 -4 15 -8 15 -5 0
-19 29 -31 65 -20 55 -22 76 -16 133 5 46 3 64 -4 57 -5 -5 -14 -66 -18 -135
l-8 -125 -22 57 c-19 48 -21 69 -17 140 5 65 3 87 -9 103 -14 18 -15 17 -4
-21 8 -31 8 -50 -1 -75 -6 -19 -10 -24 -8 -12 2 13 -5 53 -16 90 -20 64 -21
66 -30 41 -11 -32 13 -127 74 -288 32 -87 38 -115 36 -165 l-3 -60 -13 45 c-8
24 -20 49 -28 55 -16 12 -48 88 -115 279 -27 76 -52 142 -55 145 -8 7 -5 -7
32 -124 16 -54 29 -118 30 -160 3 -66 2 -68 -9 -33 -16 50 -31 61 -23 18 4
-19 -12 12 -34 70 -22 58 -39 114 -36 125 6 24 -18 148 -34 172 -10 16 -11 15
-6 -6 3 -13 -2 -40 -10 -59 -16 -39 -19 -102 -4 -102 6 0 10 -14 10 -32 0 -18
-4 -28 -8 -22 -15 15 -52 145 -61 209 l-8 60 -8 -65 c-6 -47 -10 -59 -16 -45
-8 19 -8 19 -15 -2 -3 -13 -10 -23 -14 -23 -4 0 -5 -12 -3 -27 3 -21 2 -24 -5
-13 -6 8 -17 59 -26 114 -22 138 -30 140 -26 6 0 -30 6 -70 11 -88 22 -66 1
-40 -26 33 -15 42 -29 74 -32 71 -3 -2 11 -51 31 -108 31 -88 36 -117 36 -191
0 -51 -4 -87 -10 -87 -5 0 -10 6 -10 14 0 8 -5 16 -12 18 -7 3 -13 47 -17 126
-7 133 -21 176 -21 66 l-1 -69 -30 75 c-26 64 -29 84 -25 140 3 44 2 55 -3 35
-5 -16 -9 -50 -10 -75 l-2 -45 -36 73 c-24 47 -39 68 -44 60 -4 -7 -13 -58
-20 -113 l-12 -100 -15 43 c-19 59 -26 47 -13 -24 14 -76 13 -96 -4 -59 l-13
30 -1 -30 c0 -16 6 -41 14 -55 16 -28 20 -54 6 -45 -5 3 -12 19 -16 35 -4 16
-11 33 -17 37 -8 4 -9 0 -4 -12 9 -24 62 -295 70 -355 4 -30 -12 5 -47 105
-29 83 -59 159 -66 170 -16 25 -14 18 37 -125 53 -151 85 -280 88 -360 3 -70
1 -66 -22 54 -8 43 -21 88 -28 100 -8 11 -19 51 -25 88 -6 37 -18 80 -25 95
-8 15 -19 39 -24 53 -14 35 -7 -113 7 -160 16 -52 13 -59 -8 -18 -10 20 -21
63 -24 95 -6 58 -35 169 -42 161 -5 -4 14 -113 51 -293 30 -149 44 -262 43
-338 -1 -74 -7 -69 -14 13 -6 73 -38 231 -61 312 -9 29 -20 87 -25 128 -4 41
-12 100 -17 130 l-9 55 -2 -70 c-2 -68 -3 -69 -16 -40 -7 17 -18 46 -24 65
-10 34 -11 34 -6 -12 3 -27 7 -60 10 -75 3 -16 -13 9 -36 55 -23 46 -43 81
-45 79 -3 -2 14 -50 36 -105 22 -56 40 -107 39 -114 0 -7 -5 -2 -11 12 -14 31
-53 120 -61 140 -4 8 -5 -1 -2 -20 l5 -35 -16 35 c-9 19 -21 45 -27 57 -19 42
-17 17 3 -42 11 -32 20 -72 19 -89 0 -24 -6 -14 -30 49 -32 84 -61 132 -34 56
14 -42 13 -81 -4 -81 -4 0 -18 33 -30 73 -13 39 -30 81 -39 92 l-14 20 7 -20
c45 -118 75 -213 71 -225 -3 -11 -4 -10 -5 3 0 10 -5 15 -11 12 -5 -3 -10 2
-11 12 -1 12 -3 10 -8 -7 -7 -24 -8 -24 -29 18 -13 23 -24 42 -26 42 -2 0 5
-30 15 -67 31 -112 18 -114 -21 -3 -12 36 -29 74 -38 85 l-14 20 7 -20 c39
-107 88 -281 83 -296 -7 -21 -76 192 -108 331 -14 60 -35 107 -26 55 4 -16 8
-55 11 -85 l5 -55 -28 60 c-20 41 -31 55 -35 45 -4 -8 -5 -2 -2 13 3 16 2 26
-3 23 -5 -3 -14 11 -21 30 -7 20 -15 34 -17 31 -2 -2 5 -30 16 -62 35 -102 20
-102 -19 0 -13 33 -34 74 -46 91 -13 16 -37 61 -55 100 -39 85 -52 67 -17 -25
29 -76 41 -122 38 -136 -2 -5 -3 -35 -3 -65 0 -54 0 -55 -13 -25 -8 17 -14 41
-15 53 0 26 -38 87 -48 77 -3 -3 -25 29 -49 72 -56 103 -55 77 2 -37 64 -127
55 -135 -11 -12 -31 57 -58 102 -60 100 -3 -4 9 -59 21 -93 3 -11 -10 8 -30
43 -21 35 -39 61 -41 59 -2 -2 3 -30 12 -63 10 -38 13 -75 9 -104 l-7 -45 -38
115 c-20 63 -41 123 -45 133 -13 31 -25 18 -25 -30 0 -57 -14 -87 -24 -51 -5
18 -8 20 -15 9 -13 -21 -25 47 -19 110 6 55 0 58 -12 7 l-7 -33 -12 45 c-7 25
-20 59 -29 75 l-16 30 -7 -33 c-4 -23 1 -56 17 -110 13 -42 22 -83 19 -92 -3
-8 2 -37 10 -64 17 -57 18 -66 6 -66 -5 0 -12 12 -15 26 -4 15 -9 24 -12 21
-3 -3 4 -40 16 -82 32 -116 18 -114 -20 3 -18 56 -34 102 -37 102 -2 0 -1 -10
2 -22 5 -18 4 -20 -4 -8 -15 22 -14 133 1 124 8 -5 9 -2 4 12 -4 10 -11 57
-14 104 -6 96 -14 79 -27 -58 l-7 -77 -19 35 -19 35 6 -40 c4 -22 13 -59 19
-83 14 -46 9 -94 -7 -70 -10 13 -3 -48 9 -78 3 -8 1 -14 -3 -14 -15 0 -65 131
-63 164 1 17 1 51 -1 76 -2 38 -4 31 -16 -45 -7 -49 -11 -96 -9 -102 8 -22 -5
-14 -16 9 -9 22 -9 22 -4 -2 17 -76 26 -133 22 -137 -5 -5 -32 81 -40 127 -3
18 -5 13 -6 -15 l-3 -40 -28 60 c-33 70 -38 62 -10 -19 10 -31 17 -63 14 -71
-3 -7 2 -50 11 -95 17 -82 14 -116 -5 -66 -5 15 -10 40 -10 56 0 35 -10 61
-20 55 -4 -3 -14 19 -20 48 -7 28 -27 86 -45 127 -18 41 -41 97 -51 124 -10
27 -20 44 -22 38 -2 -6 14 -53 36 -104 22 -51 46 -113 53 -138 14 -50 20 -178
8 -158 -5 7 -9 23 -9 36 0 13 -4 21 -9 18 -9 -6 -13 10 -30 104 -7 39 -9 41
-10 13 -1 -35 -21 -57 -21 -23 0 12 -4 19 -8 16 -5 -3 -16 19 -25 48 -13 41
-16 74 -11 147 5 86 4 92 -10 75 -9 -11 -16 -36 -17 -55 l0 -36 -19 40 c-10
22 -19 47 -19 56 -1 9 -7 22 -15 28 -11 9 -13 6 -9 -16 3 -26 3 -27 -6 -5 -15
33 -21 27 -10 -10 14 -49 9 -59 -6 -13 -8 22 -14 54 -14 72 -1 17 -6 35 -13
39 -8 5 -9 0 -5 -17 7 -26 -11 -205 -23 -228 -7 -14 -55 125 -63 184 -4 27 -4
27 -6 -7 0 -20 3 -47 8 -60 4 -13 5 -32 0 -43 -6 -16 -8 -14 -8 13 -1 18 -5
31 -10 27 -6 -3 -20 23 -33 57 -16 45 -24 57 -26 41 -5 -35 -15 -27 -47 40
-21 44 -30 78 -30 117 -1 30 -4 62 -7 70 -4 8 -9 22 -11 30 -3 8 -6 2 -7 -15
-1 -29 -1 -29 -16 -10 -14 19 -15 16 -9 -37 8 -67 -3 -155 -16 -123 -6 15 -8
11 -10 -20 l-2 -40 -7 50 c-5 28 -9 91 -11 140 -2 61 -4 74 -6 40 -3 -27 -8
-52 -13 -55 -5 -3 -3 -29 5 -60 23 -85 17 -101 -12 -35 -16 36 -26 78 -25 105
0 36 -1 40 -8 20 -11 -35 -12 -84 -1 -96 11 -12 81 -207 81 -225 0 -13 -53
113 -94 224 -10 27 -19 47 -21 45 -4 -4 11 -108 19 -133 4 -11 -5 5 -19 35
-16 33 -24 65 -21 80 2 14 12 58 20 99 17 81 14 111 -4 40 -5 -24 -14 -57 -19
-74 l-9 -30 -2 35 c-1 21 -4 28 -7 16 -4 -15 -7 -16 -15 -5 -6 9 -8 -28 -4
-111 4 -93 14 -160 40 -263 22 -92 31 -148 27 -169 l-7 -32 -17 45 c-21 54
-22 73 -2 39 17 -29 20 -9 4 22 -17 31 -50 158 -44 168 3 5 -4 49 -15 99 -11
50 -20 112 -20 138 0 75 -17 32 -25 -64 -4 -46 -10 -81 -14 -78 -3 4 -18 40
-32 82 -29 82 -34 80 -46 -15 l-6 -57 -13 40 -13 40 4 -50 c4 -49 18 -121 30
-160 4 -14 2 -13 -9 5 -20 32 -20 25 0 -34 9 -26 13 -50 10 -53 -3 -4 -6 1 -6
10 0 9 -4 18 -9 22 -6 3 -6 -7 0 -27 19 -67 7 -61 -21 11 -16 41 -34 79 -40
85 -5 5 -11 33 -11 61 -2 47 -2 48 -9 15 -4 -19 -8 -28 -10 -20 -3 22 -18 -30
-19 -68 -1 -46 -17 -32 -25 23 -10 64 -21 62 -21 -3 -1 -32 -6 -66 -12 -77
-11 -19 -13 -18 -24 13 -17 49 -20 34 -6 -34 7 -33 11 -80 9 -103 l-4 -42 -24
48 c-20 40 -24 31 -7 -14 3 -7 3 -13 0 -13 -8 0 -47 121 -48 149 -1 14 -7 -10
-14 -54 -12 -80 -12 -80 -25 -47 -20 52 -24 29 -5 -28 9 -28 15 -54 12 -57 -3
-2 1 -26 9 -51 16 -55 17 -62 4 -42 -23 37 -17 -5 15 -100 26 -76 35 -120 34
-164 l-1 -61 -17 65 c-27 100 -29 101 -27 8 1 -94 -5 -95 -24 -4 -7 33 -16 67
-20 75 -18 35 -30 104 -40 217 -5 66 -10 124 -11 129 -2 28 -18 -37 -19 -80
l-2 -50 -19 70 c-10 39 -19 99 -20 135 -2 44 -4 54 -7 30 l-5 -35 -23 50 c-18
37 -22 42 -18 20 9 -53 -17 1 -37 74 -9 37 -18 60 -18 53 -1 -7 -5 -11 -10 -7
-11 6 -31 -55 -31 -95 -1 -52 -20 4 -20 60 -1 50 -2 53 -13 30 -9 -18 -13
-233 -15 -822 l-3 -798 1046 0 c829 0 1045 3 1045 13 0 9 2 9 8 -1 6 -9 33
-12 97 -10 l88 3 13 35 c7 19 13 30 13 23 1 -6 -3 -23 -9 -37 l-10 -26 1904 0
c1514 0 1905 3 1909 13 4 9 6 9 6 -1 1 -9 377 -12 1850 -12 l1848 0 12 23 11
22 -6 -22 -5 -23 628 0 c476 0 632 3 641 12 9 9 12 9 12 0 0 -9 122 -12 520
-12 l521 0 9 22 9 23 0 -22 1 -23 320 0 320 0 -1 183 c0 151 -3 177 -12 150
-18 -48 -28 -51 -27 -8 1 22 1 60 0 86 0 25 3 56 8 70 9 22 10 21 16 -18 5
-26 3 -50 -4 -63 -6 -12 -9 -26 -6 -33 2 -7 5 -4 5 6 1 9 6 17 11 17 7 0 10
147 10 420 0 436 1 430 -41 512 -5 10 -9 32 -9 50 0 46 16 19 31 -52 7 -30 14
-49 17 -42 2 8 -3 46 -12 85 -49 213 -60 253 -68 267 -9 15 -4 -29 9 -75 3
-11 3 -17 -1 -14 -4 3 -22 51 -41 105 -31 91 -33 95 -29 49 l4 -50 -18 40
c-11 22 -22 57 -26 77 -4 21 -13 52 -22 70 l-14 33 6 -50 c4 -27 17 -85 31
-128 13 -44 23 -94 21 -115 l-4 -37 -12 30 c-7 17 -17 39 -22 50 -6 11 -21 52
-34 90 -37 105 -31 64 9 -68 40 -131 45 -171 15 -117 l-20 35 6 -30 c3 -16 17
-65 31 -108 14 -43 23 -80 20 -83 -5 -6 -77 180 -77 201 0 8 -4 15 -9 15 -5 0
-14 12 -20 28 -9 23 -10 17 -7 -38 l4 -65 -16 35 c-9 19 -19 79 -22 135 -4 55
-7 90 -8 77 -1 -14 -6 -20 -13 -16 -7 4 -9 28 -5 68 12 124 -18 -9 -42 -189
l-8 -60 -13 40 c-6 22 -15 81 -18 130 -5 73 -8 84 -15 60 -5 -17 -4 -67 2
-115 14 -118 12 -125 -15 -48 -13 37 -29 110 -35 163 -7 52 -16 92 -21 89 -5
-3 -9 -15 -10 -27 0 -17 -4 -14 -15 13 l-14 35 5 -40 c4 -22 9 -57 12 -77 11
-72 -14 -38 -43 56 -28 96 -44 113 -44 49 0 -49 22 -130 79 -285 55 -153 67
-193 51 -183 -5 3 -10 17 -10 31 0 14 -4 23 -8 20 -4 -2 -28 58 -52 135 -24
77 -47 142 -52 145 -13 8 -9 -16 17 -100 14 -44 23 -81 21 -83 -4 -4 -52 117
-76 190 -6 21 -14 36 -16 34 -6 -6 39 -147 74 -233 19 -48 26 -79 22 -103 l-5
-34 -14 39 c-60 171 -76 192 -31 39 43 -141 35 -151 -11 -15 -21 63 -37 99
-34 80 17 -127 18 -143 6 -136 -6 4 -20 24 -31 44 -21 41 -25 35 -11 -16 17
-59 -7 -23 -29 43 -12 36 -24 65 -27 65 -6 0 -8 7 42 -154 46 -149 34 -171
-14 -25 -6 20 -18 36 -26 36 -8 0 -15 -1 -15 -3 0 -1 21 -62 46 -134 25 -73
44 -134 41 -136 -8 -8 -24 21 -58 109 -28 73 -35 84 -42 65 -5 -13 -3 -33 4
-50 6 -16 9 -31 6 -34 -8 -8 -36 83 -31 103 3 10 -8 57 -25 104 -23 64 -29 95
-24 125 6 39 6 39 -14 21 -16 -14 -22 -15 -26 -5 -3 7 -6 3 -6 -10 -1 -14 -5
-21 -12 -16 -13 7 -5 -36 17 -101 15 -42 19 -151 5 -125 -4 8 -18 51 -32 95
-13 44 -32 89 -43 100 l-19 20 8 -20 c13 -37 19 -98 8 -92 -12 8 -23 -14 -23
-46 -1 -21 -1 -21 -15 3 -22 38 -18 12 10 -70 35 -102 30 -118 -10 -35 -27 54
-35 83 -35 128 0 56 -19 83 -21 30 -5 -90 -4 -121 4 -146 15 -47 0 -41 -22 8
-14 32 -21 69 -21 114 -1 62 -2 65 -15 41 l-14 -25 -1 35 c-1 19 -4 29 -7 22
-2 -6 -9 -10 -14 -6 -12 7 -12 2 7 -68 8 -33 14 -74 12 -92 l-3 -31 -14 40
c-56 169 -94 275 -98 272 -4 -5 27 -124 61 -237 15 -46 24 -89 22 -95 -2 -5
-5 -1 -5 10 -1 16 -3 17 -10 6 -7 -11 -13 -3 -22 29 -7 24 -15 38 -16 33 -2
-5 15 -69 37 -141 32 -106 40 -146 40 -211 0 -71 -10 -106 -23 -84 -9 14 -55
307 -54 343 0 19 -19 94 -42 165 -39 117 -43 139 -43 225 1 63 -2 88 -8 75 -5
-11 -9 -35 -9 -52 -1 -33 -15 -45 -24 -20 -2 6 -2 1 1 -13 3 -14 5 -41 5 -60
-1 -146 -4 -220 -10 -220 -5 0 -23 50 -42 111 -30 94 -33 114 -24 142 16 46
27 134 15 122 -13 -14 -32 -96 -32 -138 0 -19 -3 -49 -7 -68 -6 -31 -7 -29
-26 42 -11 40 -20 97 -21 126 -1 52 -15 65 -17 15 0 -19 -6 -9 -20 33 l-19 60
5 -76 c2 -42 9 -89 15 -103 5 -15 8 -46 5 -69 -3 -31 -2 -35 4 -17 7 22 11 15
34 -57 24 -74 40 -153 31 -153 -2 0 -17 27 -34 60 -17 33 -39 69 -50 80 -24
24 -24 23 -4 -25 8 -20 13 -42 11 -48 -5 -13 -46 112 -72 218 -22 87 -37 117
-29 55 11 -78 43 -187 94 -322 29 -74 50 -145 49 -166 0 -29 -5 -19 -23 48
-32 116 -153 426 -163 416 -2 -2 17 -63 43 -135 25 -73 44 -134 42 -136 -2 -2
-21 44 -42 103 -21 59 -42 111 -47 116 -4 4 -11 -14 -15 -40 -8 -57 -22 -100
-23 -72 -1 10 -10 22 -21 28 -11 6 -27 25 -35 43 l-15 32 7 -35 c3 -19 6 -42
5 -50 0 -8 6 -34 15 -58 8 -23 12 -49 9 -57 -3 -8 1 -38 8 -67 8 -29 22 -136
31 -238 9 -102 30 -257 47 -346 29 -152 30 -164 16 -205 l-15 -44 -12 42 c-9
32 -9 54 -1 83 14 51 2 144 -40 305 -33 130 -36 150 -19 139 7 -4 9 0 6 12
-33 114 -46 156 -84 262 -40 115 -52 165 -36 148 4 -4 15 -30 25 -59 12 -38
16 -42 12 -17 -4 19 -15 60 -25 90 -23 66 -24 90 -2 35 17 -41 59 -112 50 -85
-18 57 -70 207 -75 214 -15 25 -20 -39 -7 -89 18 -68 18 -62 1 -68 -9 -4 -20
6 -29 26 -14 27 -17 29 -23 13 -4 -10 2 -40 15 -72 34 -80 22 -101 -14 -26
-31 66 -47 71 -20 6 8 -20 13 -39 10 -42 -7 -7 -8 -5 -46 68 -24 47 -34 60
-37 46 -4 -18 -5 -18 -18 5 -16 27 -16 27 2 -107 4 -34 2 -54 -5 -58 -7 -5
-11 4 -12 26 -1 31 -1 32 -9 8 -4 -14 -8 -18 -9 -10 -2 32 -44 159 -51 155 -4
-3 -11 -42 -15 -87 -7 -80 -8 -82 -21 -53 -16 37 -18 20 -3 -24 15 -44 3 -52
-15 -10 l-15 34 -1 -34 c0 -33 -1 -34 -19 -17 -11 10 -31 47 -46 83 -20 51
-24 75 -19 108 8 57 -2 91 -22 74 -8 -7 -14 -22 -13 -33 3 -39 -1 -41 -21 -8
-11 18 -20 51 -21 75 0 33 -2 38 -9 22 -5 -11 -9 -33 -10 -50 -1 -28 -3 -27
-24 20 l-23 50 -7 -40 c-4 -22 -2 -62 4 -90 18 -84 22 -148 12 -185 -9 -31
-10 -24 -13 55 -2 74 -3 82 -9 45 -7 -49 -7 -49 -43 58 -27 82 -36 96 -29 52
2 -17 0 -30 -6 -30 -6 0 -13 -8 -15 -17 -3 -10 -5 5 -6 32 -1 49 -20 104 -21
60 0 -17 -2 -18 -11 -5 -8 12 -9 9 -4 -10 4 -14 11 -104 15 -201 5 -100 13
-186 20 -199 6 -12 9 -24 6 -27 -3 -3 -8 0 -10 8 -3 8 -32 89 -65 180 -32 91
-62 181 -66 200 -7 29 -9 31 -15 14 -6 -16 -10 -12 -20 25 -9 34 -9 65 -1 130
12 97 14 126 5 118 -12 -13 -34 -147 -35 -213 -1 -63 -2 -67 -12 -43 -8 16
-10 52 -7 95 3 37 3 88 0 113 l-5 45 -14 -63 c-12 -53 -16 -61 -24 -45 -10 18
-29 34 -34 29 -2 -1 4 -25 12 -52 18 -59 18 -87 -1 -139 -13 -40 -14 -39 -10
40 2 49 1 69 -4 50 -4 -16 -8 -48 -9 -70 -1 -45 -13 -38 -29 20 -8 28 -8 60
-2 105 13 88 13 200 0 180 -5 -8 -10 -10 -10 -5 -1 21 -20 -21 -20 -45 -1 -56
-18 -53 -31 6 -18 88 -26 94 -23 17 1 -37 11 -104 23 -148 21 -81 27 -145 14
-145 -5 0 -25 50 -47 111 -31 89 -37 120 -33 157 l6 47 -15 -34 -15 -34 -15
29 c-9 16 -19 45 -24 64 -5 23 -8 27 -9 13 -2 -50 -19 -27 -33 45 -9 42 -16
65 -17 50 -1 -32 -21 -39 -21 -8 0 11 -4 20 -9 20 -16 0 -21 -45 -10 -108 6
-34 8 -79 4 -100 l-8 -37 -17 55 c-16 48 -19 52 -24 30 -4 -14 -2 -56 3 -95 4
-38 7 -72 5 -74 -1 -2 -10 22 -19 54 -9 31 -19 54 -22 51 -7 -6 15 -102 32
-141 15 -33 37 -146 31 -153 -6 -5 -23 58 -32 116 -4 23 -10 42 -14 42 -13 0
-48 132 -45 170 1 19 0 25 -2 12 -3 -17 -8 -20 -16 -13 -9 7 -11 -2 -9 -37 2
-35 0 -43 -7 -32 -6 8 -11 23 -11 33 0 9 -5 17 -10 17 -7 0 -8 -40 -4 -120 4
-66 4 -120 1 -120 -3 0 -16 33 -28 73 -13 39 -27 76 -31 82 -5 5 -2 -13 7 -40
20 -68 18 -79 -6 -26 -11 24 -21 42 -24 40 -2 -3 4 -45 14 -94 12 -56 16 -105
12 -129 l-6 -39 -18 49 c-28 77 -66 151 -66 131 -1 -10 19 -71 44 -134 25 -64
43 -118 40 -121 -2 -3 -8 4 -12 14 -3 10 -15 30 -25 45 -11 14 -25 50 -33 81
-27 102 -55 134 -55 62 0 -41 -17 -54 -26 -19 -3 14 -10 25 -15 25 -4 0 -1
-23 7 -51 9 -28 13 -53 10 -56 -3 -3 -10 15 -17 41 -6 25 -16 49 -21 52 -9 6
-2 -31 13 -74 15 -41 9 -49 -8 -9 -8 20 -19 37 -24 37 -15 0 -2 -112 20 -170
13 -34 21 -78 21 -117 0 -40 4 -63 11 -63 7 0 9 11 5 30 -3 17 -2 29 3 26 11
-7 35 -164 29 -191 -4 -20 -33 62 -65 185 -24 97 -64 222 -68 218 -3 -2 4 -36
15 -74 24 -84 26 -125 4 -74 -9 19 -20 46 -25 59 -5 13 -12 22 -14 19 -3 -2 6
-38 19 -79 30 -96 59 -219 53 -225 -6 -7 -62 128 -77 186 -11 43 -58 125 -67
116 -2 -2 5 -32 17 -66 12 -34 19 -67 16 -74 -2 -6 -5 -1 -5 12 -1 12 -6 22
-12 22 -7 0 -9 -11 -5 -30 4 -20 2 -29 -5 -25 -6 4 -7 -3 -3 -22 11 -46 -2
-23 -35 60 -17 43 -31 94 -32 115 0 20 -3 31 -6 23 -4 -9 -10 -3 -19 18 -8 18
-18 30 -24 26 -6 -4 -10 15 -10 51 0 76 -8 66 -11 -14 -1 -34 -6 -62 -11 -62
-6 0 -8 29 -6 64 1 35 0 62 -4 59 -5 -2 -8 -19 -8 -36 -1 -32 -1 -32 -18 -11
-9 12 -22 30 -29 40 -14 22 9 -53 27 -85 6 -12 8 -42 3 -78 -6 -57 -7 -58 -16
-24 -7 27 -11 32 -19 20 -8 -11 -9 -10 -4 4 3 10 6 26 7 35 0 14 2 13 9 -3 5
-13 9 -14 9 -5 0 22 -17 59 -19 40 -2 -25 -50 110 -64 180 -22 104 -27 150
-18 150 5 0 15 -41 22 -92 8 -51 24 -122 36 -158 30 -84 29 -74 -1 52 -13 57
-29 153 -35 213 -6 61 -13 121 -17 135 l-6 25 -7 -25 c-13 -41 -10 -160 5
-245 26 -145 15 -133 -35 38 -28 97 -28 99 -14 190 18 119 17 143 -3 97 -22
-48 -33 -230 -16 -248 7 -7 13 -25 13 -40 0 -14 5 -51 12 -82 8 -40 8 -64 0
-85 -8 -24 -11 -26 -11 -9 -1 12 -7 34 -15 48 -8 15 -12 47 -10 74 1 26 1 37
-2 25 -9 -37 -19 -27 -42 43 -12 36 -29 73 -38 82 -15 15 -16 15 -11 -3 43
-147 100 -450 81 -432 -19 18 -101 266 -98 293 3 23 2 25 -4 10 -17 -39 -20 9
-6 95 16 101 16 102 5 94 -6 -3 -13 -27 -17 -53 -13 -89 -19 -92 -42 -22 -12
35 -22 73 -22 84 0 12 -8 30 -16 41 -15 19 -16 16 -10 -41 11 -101 -4 -109
-30 -14 -24 87 -44 123 -44 79 0 -20 -2 -21 -11 -9 -8 11 -9 7 -6 -20 l6 -35
-18 38 -18 38 -10 -70 c-5 -38 -5 -67 -1 -65 4 3 8 13 9 22 0 13 2 12 9 -4 5
-14 4 -36 -5 -60 -7 -22 -16 -73 -20 -114 -9 -86 -12 -81 -46 58 -11 47 -19
104 -17 124 2 21 0 38 -5 38 -5 0 -7 26 -4 58 4 38 3 47 -2 27 -5 -16 -10 -52
-11 -80 l-2 -50 -15 43 c-26 75 -32 35 -8 -56 16 -61 21 -98 16 -122 l-7 -35
-12 34 c-7 19 -12 42 -12 51 0 9 -9 25 -20 35 -18 16 -20 31 -20 153 0 75 -2
133 -5 130 -3 -3 -10 -34 -14 -69 -24 -167 -40 -262 -46 -268 -4 -3 -4 26 -1
64 5 64 4 67 -6 30 l-12 -40 -12 50 c-12 47 -13 44 -10 -72 1 -68 1 -123 0
-123 -2 0 -9 7 -18 15 -13 13 -14 9 -9 -39 3 -30 2 -67 -2 -83 l-7 -28 -25 49
c-14 27 -29 70 -33 95 -6 34 -8 38 -9 16 0 -28 47 -265 63 -310 5 -16 4 -15
-5 2 -12 23 -39 39 -39 22 0 -5 12 -37 26 -72 31 -74 48 -235 20 -185 -21 36
-54 203 -62 312 -4 57 -9 84 -15 75 -5 -8 -9 -27 -10 -44 l-1 -30 -14 30 -15
30 6 -30 c3 -16 8 -59 10 -95 l5 -65 -26 55 c-16 34 -28 77 -30 114 -3 60 -13
89 -15 45 l-1 -24 -8 25 c-4 14 -8 44 -9 68 -1 23 -5 42 -11 42 -5 0 -10 10
-11 23 -1 21 -1 21 -9 -3 -4 -14 -5 -36 -2 -49 9 -41 -16 -14 -28 30 -6 23
-13 39 -15 37 -9 -9 25 -136 46 -178 22 -41 23 -55 21 -170 -2 -69 -5 -126 -6
-128 -2 -1 -13 23 -25 54 -14 37 -21 78 -21 124 0 46 -7 84 -20 115 -11 26
-20 61 -20 77 0 17 -3 28 -7 24 -8 -8 -9 -14 -12 -80 -2 -78 -19 -8 -24 102
-1 25 -6 41 -13 38 -6 -2 -22 32 -37 77 -27 82 -67 172 -67 149 0 -6 11 -46
25 -89 14 -43 25 -88 25 -101 0 -29 -20 -19 -21 11 0 12 -3 17 -5 11 -2 -6 4
-54 14 -107 20 -102 12 -127 -9 -29 -7 31 -19 67 -27 80 -8 12 -12 34 -9 48 2
14 -2 49 -9 78 -9 30 -12 71 -8 101 4 34 1 61 -10 85 -18 40 -21 22 -5 -33 12
-45 2 -69 -18 -42 -16 23 -16 12 -2 -55 8 -39 7 -72 -5 -151 -9 -55 -15 -119
-15 -142 2 -36 3 -32 13 28 l11 70 14 -70 c14 -68 21 -255 11 -255 -9 0 -69
231 -75 290 -4 30 -10 86 -15 124 -6 51 -4 89 7 140 10 50 12 93 7 146 -7 68
-8 72 -16 40 -4 -19 -7 -62 -6 -95 5 -161 -9 -170 -37 -25 -9 47 -22 99 -30
115 -7 17 -15 37 -18 45 -4 10 -6 8 -6 -7z m2348 -208 c0 -23 -2 -26 -9 -15
-5 8 -9 33 -9 55 1 35 2 37 9 15 4 -14 8 -38 9 -55z m-2299 -6 c0 -6 -4 -7
-10 -4 -5 3 -10 11 -10 16 0 6 5 7 10 4 6 -3 10 -11 10 -16z m-283 -36 c-3
-10 -5 -2 -5 17 0 19 2 27 5 18 2 -10 2 -26 0 -35z m158 -68 c-9 -57 -15 -76
-24 -71 -4 3 -6 -9 -4 -27 3 -31 3 -31 -8 -7 -14 32 -13 83 2 161 l12 63 14
-40 c8 -23 11 -55 8 -79z m-123 53 c5 -24 11 -65 13 -93 l3 -50 -15 35 c-16
36 -31 170 -18 158 4 -3 11 -26 17 -50z m2591 -19 c-12 -12 4 -171 23 -238 8
-29 13 -56 10 -59 -3 -3 -9 9 -12 27 -7 35 -24 52 -24 24 0 -17 61 -200 76
-225 5 -9 4 -10 -4 -3 -25 24 -82 145 -97 208 -17 68 -16 99 12 297 l6 45 9
-34 c5 -19 5 -38 1 -42z m-1326 -74 c-4 -26 -37 79 -36 114 1 18 7 7 20 -34
11 -33 18 -69 16 -80z m-981 24 c9 -54 -3 -49 -17 7 -9 33 -14 42 -21 32 -7
-9 -8 -8 -4 5 3 10 6 28 6 40 1 31 28 -33 36 -84z m2228 -136 c6 -42 -9 -43
-23 -1 -7 21 -9 64 -4 127 l7 96 8 -95 c4 -52 9 -110 12 -127z m2582 30 c-5
-5 -44 105 -51 142 -3 17 8 -8 25 -54 16 -47 28 -86 26 -88z m-5122 110 c8
-27 16 -70 17 -98 0 -27 4 -70 9 -95 17 -91 19 -110 12 -110 -5 0 -14 24 -21
53 -8 28 -22 67 -33 84 -17 29 -19 44 -12 123 3 49 8 90 9 90 2 0 10 -21 19
-47z m1015 27 c3 43 18 1 24 -65 3 -33 2 -49 -2 -35 -6 23 -8 23 -14 6 -4 -10
-5 -27 -2 -37 4 -10 3 -24 -1 -31 -14 -22 -34 74 -27 132 5 45 8 50 14 30 l7
-25 1 25z m354 -49 c5 -40 4 -52 -5 -43 -6 6 -13 35 -16 64 -6 71 13 52 21
-21z m-1165 -28 c23 -91 30 -219 12 -208 -6 4 -10 -9 -10 -32 -1 -53 -12 -28
-40 85 -23 94 -22 193 1 208 6 3 8 12 5 20 -3 8 -2 14 2 14 4 0 17 -39 30 -87z
m241 -106 c13 -32 14 -67 4 -67 -5 0 -19 28 -32 61 -19 51 -22 71 -16 118 l8
56 12 -70 c7 -38 18 -83 24 -98z m833 30 c-3 -12 -11 -30 -18 -40 -12 -18 -13
-18 -24 3 -11 21 -9 65 7 145 5 27 7 26 23 -28 10 -32 15 -68 12 -80z m-7719
54 c14 -54 16 -75 7 -91 -6 -11 -8 -25 -5 -30 3 -5 2 -17 -3 -26 -7 -12 -12
-6 -25 28 -12 32 -15 61 -10 116 3 39 9 72 12 72 4 0 15 -31 24 -69z m312 -8
c-10 -55 -17 -31 -8 28 4 33 9 45 11 30 2 -13 1 -39 -3 -58z m8564 -38 c62
-165 73 -188 83 -173 5 8 6 1 2 -17 -9 -39 -12 -42 -20 -19 -4 10 -18 44 -31
74 -40 88 -83 210 -83 232 0 32 5 23 49 -97z m-2509 37 c0 -7 -4 -10 -10 -7
-5 3 -10 16 -10 28 0 18 2 19 10 7 5 -8 10 -21 10 -28z m1387 -19 c-3 -10 -5
-2 -5 17 0 19 2 27 5 18 2 -10 2 -26 0 -35z m3863 -86 c7 -37 10 -70 8 -72 -9
-10 -50 175 -43 192 9 20 13 6 35 -120z m-11557 53 l6 -55 -15 34 c-9 19 -13
45 -9 59 8 33 11 27 18 -38z m11942 -49 c-9 -9 -23 13 -34 53 -16 61 0 66 21
6 10 -29 16 -56 13 -59z m-9480 -177 c7 -81 -6 -70 -25 21 -7 33 -15 54 -18
46 -11 -33 -37 73 -34 138 l4 66 33 -101 c19 -55 37 -131 40 -170z m5002 187
c3 -27 2 -58 -2 -68 -7 -17 -8 -17 -15 2 -8 18 -9 18 -10 -5 -1 -21 -4 -19
-16 15 -8 22 -13 46 -10 55 2 9 4 6 5 -7 0 -12 6 -25 12 -28 7 -5 8 5 4 29 -5
24 -3 36 4 36 7 0 9 10 6 28 -5 22 -4 24 5 10 6 -10 14 -40 17 -67z m4258
-116 c14 -44 25 -91 24 -105 0 -37 -58 128 -59 170 -1 34 -1 34 -17 15 -15
-19 -15 -18 -9 14 3 18 6 50 7 70 1 32 3 29 15 -24 8 -33 25 -96 39 -140z
m-11616 123 c7 -29 11 -64 9 -78 -3 -18 -8 -8 -17 35 -7 33 -15 71 -18 84 -4
14 -2 22 4 18 5 -3 15 -30 22 -59z m6171 5 c-10 -16 -11 -15 -6 7 3 14 6 32 7
40 1 8 4 5 6 -7 2 -12 -1 -30 -7 -40z m-6963 15 c-3 -7 -5 -2 -5 12 0 14 2 19
5 13 2 -7 2 -19 0 -25z m7332 -13 l0 -20 -9 20 c-5 11 -9 27 -9 35 -1 13 0 13
9 0 5 -8 9 -24 9 -35z m905 -23 c13 -41 15 -65 9 -77 -8 -14 -13 -8 -26 33
-18 53 -23 117 -9 108 5 -3 17 -32 26 -64z m191 -52 c2 -33 0 -49 -5 -40 -15
28 -39 132 -33 147 10 25 35 -45 38 -107z m2825 24 c10 -44 22 -88 25 -99 5
-15 4 -17 -3 -5 -9 13 -25 71 -47 165 -4 16 -4 27 0 24 3 -4 14 -42 25 -85z
m-10170 12 c11 -38 15 -45 21 -30 4 12 6 3 5 -23 0 -24 -3 -43 -6 -43 -8 0
-50 122 -50 145 0 30 16 5 30 -49z m4714 37 c18 -83 17 -79 7 -58 -18 38 -11
-4 14 -82 14 -43 24 -91 24 -108 0 -29 -1 -28 -21 15 -24 55 -48 160 -48 218
0 47 14 56 24 15z m4282 -191 c21 -67 34 -129 32 -150 -3 -33 -6 -28 -34 58
-53 160 -73 243 -66 275 6 29 6 28 19 -20 8 -27 30 -101 49 -163z m-2907 148
c0 -23 -1 -23 -9 -5 -5 11 -9 29 -9 40 -1 17 1 17 9 5 5 -8 9 -26 9 -40z
m2789 26 c-3 -14 0 -27 6 -29 16 -6 48 -154 44 -202 l-3 -40 -19 34 c-35 65
-75 173 -69 189 6 13 8 13 14 -4 5 -13 8 -4 8 29 1 27 6 47 12 47 7 0 9 -10 7
-24z m2658 -99 c24 -73 33 -121 33 -167 -1 -63 -1 -64 -14 -35 -8 17 -14 49
-15 72 0 23 -6 48 -13 55 -7 7 -18 32 -25 54 -13 44 -17 142 -5 130 4 -3 22
-53 39 -109z m-12630 36 c-11 -29 -17 -6 -9 33 7 36 8 37 11 11 2 -16 1 -36
-2 -44z m520 -5 c1 -29 9 -71 17 -93 16 -44 23 -291 8 -265 -14 24 -61 205
-60 231 1 19 5 15 21 -21 25 -54 34 -38 18 30 -8 33 -17 50 -27 50 -11 0 -14
6 -9 23 3 12 6 44 6 72 0 68 23 45 26 -27z m180 16 c14 -42 16 -57 6 -63 -9
-5 -6 -27 13 -91 14 -46 25 -102 25 -124 -1 -41 -1 -41 -15 -16 -8 14 -14 37
-15 52 0 15 -9 50 -20 78 -11 28 -18 61 -15 73 3 12 -1 40 -10 61 -16 37 -14
86 4 86 4 0 16 -25 27 -56z m2814 -38 c0 -5 -6 -3 -13 3 -8 6 -18 7 -22 3 -5
-4 -5 1 -2 11 4 10 7 33 8 50 0 30 1 29 15 -13 7 -25 14 -49 14 -54z m3565
-12 c37 -103 41 -124 25 -124 -5 0 -10 6 -10 14 0 13 -40 159 -56 201 -4 11
-4 17 0 14 4 -4 22 -51 41 -105z m2731 38 c-9 -8 -13 0 -20 38 l-6 35 16 -34
c8 -18 13 -36 10 -39z m-9763 -12 l6 -35 -14 30 c-8 17 -14 41 -14 55 0 22 1
23 8 5 4 -11 11 -36 14 -55z m944 48 c-3 -8 -6 -5 -6 6 -1 11 2 17 5 13 3 -3
4 -12 1 -19z m263 -36 c0 -20 -4 -31 -10 -27 -5 3 -10 25 -10 48 0 31 3 38 10
27 5 -8 10 -30 10 -48z m2197 -132 c-1 -8 -13 17 -24 55 -34 112 -36 138 -3
45 17 -47 29 -92 27 -100z m3571 129 c7 -29 11 -54 8 -56 -5 -5 -36 74 -36 92
0 34 17 11 28 -36z m1292 18 c0 -5 -4 -5 -10 -2 -5 3 -10 14 -10 23 0 15 2 15
10 2 5 -8 10 -19 10 -23z m1144 17 c3 -8 2 -12 -4 -9 -6 3 -10 10 -10 16 0 14
7 11 14 -7z m-9484 -77 c0 -36 -4 -56 -10 -52 -5 3 -10 36 -10 73 0 47 3 63
10 52 5 -8 10 -41 10 -73z m884 33 c5 -17 4 -20 -2 -10 -5 8 -13 26 -16 40 -5
17 -4 20 2 10 5 -8 13 -26 16 -40z m465 1 c18 -55 12 -70 -9 -22 -21 44 -27
83 -11 66 4 -6 13 -25 20 -44z m6016 -9 c-3 -7 2 -38 11 -69 18 -62 15 -72
-11 -43 -20 22 -33 125 -20 157 6 16 8 15 16 -6 6 -14 7 -31 4 -39z m2538 5
c29 -92 18 -106 -15 -19 -20 51 -22 72 -10 72 5 0 16 -24 25 -53z m-4433 -46
c11 -45 20 -99 19 -119 l0 -37 -25 54 c-18 41 -24 71 -24 124 0 39 2 68 5 65
3 -3 15 -42 25 -87z m3269 14 c1 -16 -1 -17 -9 -5 -5 8 -9 29 -9 45 1 29 1 29
9 5 4 -14 8 -34 9 -45z m2361 28 c0 -7 -4 -13 -10 -13 -5 0 -10 12 -10 28 0
21 2 24 10 12 5 -8 10 -21 10 -27z m1579 -9 c16 -63 8 -65 -11 -4 -9 28 -13
50 -8 50 4 0 13 -21 19 -46z m20 -4 c0 -9 -4 -8 -9 5 -5 11 -9 27 -9 35 0 9 4
8 9 -5 5 -11 9 -27 9 -35z m-5455 -24 c20 -60 20 -80 1 -45 -16 30 -38 116
-26 103 5 -5 16 -31 25 -58z m1011 -44 c-6 -6 -25 62 -24 87 0 16 6 4 14 -29
7 -30 12 -56 10 -58z m142 76 c-3 -7 -5 -2 -5 12 0 14 2 19 5 13 2 -7 2 -19 0
-25z m103 -15 c0 -22 -8 -14 -19 20 -10 29 -9 30 4 13 8 -11 15 -26 15 -33z
m3974 -12 c-6 -7 -11 2 -17 34 l-6 30 13 -30 c8 -16 12 -32 10 -34z m-11694
-1 c0 -13 -1 -13 -10 0 -5 8 -10 22 -10 30 0 13 1 13 10 0 5 -8 10 -22 10 -30z
m6188 -45 c0 -13 -5 -7 -13 15 -7 19 -13 44 -13 55 0 13 5 7 13 -15 7 -19 13
-44 13 -55z m764 -13 l-8 -37 -13 38 c-7 21 -10 50 -6 69 l7 31 14 -32 c9 -22
11 -44 6 -69z m2115 66 c-3 -7 -5 -2 -5 12 0 14 2 19 5 13 2 -7 2 -19 0 -25z
m-508 -52 c2 -25 -18 13 -23 44 l-6 35 14 -35 c8 -19 15 -39 15 -44z m2994 22
c16 -50 14 -67 -3 -23 -13 34 -24 81 -18 75 3 -3 12 -26 21 -52z m-12240 -103
c36 -144 52 -225 44 -225 -2 0 -16 33 -31 73 -16 39 -36 90 -45 112 -10 22
-17 60 -16 85 4 87 5 103 9 99 3 -2 20 -67 39 -144z m607 110 c0 -5 -5 -3 -10
5 -5 8 -10 20 -10 25 0 6 5 3 10 -5 5 -8 10 -19 10 -25z m224 -167 c3 -18 3
-27 0 -20 -3 6 -10 10 -15 6 -5 -3 -9 3 -9 14 0 10 -8 34 -17 53 -9 19 -18 61
-20 94 l-2 60 28 -87 c16 -47 32 -101 35 -120z m1069 182 c3 -11 1 -18 -4 -14
-5 3 -9 12 -9 20 0 20 7 17 13 -6z m1141 -61 c30 -86 32 -101 11 -73 -10 14
-8 1 6 -46 11 -36 22 -94 25 -130 l4 -65 -30 85 c-16 46 -28 91 -25 100 3 9
-2 38 -10 66 -13 43 -22 154 -11 143 2 -2 16 -38 30 -80z m309 20 c22 -76 15
-90 -8 -17 -10 29 -20 59 -23 66 -2 6 0 12 4 12 5 0 17 -28 27 -61z m4159 3
c10 -26 18 -51 18 -57 0 -15 -37 62 -45 92 -10 41 7 19 27 -35z m1178 23 c0
-5 -5 -3 -10 5 -5 8 -10 20 -10 25 0 6 5 3 10 -5 5 -8 10 -19 10 -25z m1541
-42 c10 -29 16 -53 14 -53 -10 0 -45 86 -44 109 1 28 2 26 30 -56z m118 5 c13
-40 25 -95 26 -123 1 -27 5 -59 9 -70 6 -16 6 -17 -3 -5 -32 44 -83 270 -62
270 4 0 18 -33 30 -72z m620 -48 c-1 -29 -5 -23 -25 40 -29 93 -29 96 1 40 13
-25 24 -61 24 -80z m-10921 79 c-3 -8 -7 -3 -11 10 -4 17 -3 21 5 13 5 -5 8
-16 6 -23z m1059 9 c-3 -8 -6 -5 -6 6 -1 11 2 17 5 13 3 -3 4 -12 1 -19z m90
-75 c-2 -21 -4 -6 -4 32 0 39 2 55 4 38 2 -18 2 -50 0 -70z m5167 -82 c9 -24
14 -46 12 -48 -6 -7 -36 58 -36 79 0 10 -4 18 -10 18 -6 0 -10 29 -9 68 l1 67
13 -70 c7 -38 20 -90 29 -114z m4026 109 c0 -9 4 -20 9 -25 5 -6 11 -32 15
-60 l6 -50 -15 39 c-8 21 -12 43 -8 49 4 6 1 7 -7 2 -8 -5 -11 -3 -8 6 3 8 2
23 -2 34 -4 11 -10 34 -13 50 l-6 30 14 -30 c8 -16 14 -37 15 -45z m665 -45
c20 -63 35 -122 33 -131 -6 -28 -78 161 -78 204 0 23 2 42 4 42 2 0 21 -52 41
-115z m239 5 c19 -65 8 -56 -23 18 -14 34 -19 61 -15 75 7 21 8 20 14 -8 4
-16 15 -55 24 -85z m135 -115 c23 -98 34 -179 21 -150 -7 14 -8 5 -4 -30 5
-49 5 -50 -11 -23 -8 15 -20 75 -26 135 -11 112 -19 144 -19 78 0 -29 -3 -36
-11 -28 -7 7 -13 60 -15 130 l-4 118 26 -75 c13 -41 33 -111 43 -155z m-11040
138 c1 -7 -3 -13 -8 -13 -13 0 -28 51 -23 75 4 16 7 13 18 -15 7 -19 13 -41
13 -47z m1401 49 c0 -15 -2 -15 -10 -2 -13 20 -13 33 0 25 6 -3 10 -14 10 -23z
m1489 -9 c0 -31 -2 -34 -9 -18 -12 28 -12 55 0 55 6 0 10 -17 9 -37z m158 -15
c-2 -13 -4 -5 -4 17 -1 22 1 32 4 23 2 -10 2 -28 0 -40z m5903 -13 c0 -29 -3
-36 -10 -25 -5 8 -10 33 -10 55 0 29 3 36 10 25 5 -8 10 -33 10 -55z m66 -22
c-7 -7 -36 54 -35 74 0 10 9 -2 20 -26 11 -24 17 -46 15 -48z m-9479 0 c-2
-16 -4 -3 -4 27 0 30 2 43 4 28 2 -16 2 -40 0 -55z m922 8 l-1 -36 -13 30 c-8
17 -14 38 -15 49 0 15 3 16 15 6 9 -7 15 -28 14 -49z m6114 -41 c32 -119 41
-170 28 -170 -5 0 -17 21 -27 48 -9 26 -23 62 -31 81 -14 35 -17 98 -7 126 4
9 8 15 9 13 1 -2 14 -46 28 -98z m3637 32 c0 -3 -7 3 -15 14 -8 10 -14 28 -14
39 0 14 4 10 14 -14 8 -18 15 -36 15 -39z m1538 29 c14 -45 16 -98 3 -105 -11
-7 -31 62 -31 108 0 47 14 46 28 -3z m-10279 -31 c0 -13 -1 -13 -8 0 -5 8 -12
26 -15 40 l-7 25 15 -25 c9 -14 15 -32 15 -40z m45 -5 c6 -39 6 -39 -8 -15 -9
14 -15 39 -15 55 0 40 14 15 23 -40z m3645 -20 c30 -104 48 -150 53 -134 3 8
10 -2 16 -21 14 -47 22 -131 11 -124 -5 3 -9 13 -9 22 0 9 -12 42 -26 72 -20
44 -84 247 -84 269 0 22 22 -26 39 -84z m3310 -25 c0 -3 -6 6 -14 20 -8 14
-14 41 -14 60 1 31 2 29 14 -20 8 -30 14 -57 14 -60z m360 60 c1 -13 0 -13 -9
0 -5 8 -9 24 -9 35 l0 20 9 -20 c5 -11 9 -27 9 -35z m575 10 l7 -25 -15 25
c-17 28 -21 50 -7 35 5 -6 12 -21 15 -35z m-9516 -131 c-19 -12 -54 97 -44
137 7 26 10 22 33 -50 20 -64 22 -80 11 -87z m1009 139 c-3 -8 -6 -5 -6 6 -1
11 2 17 5 13 3 -3 4 -12 1 -19z m3730 0 c-3 -8 -6 -5 -6 6 -1 11 2 17 5 13 3
-3 4 -12 1 -19z m203 -13 c0 -5 -5 -3 -10 5 -5 8 -10 20 -10 25 0 6 5 3 10 -5
5 -8 10 -19 10 -25z m2773 5 c3 -12 0 -20 -8 -20 -7 0 -12 11 -12 25 0 28 12
25 20 -5z m4256 -99 l-1 -56 -13 40 c-8 22 -14 63 -14 90 l0 50 14 -34 c8 -18
15 -59 14 -90z m-8770 29 c1 -8 -6 -2 -14 14 -8 15 -15 38 -14 50 0 15 4 12
14 -14 7 -19 14 -42 14 -50z m2520 -10 l-1 -35 -13 30 c-8 17 -14 46 -14 65
l1 35 13 -30 c8 -16 14 -46 14 -65z m869 65 c-3 -3 -9 2 -12 12 -6 14 -5 15 5
6 7 -7 10 -15 7 -18z m1487 -5 c9 -16 13 -30 11 -30 -3 0 -12 14 -21 30 -9 17
-13 30 -11 30 3 0 12 -13 21 -30z m2370 0 c8 -16 15 -37 15 -47 -1 -17 -1 -17
-11 0 -13 22 -29 77 -24 77 3 0 11 -13 20 -30z m-8780 -36 c9 -31 14 -58 12
-60 -2 -2 -9 15 -16 38 -7 24 -15 51 -17 61 -3 9 -3 17 0 17 2 0 12 -25 21
-56z m3649 -27 c15 -38 25 -71 23 -73 -3 -3 -9 8 -15 23 -6 15 -20 53 -32 83
-12 30 -17 51 -12 45 5 -5 22 -41 36 -78z m-2305 -27 c0 -14 -6 -4 -14 25 -8
28 -14 57 -14 65 1 24 27 -62 28 -90z m6114 -105 c3 -93 4 -165 2 -160 -13 32
-35 217 -35 287 0 72 2 80 14 63 9 -14 15 -72 19 -190z m2942 119 l5 -29 -14
31 c-8 17 -17 44 -21 60 l-5 29 14 -31 c8 -17 17 -44 21 -60z m-6965 0 c27
-92 24 -101 -9 -29 -15 33 -25 70 -23 83 6 31 10 25 32 -54z m2025 -33 c15
-40 25 -77 22 -84 -6 -19 -77 133 -77 167 0 30 0 30 15 9 8 -11 26 -53 40 -92z
m332 87 c-3 -8 -6 -5 -6 6 -1 11 2 17 5 13 3 -3 4 -12 1 -19z m-5717 -26 c0
-7 -4 -10 -10 -7 -5 3 -10 16 -10 28 0 18 2 19 10 7 5 -8 10 -21 10 -28z
m1857 6 c-3 -7 -5 -2 -5 12 0 14 2 19 5 13 2 -7 2 -19 0 -25z m8563 -1 c0 -18
-2 -19 -10 -7 -13 20 -13 43 0 35 6 -3 10 -16 10 -28z m-5592 -137 c35 -106
57 -200 72 -298 12 -79 20 -145 17 -148 -4 -4 -35 110 -77 289 -12 49 -32 120
-46 159 -20 60 -34 172 -20 157 3 -2 27 -74 54 -159z m3751 100 c21 -56 28
-110 13 -110 -12 0 -32 62 -39 122 -7 64 -2 61 26 -12z m-9359 15 c0 -5 -5 -3
-10 5 -5 8 -10 20 -10 25 0 6 5 3 10 -5 5 -8 10 -19 10 -25z m4523 -80 l6 -60
-19 40 c-10 22 -19 63 -19 90 0 50 0 50 13 20 7 -16 16 -57 19 -90z m1533 54
c11 -31 23 -90 26 -135 6 -85 5 -82 -37 66 -15 52 -30 103 -33 114 -3 13 -1
17 9 14 7 -2 23 -29 35 -59z m1534 -34 c15 -33 30 -158 29 -247 l-1 -83 -24
90 c-13 50 -25 99 -25 110 -1 11 -5 59 -10 106 -10 96 -1 154 13 84 4 -22 12
-49 18 -60z m670 -63 c0 -42 -11 -35 -34 21 -9 22 -11 35 -4 31 7 -5 9 2 4 21
-19 74 -15 85 9 26 14 -35 25 -80 25 -99z m725 65 c-3 -6 4 -43 15 -81 11 -38
18 -71 16 -73 -2 -2 -18 26 -35 63 -25 53 -31 79 -30 128 l0 61 19 -43 c11
-23 17 -48 15 -55z m484 8 c7 -33 17 -69 22 -81 6 -11 9 -34 6 -50 -4 -28 -4
-27 -6 6 -2 28 -4 31 -10 15 -7 -17 -11 -13 -29 28 -18 40 -20 60 -15 109 7
68 15 61 32 -27z m94 -31 c6 -66 6 -68 -7 -34 -8 19 -14 62 -14 95 0 76 12 40
21 -61z m47 81 c0 -5 -5 -3 -10 5 -5 8 -10 20 -10 25 0 6 5 3 10 -5 5 -8 10
-19 10 -25z m-10480 -16 c0 -9 7 -30 15 -45 17 -33 21 -99 5 -89 -5 3 -10 26
-10 51 0 30 -5 46 -15 50 -10 4 -15 19 -15 43 0 27 3 32 10 21 5 -8 10 -22 10
-31z m4133 -49 c15 -42 27 -95 26 -120 0 -39 -4 -32 -24 55 -13 55 -28 114
-35 130 -6 17 -7 26 -2 20 5 -5 21 -44 35 -85z m307 0 c0 -3 -5 2 -10 10 -15
23 -12 -2 6 -51 10 -28 16 -83 17 -150 l2 -106 -18 46 c-14 35 -19 80 -22 196
-4 142 -3 148 10 105 8 -25 15 -47 15 -50z m229 -14 c1 -31 -2 -36 -12 -27 -9
7 -14 34 -14 73 0 63 0 63 13 28 7 -19 13 -52 13 -74z m410 -105 c7 -23 10
-45 8 -48 -12 -11 -38 101 -42 177 l-4 85 13 -85 c7 -47 19 -105 25 -129z
m3758 187 c-3 -8 -6 -5 -6 6 -1 11 2 17 5 13 3 -3 4 -12 1 -19z m1304 -30 c-9
-20 -10 -18 -10 17 0 31 2 36 9 23 6 -10 7 -25 1 -40z m1309 -18 c0 -33 -3
-41 -10 -30 -5 8 -10 35 -10 60 0 33 3 41 10 30 5 -8 10 -35 10 -60z m-9921
13 c0 -36 -3 -43 -9 -28 -12 28 -12 75 0 75 6 0 10 -21 9 -47z m161 12 c0 -5
-5 -3 -10 5 -5 8 -10 20 -10 25 0 6 5 3 10 -5 5 -8 10 -19 10 -25z m1089 -33
c1 -13 -3 -20 -9 -17 -5 3 -10 25 -9 48 1 36 2 38 9 17 4 -14 8 -35 9 -48z
m292 41 c-12 -20 -14 -14 -5 12 4 9 9 14 11 11 3 -2 0 -13 -6 -23z m4016 -5
c-3 -7 -5 -2 -5 12 0 14 2 19 5 13 2 -7 2 -19 0 -25z m143 -137 c-1 -61 -15
-37 -35 59 -22 104 -18 124 10 51 14 -35 25 -84 25 -110z m137 132 c-3 -10 -5
-4 -5 12 0 17 2 24 5 18 2 -7 2 -21 0 -30z m2291 -58 c23 -60 32 -103 36 -174
3 -52 4 -92 2 -90 -2 2 -11 32 -20 65 -9 34 -22 74 -30 90 -8 15 -13 31 -10
36 3 5 1 15 -5 22 -15 17 -28 155 -14 141 6 -5 24 -46 41 -90z m139 63 c-3 -7
-5 -2 -5 12 0 14 2 19 5 13 2 -7 2 -19 0 -25z m-10273 7 c3 -8 1 -15 -4 -15
-6 0 -10 7 -10 15 0 8 2 15 4 15 2 0 6 -7 10 -15z m900 -59 c19 -49 26 -87 26
-135 -1 -84 -11 -66 -39 64 -19 94 -27 154 -17 144 2 -2 16 -35 30 -73z m403
52 c-3 -8 -6 -5 -6 6 -1 11 2 17 5 13 3 -3 4 -12 1 -19z m4463 -11 c0 -18 -2
-19 -10 -7 -13 20 -13 43 0 35 6 -3 10 -16 10 -28z m1208 -37 c0 -9 -3 -7 -8
5 -5 11 -8 29 -8 40 0 16 2 15 8 -5 4 -14 8 -32 8 -40z m927 -28 c25 -71 36
-200 16 -187 -5 3 -11 -3 -14 -12 -2 -10 -7 14 -10 52 -8 74 -23 173 -33 215
-14 52 16 4 41 -68z m404 -62 l0 -45 -24 61 c-13 33 -26 78 -30 100 l-6 39 30
-55 c21 -38 30 -69 30 -100z m-4605 45 c19 -108 19 -131 0 -87 -14 32 -33 192
-21 182 3 -3 13 -46 21 -95z m3109 0 c38 -96 55 -171 38 -161 -11 7 -81 216
-81 242 0 26 5 16 43 -81z m194 43 c-2 -13 -4 -5 -4 17 -1 22 1 32 4 23 2 -10
2 -28 0 -40z m2320 30 c-3 -8 -6 -5 -6 6 -1 11 2 17 5 13 3 -3 4 -12 1 -19z
m1128 -93 c4 -15 2 -14 -9 5 -20 32 -20 24 0 -34 24 -69 11 -67 -15 2 -11 33
-21 79 -21 103 l1 44 20 -50 c10 -27 22 -59 24 -70z m945 61 c1 -12 3 -45 6
-74 5 -66 -10 -61 -31 10 -18 61 -19 92 -4 82 8 -4 9 1 5 17 -7 23 -7 23 8 5
9 -11 16 -29 16 -40z m-9580 16 c0 -15 -2 -15 -10 -2 -13 20 -13 33 0 25 6 -3
10 -14 10 -23z m3739 -17 c0 -5 -4 -3 -9 5 -5 8 -9 22 -9 30 0 16 17 -16 18
-35z m2954 -27 c6 -4 14 -2 18 4 10 17 17 -17 24 -127 4 -65 3 -96 -3 -90 -14
15 -44 113 -38 124 3 4 -6 41 -19 82 -28 81 -31 102 -8 49 8 -19 20 -38 26
-42z m-6464 -18 c0 -8 -6 -4 -14 10 -8 14 -14 36 -14 50 0 22 2 21 14 -10 7
-19 14 -42 14 -50z m134 60 c3 -11 1 -18 -4 -14 -5 3 -9 12 -9 20 0 20 7 17
13 -6z m10362 -16 c8 -20 15 -51 14 -68 l-1 -31 -12 30 c-14 31 -28 105 -21
105 3 0 12 -16 20 -36z m-11399 -40 c22 -78 13 -76 -12 1 -12 36 -18 62 -13
59 5 -3 16 -30 25 -60z m1011 29 c-3 -10 -5 -4 -5 12 0 17 2 24 5 18 2 -7 2
-21 0 -30z m3121 -73 l0 -45 -14 60 c-17 78 -17 111 1 65 7 -19 13 -55 13 -80z
m3712 75 c0 -5 -5 -3 -10 5 -5 8 -10 20 -10 25 0 6 5 3 10 -5 5 -8 10 -19 10
-25z m3603 -3 c4 -21 3 -31 -3 -27 -6 3 -10 20 -10 37 0 38 5 34 13 -10z
m-10114 -34 c12 -34 21 -69 21 -77 -1 -19 -36 68 -45 110 -11 50 2 32 24 -33z
m995 -133 l5 -79 -20 43 c-15 34 -19 64 -18 140 l1 96 14 -60 c7 -33 15 -96
18 -140z m1053 -19 c-5 -15 -67 168 -66 194 1 14 16 -22 35 -80 19 -58 32
-109 31 -114z m2621 114 l0 -35 -13 30 c-8 17 -14 48 -14 70 l1 40 13 -35 c7
-19 13 -51 13 -70z m4011 55 c0 -5 -4 -3 -9 5 -5 8 -9 22 -9 30 0 16 17 -16
18 -35z m1192 -35 c11 -40 19 -89 17 -109 -3 -32 -5 -29 -20 34 -37 153 -35
212 3 75z m-7753 15 c0 -16 -2 -15 -8 5 -11 34 -11 60 0 35 5 -11 8 -29 8 -40z
m2492 -106 c27 -79 82 -424 65 -407 -2 2 -11 33 -19 68 -19 84 -53 176 -64
173 -5 -1 -9 3 -9 10 -1 7 -8 44 -16 82 -8 39 -17 108 -20 155 l-5 85 24 -53
c13 -30 33 -80 44 -113z m-6130 132 c0 -11 3 -28 7 -38 3 -10 3 -15 -1 -12
-12 11 -25 69 -15 69 5 0 9 -9 9 -19z m430 -181 c0 -45 -4 -70 -9 -65 -12 13
-31 151 -30 218 l0 52 19 -65 c11 -37 19 -97 20 -140z m3369 55 c0 -21 -6 -10
-19 35 -30 107 -32 118 -6 55 14 -33 25 -73 25 -90z m-3925 45 l6 -55 -14 35
c-8 19 -15 53 -15 75 0 54 14 19 23 -55z m2585 33 c0 -42 -3 -52 -9 -38 -15
35 -11 95 7 95 2 0 3 -26 2 -57z m450 12 c0 -5 -4 -3 -9 5 -5 8 -9 22 -9 30 0
16 17 -16 18 -35z m1795 -36 c17 -71 23 -393 6 -354 -5 11 -9 68 -9 127 -1 58
-8 142 -16 185 -27 138 -12 170 19 42z m4326 46 c0 -5 -5 -3 -10 5 -5 8 -10
20 -10 25 0 6 5 3 10 -5 5 -8 10 -19 10 -25z m1720 -37 c29 -95 49 -259 40
-323 -6 -46 -7 -48 -15 -22 -5 21 -10 25 -16 15 -9 -14 -14 30 -10 89 1 17 -5
62 -14 98 -13 59 -21 215 -11 215 2 0 14 -33 26 -72z m-8121 13 c6 -27 6 -40
0 -34 -10 10 -26 92 -16 83 3 -3 10 -25 16 -49z m380 17 c6 -18 7 -28 2 -23
-10 12 -25 55 -18 55 3 0 10 -15 16 -32z m1076 -45 c17 -48 25 -87 21 -105 -3
-15 -2 -39 3 -51 5 -13 12 -66 15 -118 l6 -94 -19 75 c-11 41 -27 127 -35 190
-9 63 -18 130 -21 148 -9 52 0 38 30 -45z m282 55 c-3 -8 -6 -5 -6 6 -1 11 2
17 5 13 3 -3 4 -12 1 -19z m6872 -63 c-1 -29 -1 -29 -8 -5 -4 14 -10 41 -14
60 l-6 35 14 -30 c8 -16 14 -43 14 -60z m-8712 53 c-3 -8 -6 -5 -6 6 -1 11 2
17 5 13 3 -3 4 -12 1 -19z m180 0 c-3 -8 -6 -5 -6 6 -1 11 2 17 5 13 3 -3 4
-12 1 -19z m1010 -30 c-2 -13 -4 -5 -4 17 -1 22 1 32 4 23 2 -10 2 -28 0 -40z
m770 30 c-3 -8 -6 -5 -6 6 -1 11 2 17 5 13 3 -3 4 -12 1 -19z m3232 -68 c0
-49 -15 -19 -22 45 -6 49 -6 49 8 20 8 -16 14 -46 14 -65z m3310 31 c6 -27 13
-87 15 -133 5 -82 5 -81 -13 37 -10 66 -22 129 -27 139 -5 13 -4 17 3 13 6 -4
16 -29 22 -56z m-9795 -26 c6 -31 5 -37 -4 -28 -7 6 -14 33 -16 60 -5 55 8 34
20 -32z m532 27 c-4 -10 3 -45 14 -77 11 -32 20 -68 19 -79 0 -14 -4 -8 -11
14 -5 19 -14 40 -18 45 -15 18 -30 99 -23 124 5 20 7 21 15 7 5 -9 7 -24 4
-34z m1403 -36 c1 -67 -5 -55 -12 24 -4 40 -2 57 3 45 5 -11 9 -42 9 -69z
m1015 30 c20 -66 20 -105 1 -61 -14 33 -30 115 -22 115 3 0 13 -24 21 -54z
m1405 -23 c0 -27 -1 -27 -19 12 -25 53 -25 74 0 42 11 -14 20 -38 19 -54z
m5904 -23 c5 -45 5 -45 -9 -15 -7 17 -13 50 -13 75 1 41 1 43 9 15 4 -16 10
-50 13 -75z m-9653 57 c0 -5 -4 -5 -10 -2 -5 3 -10 14 -10 23 0 15 2 15 10 2
5 -8 10 -19 10 -23z m354 -76 c25 -99 27 -171 5 -171 -5 0 -10 -10 -11 -22 -1
-13 -4 20 -8 72 -4 52 -10 127 -15 165 -4 39 -5 68 -3 65 3 -3 17 -52 32 -109z
m1640 49 l6 -35 -14 35 c-8 19 -15 42 -15 50 -1 26 16 -10 23 -50z m1095 -69
c0 -16 -10 2 -25 49 -30 93 -29 99 2 31 13 -29 24 -65 23 -80z m690 84 c0 -5
-4 -3 -9 5 -5 8 -9 22 -9 30 0 16 17 -16 18 -35z m3016 -145 c4 -32 3 -41 -4
-30 -14 20 -14 11 4 -57 8 -32 14 -95 14 -143 l-2 -85 -13 90 c-8 50 -16 122
-19 160 -4 39 -10 97 -15 130 -15 109 -10 137 10 55 10 -41 21 -95 25 -120z
m656 40 c16 -66 29 -137 27 -158 -3 -33 -5 -30 -21 38 -22 86 -56 250 -56 265
0 29 23 -38 50 -145z m1077 104 c-3 -27 -4 -26 -9 8 -3 22 -1 34 4 29 5 -5 7
-21 5 -37z m1328 -79 c7 -33 13 -67 13 -75 -1 -25 -46 114 -53 161 l-6 44 17
-35 c9 -19 22 -62 29 -95z m-9399 73 c-3 -7 -5 -2 -5 12 0 14 2 19 5 13 2 -7
2 -19 0 -25z m240 -30 c-2 -13 -4 -5 -4 17 -1 22 1 32 4 23 2 -10 2 -28 0 -40z
m268 -38 c4 -41 3 -60 -3 -50 -5 8 -12 44 -15 80 -4 40 -3 59 2 50 5 -9 12
-45 16 -80z m6731 -10 l4 -35 -14 40 c-7 22 -16 54 -19 70 -6 29 -5 28 9 -5 9
-19 18 -51 20 -70z m-8822 18 c3 -31 2 -59 -3 -62 -8 -5 -21 62 -21 112 0 46
17 9 24 -50z m6605 -18 c0 -56 -14 -29 -22 45 -5 46 -4 48 9 25 7 -14 13 -45
13 -70z m334 54 c5 -30 -8 -20 -18 15 -4 15 -3 21 3 17 5 -3 12 -17 15 -32z
m-8564 -87 c1 -43 -3 -66 -9 -62 -6 3 -10 45 -9 93 1 103 16 76 18 -31z m2755
61 c8 -29 11 -57 7 -61 -8 -8 -31 72 -31 103 0 23 10 6 24 -42z m2413 -68 c-4
-19 -37 77 -36 104 0 12 9 -4 20 -34 11 -30 18 -62 16 -70z m4549 21 c6 -85
-11 -52 -19 39 -4 48 -3 60 5 46 6 -10 12 -48 14 -85z m-8608 19 c18 -49 25
-100 47 -337 3 -34 2 -64 -3 -67 -11 -7 -22 65 -22 148 0 39 -4 56 -9 47 -10
-15 -27 75 -40 203 -8 85 -4 86 27 6z m289 48 c-3 -8 -6 -5 -6 6 -1 11 2 17 5
13 3 -3 4 -12 1 -19z m616 2 c3 -11 1 -20 -4 -20 -5 0 -9 9 -9 20 0 11 2 20 4
20 2 0 6 -9 9 -20z m4124 -130 c2 -53 1 -60 -8 -40 -11 26 -24 87 -33 155 l-6
40 22 -45 c12 -27 22 -71 25 -110z m4980 128 c-3 -8 -6 -5 -6 6 -1 11 2 17 5
13 3 -3 4 -12 1 -19z m-9947 -12 c0 -13 2 -33 5 -43 3 -10 -1 -4 -9 12 -18 36
-20 55 -6 55 6 0 10 -11 10 -24z m2840 -43 c20 -64 61 -304 59 -348 0 -11 -9
21 -19 70 -10 50 -27 126 -38 170 -21 82 -35 175 -27 175 2 0 14 -30 25 -67z
m3434 3 c17 -53 22 -141 7 -131 -9 5 -23 66 -36 155 -7 55 6 44 29 -24z m2873
-151 c3 -38 3 -67 -1 -64 -7 7 -46 243 -45 269 2 31 40 -138 46 -205z m2230
163 c-2 -13 -4 -5 -4 17 -1 22 1 32 4 23 2 -10 2 -28 0 -40z m-6178 -48 c0
-17 -5 -11 -15 20 -7 25 -13 52 -13 60 1 24 27 -53 28 -80z m887 2 c5 -67 -9
-37 -20 43 -5 39 -4 46 5 32 6 -10 12 -44 15 -75z m3529 -12 c5 -17 4 -22 -3
-15 -6 6 -15 26 -20 45 -5 19 -13 44 -16 55 -3 11 2 2 13 -20 10 -22 22 -51
26 -65z m-7416 40 c1 -13 0 -13 -9 0 -5 8 -9 24 -9 35 l0 20 9 -20 c5 -11 9
-27 9 -35z m3427 -55 c9 -37 -7 -25 -23 18 -12 31 -12 31 -7 -13 3 -25 10 -61
15 -80 5 -19 9 -46 8 -60 -1 -61 -31 71 -34 155 l-4 90 19 -40 c10 -22 22 -53
26 -70z m2224 60 c28 -66 52 -224 43 -293 l-7 -57 -8 45 c-5 25 -17 104 -28
175 -11 72 -22 140 -25 153 -9 37 4 25 25 -23z m338 -25 c1 -23 0 -23 -8 -5
-5 11 -8 34 -8 50 0 29 0 29 8 5 4 -14 8 -36 8 -50z m1580 24 c-3 -27 -4 -26
-9 8 -3 22 -1 34 4 29 5 -5 7 -21 5 -37z m-9430 -39 l1 -20 -9 20 c-5 11 -8
31 -8 45 l0 25 8 -25 c4 -14 8 -34 8 -45z m709 18 c-3 -10 -5 -2 -5 17 0 19 2
27 5 18 2 -10 2 -26 0 -35z m6941 -112 c5 -33 5 -58 1 -56 -3 3 -10 26 -14 52
-3 27 -9 59 -13 73 -6 21 -8 18 -13 -20 -5 -36 -6 -29 -7 35 l-1 80 19 -52
c10 -29 23 -79 28 -112z m-7311 127 c-3 -8 -6 -5 -6 6 -1 11 2 17 5 13 3 -3 4
-12 1 -19z m503 -28 c0 -20 -2 -22 -10 -10 -5 8 -10 26 -10 40 0 20 2 22 10
10 5 -8 10 -26 10 -40z m4196 -170 c19 -74 23 -107 18 -150 l-7 -55 -14 50
c-18 66 -73 342 -73 363 1 28 50 -106 76 -208z m2028 88 c2 -16 1 -28 -3 -28
-12 0 -31 73 -30 116 l1 39 14 -50 c7 -27 15 -62 18 -77z m-7944 27 c21 -102
21 -122 2 -64 -21 61 -37 164 -23 139 5 -8 15 -42 21 -75z m3048 5 c26 -96 35
-147 24 -135 -19 21 -66 233 -48 214 2 -2 13 -38 24 -79z m1552 21 c0 -45 -6
-37 -14 19 -4 31 -3 40 4 30 5 -8 10 -30 10 -49z m2749 22 c16 -61 24 -119 16
-111 -6 6 -34 117 -35 141 -1 20 10 3 19 -30z m-2692 -15 c-3 -7 -5 -2 -5 12
0 14 2 19 5 13 2 -7 2 -19 0 -25z m2778 -54 c19 -98 18 -102 -5 -39 -16 44
-28 136 -15 124 2 -3 11 -41 20 -85z m4148 -24 c3 -42 2 -66 -2 -55 -5 11 -11
54 -14 95 -4 43 -3 66 2 55 4 -11 11 -54 14 -95z m394 27 c22 -70 32 -187 15
-187 -7 0 -29 120 -46 248 -5 39 6 15 31 -61z m-11195 44 c2 -17 1 -28 -4 -25
-8 5 -12 54 -4 54 2 0 6 -13 8 -29z m-223 -41 c0 -9 -4 -8 -9 5 -5 11 -9 27
-9 35 0 9 4 8 9 -5 5 -11 9 -27 9 -35z m784 -40 c24 -119 32 -194 18 -186 -6
4 -11 16 -11 28 0 11 -6 46 -14 77 -16 64 -26 176 -15 164 4 -4 14 -42 22 -83z
m726 -27 c1 -29 -3 -53 -9 -53 -5 0 -10 11 -10 24 0 12 -2 52 -5 87 -5 63 -5
64 9 29 8 -19 15 -59 15 -87z m1209 92 c-3 -3 -9 2 -12 12 -6 14 -5 15 5 6 7
-7 10 -15 7 -18z m371 -64 c13 -82 9 -105 -7 -39 -18 74 -25 134 -14 123 5 -5
14 -43 21 -84z m2580 -3 c1 -31 -3 -60 -9 -63 -6 -4 -10 24 -9 77 1 94 17 82
18 -14z m91 -66 c11 -78 13 -149 5 -140 -5 5 -45 272 -44 293 1 25 30 -87 39
-153z m617 126 c-3 -7 -5 -2 -5 12 0 14 2 19 5 13 2 -7 2 -19 0 -25z m2943
-138 c11 -74 23 -148 26 -165 4 -19 3 -26 -4 -20 -5 6 -15 46 -22 90 -7 44
-18 118 -26 164 -16 94 -17 115 -4 86 5 -11 18 -81 30 -155z m1504 97 c8 -31
11 -55 6 -52 -9 6 -30 86 -29 112 1 22 4 14 23 -60z m-10397 41 c-3 -8 -6 -5
-6 6 -1 11 2 17 5 13 3 -3 4 -12 1 -19z m4062 -28 c0 -9 -4 -8 -9 5 -5 11 -9
27 -9 35 0 9 4 8 9 -5 5 -11 9 -27 9 -35z m5538 -12 c-2 -13 -4 -3 -4 22 0 25
2 35 4 23 2 -13 2 -33 0 -45z m1050 30 c-3 -7 -5 -2 -5 12 0 14 2 19 5 13 2
-7 2 -19 0 -25z m-1282 -35 c9 -31 15 -71 12 -87 -2 -17 1 -92 9 -166 13 -137
10 -199 -8 -166 -5 9 -11 84 -13 166 -3 137 -7 189 -21 278 -8 50 3 38 21 -25z
m-9156 -3 l-1 -25 -8 25 c-4 14 -8 32 -9 40 -1 13 0 13 9 0 5 -8 9 -26 9 -40z
m6808 18 c-3 -8 -6 -5 -6 6 -1 11 2 17 5 13 3 -3 4 -12 1 -19z m611 -78 c0
-64 -1 -64 -9 -20 -11 63 -10 132 1 105 5 -11 8 -49 8 -85z m2385 16 c4 -26 3
-36 -4 -29 -5 5 -12 34 -14 64 -5 59 7 36 18 -35z m861 -106 c4 -98 3 -105 -5
-50 -13 98 -20 256 -9 205 5 -22 11 -92 14 -155z m-12008 125 c10 -46 7 -155
-5 -155 -10 0 -21 84 -21 160 0 60 12 58 26 -5z m2291 33 c-3 -8 -6 -5 -6 6
-1 11 2 17 5 13 3 -3 4 -12 1 -19z m620 -30 c-2 -13 -4 -5 -4 17 -1 22 1 32 4
23 2 -10 2 -28 0 -40z m2876 -28 c10 -48 13 -88 8 -110 -10 -44 -17 -27 -28
70 -7 67 -6 127 2 118 1 -1 10 -37 18 -78z m917 40 c0 -13 -1 -13 -10 0 -5 8
-10 22 -10 30 0 13 1 13 10 0 5 -8 10 -22 10 -30z m-4922 -45 c1 -25 -1 -27
-8 -10 -5 11 -8 36 -8 55 0 32 1 33 8 10 4 -14 8 -38 8 -55z m732 30 c0 -17
-2 -17 -10 -5 -5 8 -10 24 -10 35 0 17 2 17 10 5 5 -8 10 -24 10 -35z m142 20
c3 -14 1 -25 -3 -25 -5 0 -9 11 -9 25 0 14 2 25 4 25 2 0 6 -11 8 -25z m5005
3 c-3 -8 -6 -5 -6 6 -1 11 2 17 5 13 3 -3 4 -12 1 -19z m586 -88 c-8 -61 -23
-29 -22 50 l0 65 14 -37 c8 -21 11 -54 8 -78z m3614 78 c-3 -7 -5 -2 -5 12 0
14 2 19 5 13 2 -7 2 -19 0 -25z m-11150 0 c-3 -8 -6 -5 -6 6 -1 11 2 17 5 13
3 -3 4 -12 1 -19z m2251 -148 l-1 -35 -8 40 c-4 22 -12 60 -18 85 -6 25 -10
54 -9 65 1 34 36 -118 36 -155z m1814 130 c2 -22 0 -40 -4 -40 -5 0 -8 18 -8
40 0 22 2 40 4 40 2 0 6 -18 8 -40z m-5053 -65 l0 -20 -9 20 c-5 11 -8 38 -8
60 l0 40 9 -40 c4 -22 8 -49 8 -60z m5704 0 c4 -54 3 -67 -2 -40 -17 82 -23
140 -13 130 5 -5 12 -46 15 -90z m2584 63 c-3 -7 -5 -2 -5 12 0 14 2 19 5 13
2 -7 2 -19 0 -25z m-8518 -40 c-1 -60 -2 -61 -10 -23 -11 55 -11 85 1 85 6 0
10 -27 9 -62z m877 35 c-10 -10 -19 5 -10 18 6 11 8 11 12 0 2 -7 1 -15 -2
-18z m45 -110 c-10 -39 -18 -19 -25 67 l-6 75 19 -58 c12 -37 16 -67 12 -84z
m4943 -44 c4 -46 4 -81 0 -77 -9 10 -34 180 -33 228 1 32 2 31 14 -16 7 -28
15 -89 19 -135z m39 58 c21 -107 24 -197 8 -197 -4 0 -13 60 -19 133 -7 72
-16 146 -19 162 -3 17 -3 27 1 24 4 -4 17 -59 29 -122z m1161 14 l5 -56 -13
50 c-8 28 -14 66 -14 85 0 35 0 35 8 6 5 -15 11 -53 14 -85z m1191 22 c7 -60
-9 -30 -19 37 -5 33 -4 41 4 28 5 -9 13 -38 15 -65z m-351 -48 c5 -25 4 -36
-2 -30 -9 10 -33 117 -31 139 1 15 25 -61 33 -109z m2231 -119 c-13 -92 -23
-56 -50 184 -5 50 -3 45 25 -45 22 -72 29 -111 25 -139z m1882 94 c-2 -8 -8 6
-14 32 -6 26 -8 60 -5 75 5 22 8 16 14 -32 5 -33 7 -67 5 -75z m-10523 34 c4
-32 3 -42 -2 -29 -5 11 -12 43 -15 70 -5 34 -4 43 2 29 5 -12 12 -43 15 -70z
m3226 20 c0 -41 -4 -63 -10 -59 -15 9 -10 125 6 125 2 0 4 -30 4 -66z m3948
-44 c0 -23 -1 -22 -8 5 -4 17 -8 48 -8 70 l1 40 8 -45 c4 -25 7 -56 7 -70z
m-7459 21 c1 -61 -5 -49 -13 24 -4 40 -3 53 3 40 5 -11 10 -40 10 -64z m178
47 c-3 -7 -5 -2 -5 12 0 14 2 19 5 13 2 -7 2 -19 0 -25z m8342 -60 c1 -21 -3
-38 -9 -38 -6 0 -10 27 -9 63 1 46 3 56 9 37 4 -14 8 -42 9 -62z m-4220 -20
c0 -20 -3 -39 -8 -42 -11 -7 -20 74 -13 111 l6 28 7 -30 c4 -16 7 -47 8 -67z
m703 57 c2 -19 0 -35 -4 -35 -4 0 -8 16 -8 35 0 19 2 35 4 35 2 0 6 -16 8 -35z
m-3813 -72 c0 -24 -3 -43 -9 -43 -6 0 -10 30 -9 73 1 54 3 65 9 42 4 -16 8
-49 9 -72z m7971 43 c0 -24 -3 -59 -7 -77 l-7 -34 -6 35 c-7 47 0 120 11 120
5 0 9 -20 9 -44z m-7326 8 c3 -8 2 -12 -4 -9 -6 3 -10 10 -10 16 0 14 7 11 14
-7z m6896 -1 c0 -10 3 -36 7 -58 3 -22 2 -37 -2 -32 -12 10 -23 107 -13 107 4
0 8 -8 8 -17z m1513 -173 c-19 -65 -27 -54 -16 21 5 30 6 77 2 104 -10 78 4
78 17 0 10 -59 10 -79 -3 -125z m-10706 158 c-3 -8 -6 -5 -6 6 -1 11 2 17 5
13 3 -3 4 -12 1 -19z m942 -50 c1 -39 0 -70 -2 -67 -9 10 -17 139 -9 139 5 0
10 -32 11 -72z m5834 13 c4 -32 3 -51 -2 -45 -9 9 -15 52 -13 88 3 32 9 14 15
-43z m4817 -1 c0 -19 -5 -42 -10 -50 -7 -11 -10 4 -10 50 0 46 3 61 10 50 5
-8 10 -31 10 -50z m-10903 -43 c3 -37 1 -72 -5 -82 -8 -15 -12 -6 -18 46 -11
77 -6 141 8 116 5 -9 11 -45 15 -80z m6131 -17 c0 -30 -3 -64 -8 -75 -5 -13
-8 18 -8 85 0 69 3 95 8 75 4 -16 8 -55 8 -85z m-5258 73 c0 -22 -2 -25 -10
-13 -13 20 -13 40 0 40 6 0 10 -12 10 -27z m5907 -65 c-9 -108 -26 -136 -27
-42 0 86 9 136 23 127 6 -4 7 -36 4 -85z m3572 -24 c-3 -96 -13 -124 -21 -56
-7 54 3 163 14 156 5 -3 8 -48 7 -100z m-8909 49 c0 -44 -5 -41 -14 10 -5 27
-4 37 3 32 6 -3 11 -22 11 -42z m904 -35 c4 -31 3 -59 -2 -62 -9 -5 -22 71
-22 124 1 43 17 1 24 -62z m1900 -58 l-7 -35 -8 35 c-5 19 -6 60 -2 90 l7 55
8 -55 c5 -30 6 -71 2 -90z m-3699 -67 c2 -57 0 -105 -4 -108 -10 -6 -31 175
-30 253 l1 57 14 -50 c8 -27 17 -96 19 -152z m2780 -1 c-9 -24 -22 -2 -29 48
-4 31 -3 40 4 30 7 -11 10 -1 10 37 0 28 3 60 8 70 8 21 16 -163 7 -185z
m3792 88 c-2 -19 -5 -13 -14 23 -6 27 -8 58 -5 70 5 17 8 12 14 -23 5 -25 7
-56 5 -70z m-510 78 c-3 -8 -6 -5 -6 6 -1 11 2 17 5 13 3 -3 4 -12 1 -19z
m-7320 -10 c-3 -8 -6 -5 -6 6 -1 11 2 17 5 13 3 -3 4 -12 1 -19z m7111 -53 l0
-40 -9 40 c-4 22 -8 49 -8 60 l0 20 9 -20 c5 -11 8 -38 8 -60z m4129 38 c-3
-10 -5 -4 -5 12 0 17 2 24 5 18 2 -7 2 -21 0 -30z m-8838 -30 l-1 -58 -10 42
c-10 38 -6 73 7 73 3 0 4 -26 4 -57z m7309 -23 l0 -35 -8 30 c-4 17 -8 44 -8
60 0 29 0 29 8 5 4 -14 8 -41 8 -60z m-4919 -47 c-10 -53 -29 -81 -29 -44 0
11 5 23 10 26 6 4 8 11 4 16 -3 6 -3 36 1 67 8 56 8 57 16 22 5 -20 4 -57 -2
-87z m5551 55 c-7 -19 -9 -15 -9 22 0 37 2 41 9 23 6 -14 6 -32 0 -45z m-2920
-32 c-6 -15 -9 -5 -8 34 0 50 1 52 8 21 5 -19 4 -44 0 -55z m4335 12 c4 -36 3
-58 -3 -58 -15 0 -22 27 -22 83 0 66 16 50 25 -25z m-11725 -4 c0 -41 -4 -63
-10 -59 -6 4 -10 -11 -10 -37 0 -24 -5 -50 -10 -58 -16 -25 -12 60 7 145 9 41
18 75 20 75 1 0 3 -30 3 -66z m6237 44 c-3 -8 -6 -5 -6 6 -1 11 2 17 5 13 3
-3 4 -12 1 -19z m2114 -48 l-10 -45 4 55 c4 63 6 71 11 50 2 -8 0 -35 -5 -60z
m1096 28 c-3 -8 -6 -5 -6 6 -1 11 2 17 5 13 3 -3 4 -12 1 -19z m-3281 -76
c-13 -13 -17 9 -10 50 l9 43 3 -44 c2 -23 1 -46 -2 -49z m3405 25 c-8 -8 -11
-4 -11 14 0 33 14 47 18 19 2 -12 -1 -27 -7 -33z m-9382 -14 l-1 -58 -10 43
c-5 24 -7 50 -4 58 11 28 16 13 15 -43z m1078 20 c-3 -10 -5 -4 -5 12 0 17 2
24 5 18 2 -7 2 -21 0 -30z m6230 15 c-3 -8 -6 -5 -6 6 -1 11 2 17 5 13 3 -3 4
-12 1 -19z m-6735 -101 c-9 -39 -10 -37 -10 38 0 73 1 76 10 42 7 -26 7 -53 0
-80z m10763 -9 c-8 -18 -13 -24 -9 -13 3 11 7 34 10 50 4 25 3 26 -5 10 -8
-16 -10 -13 -10 21 -1 58 13 64 22 10 5 -33 3 -54 -8 -78z m66 55 c-9 -16 -10
-15 -11 9 0 14 3 35 8 45 6 15 8 14 10 -9 2 -15 -1 -35 -7 -45z m-9699 -5 c-9
-20 -11 -18 -11 22 0 40 2 42 11 23 8 -17 8 -29 0 -45z m109 -8 l-10 -25 0 25
c-1 14 3 36 7 50 l7 25 3 -25 c2 -14 -2 -37 -7 -50z m-2568 -27 c4 -6 4 -19 0
-29 -6 -16 -7 -16 -14 2 -4 10 -7 39 -7 64 0 44 0 45 7 10 4 -20 10 -41 14
-47z m9987 53 c0 -38 -12 -86 -21 -86 -10 0 -12 35 -3 79 8 36 24 42 24 7z
m-3143 -53 c-2 -16 -4 -5 -4 22 0 28 2 40 4 28 2 -13 2 -35 0 -50z m-6757 -9
c-14 -35 -18 -28 -12 20 3 29 7 35 13 23 6 -9 5 -26 -1 -43z m2736 -18 c-4
-31 -12 -56 -17 -56 -10 0 -12 38 -2 93 10 61 27 28 19 -37z m5150 18 c-4 -18
-11 -34 -16 -34 -13 0 -12 4 2 53 14 46 23 33 14 -19z m-647 -36 c1 -21 -3
-38 -9 -38 -6 0 -10 27 -9 63 1 46 3 56 9 37 4 -14 8 -42 9 -62z m-352 50 c-3
-8 -6 -5 -6 6 -1 11 2 17 5 13 3 -3 4 -12 1 -19z m3517 6 c3 -8 2 -12 -4 -9
-6 3 -10 10 -10 16 0 14 7 11 14 -7z m1063 -6 c-3 -8 -6 -5 -6 6 -1 11 2 17 5
13 3 -3 4 -12 1 -19z m220 0 c-3 -8 -6 -5 -6 6 -1 11 2 17 5 13 3 -3 4 -12 1
-19z m-5518 -30 c0 -31 -3 -37 -8 -24 -7 18 -3 66 5 66 2 0 4 -19 3 -42z
m-1460 -1 c0 -12 -4 -31 -9 -42 -6 -15 -9 -8 -9 28 -1 30 3 46 9 42 6 -3 10
-16 9 -28z m1046 -6 c-4 -17 -11 -31 -16 -31 -11 0 -11 0 2 39 14 39 23 34 14
-8z m4355 -37 c-21 -73 -37 -100 -26 -45 12 66 27 111 36 111 5 0 0 -30 -10
-66z m-9824 8 c-12 -11 -18 7 -10 30 l8 23 4 -23 c2 -13 1 -26 -2 -30z m2284
-13 c-18 -43 -24 -28 -8 23 8 27 14 36 16 25 2 -10 -2 -32 -8 -48z m1086 -4
c-18 -48 -21 -26 -4 30 6 22 13 33 15 25 2 -9 -3 -33 -11 -55z m6736 20 c-6
-20 -11 -25 -16 -17 -11 18 2 68 14 56 5 -5 6 -23 2 -39z m-8778 -39 c-11 -33
-27 9 -18 47 l7 32 8 -30 c5 -16 6 -39 3 -49z m4906 27 c0 -24 -3 -33 -9 -25
-7 12 -4 62 5 62 2 0 4 -17 4 -37z m89 -5 c-1 -41 -1 -42 -11 -15 -5 15 -7 34
-4 42 10 27 16 16 15 -27z m3248 20 c-3 -8 -6 -5 -6 6 -1 11 2 17 5 13 3 -3 4
-12 1 -19z m1700 -15 c-3 -10 -5 -4 -5 12 0 17 2 24 5 18 2 -7 2 -21 0 -30z
m-3950 -20 c-3 -10 -5 -2 -5 17 0 19 2 27 5 18 2 -10 2 -26 0 -35z m2015 15
c-8 -8 -9 -4 -5 13 4 13 8 18 11 10 2 -7 -1 -18 -6 -23z m607 -13 c0 -5 -4 -3
-9 5 -5 8 -9 22 -9 30 0 16 17 -16 18 -35z m452 22 c-10 -9 -11 -8 -5 6 3 10
9 15 12 12 3 -3 0 -11 -7 -18z m-8936 -49 c-24 -74 -37 -83 -18 -12 16 64 22
78 30 70 3 -2 -3 -29 -12 -58z m202 40 c-3 -8 -6 -5 -6 6 -1 11 2 17 5 13 3
-3 4 -12 1 -19z m903 -10 c0 -23 -3 -29 -11 -21 -6 6 -8 20 -4 32 9 30 15 26
15 -11z m8027 -27 c-2 -32 -11 -69 -18 -82 -12 -23 -12 -23 -19 -4 -9 25 -1
82 17 118 21 41 26 33 20 -32z m779 23 c-4 -9 -9 -15 -11 -12 -3 3 -3 13 1 22
4 9 9 15 11 12 3 -3 3 -13 -1 -22z m495 -61 c-8 -14 -10 -8 -11 28 0 25 3 49
8 53 11 12 14 -62 3 -81z m-11081 21 c0 -34 -4 -53 -10 -49 -5 3 -10 28 -10
56 0 27 5 49 10 49 6 0 10 -25 10 -56z m1630 9 c0 -27 -3 -34 -11 -26 -7 7 -9
23 -5 37 9 37 16 32 16 -11z m2592 -35 c-2 -10 -8 -15 -13 -12 -11 6 -12 45
-2 71 6 15 8 13 13 -12 3 -16 4 -38 2 -47z m-5405 40 c-3 -8 -6 -5 -6 6 -1 11
2 17 5 13 3 -3 4 -12 1 -19z m10317 -13 c5 -22 4 -26 -4 -15 -5 8 -10 24 -10
34 0 26 6 18 14 -19z m-3583 -22 c-9 -16 -10 -16 -11 -1 0 9 3 25 7 35 7 16 8
17 11 1 2 -10 -1 -25 -7 -35z m406 25 c-3 -8 -6 -5 -6 6 -1 11 2 17 5 13 3 -3
4 -12 1 -19z m3675 -20 c-6 -6 -7 0 -4 19 5 21 7 23 10 9 2 -10 0 -22 -6 -28z
m-10245 10 c-3 -8 -6 -5 -6 6 -1 11 2 17 5 13 3 -3 4 -12 1 -19z m1850 -10
c-3 -7 -5 -2 -5 12 0 14 2 19 5 13 2 -7 2 -19 0 -25z m5384 -11 c-8 -8 -11 -3
-11 19 1 25 2 27 11 11 8 -14 8 -22 0 -30z m1845 17 c-4 -9 -9 -15 -11 -12 -3
3 -3 13 1 22 4 9 9 15 11 12 3 -3 3 -13 -1 -22z m1525 -20 c-5 -21 -9 -30 -10
-19 -1 24 10 67 15 62 3 -2 0 -22 -5 -43z m-9134 -11 c-3 -10 -5 -2 -5 17 0
19 2 27 5 18 2 -10 2 -26 0 -35z m273 -19 c-17 -50 -21 -38 -7 21 6 28 12 42
15 32 2 -9 -2 -33 -8 -53z m1967 44 c-3 -8 -6 -5 -6 6 -1 11 2 17 5 13 3 -3 4
-12 1 -19z m6490 0 c-3 -8 -6 -5 -6 6 -1 11 2 17 5 13 3 -3 4 -12 1 -19z
m-3197 -54 c-8 -22 -16 -32 -22 -26 -5 5 -5 18 1 33 5 13 13 33 17 44 13 37
17 -11 4 -51z m87 34 c-3 -7 -5 -2 -5 12 0 14 2 19 5 13 2 -7 2 -19 0 -25z
m783 0 c0 -23 -3 -29 -9 -19 -8 12 -4 51 5 51 2 0 4 -15 4 -32z m-700 -38 c0
-57 -16 -68 -23 -16 -7 52 0 86 14 64 5 -7 9 -29 9 -48z m1236 34 c-4 -9 -9
-15 -11 -12 -3 3 -3 13 1 22 4 9 9 15 11 12 3 -3 3 -13 -1 -22z m954 -9 c0
-19 -4 -35 -10 -35 -11 0 -14 53 -3 63 11 12 13 8 13 -28z m-5904 -12 c-11
-11 -19 6 -11 24 8 17 8 17 12 0 3 -10 2 -21 -1 -24z m3996 7 c3 -17 1 -33 -4
-36 -4 -3 -8 11 -8 30 0 44 6 47 12 6z m-6283 -22 c0 -35 -2 -39 -9 -21 -8 19
-3 63 6 63 2 0 4 -19 3 -42z m-138 -11 c-8 -8 -11 -5 -11 9 0 27 14 41 18 19
2 -9 -1 -22 -7 -28z m4202 -19 c-7 -38 -21 -27 -15 12 2 17 8 28 12 23 5 -4 6
-20 3 -35z m4978 19 c-10 -9 -11 -8 -5 6 3 10 9 15 12 12 3 -3 0 -11 -7 -18z
m246 1 c-3 -8 -6 -5 -6 6 -1 11 2 17 5 13 3 -3 4 -12 1 -19z m-7430 -20 c-3
-7 -5 -2 -5 12 0 14 2 19 5 13 2 -7 2 -19 0 -25z m659 -16 c-11 -10 -15 4 -8
28 l7 25 3 -23 c2 -13 1 -26 -2 -30z m1691 16 c-3 -7 -5 -2 -5 12 0 14 2 19 5
13 2 -7 2 -19 0 -25z m2447 17 c-4 -8 -8 -15 -10 -15 -2 0 -4 7 -4 15 0 8 4
15 10 15 5 0 7 -7 4 -15z m-4457 -17 c-3 -8 -6 -5 -6 6 -1 11 2 17 5 13 3 -3
4 -12 1 -19z m2723 -16 c0 -15 -5 -34 -10 -42 -7 -11 -10 -2 -10 33 0 30 4 46
10 42 6 -3 10 -18 10 -33z m-6578 -7 c-2 -19 -6 -35 -8 -35 -2 0 -4 16 -4 35
0 19 4 35 8 35 4 0 6 -16 4 -35z m10366 -30 c-12 -32 -24 -53 -26 -47 -4 12
38 115 45 109 2 -2 -7 -30 -19 -62z m-7553 -32 c-3 -18 -10 -33 -15 -33 -5 0
-11 -8 -13 -17 -3 -12 -5 -10 -6 7 -1 24 13 89 26 120 10 22 16 -36 8 -77z
m2463 6 c-10 -35 -13 -39 -19 -22 -4 11 -3 40 3 64 10 35 13 39 19 22 4 -11 3
-40 -3 -64z m3359 56 c-4 -8 -11 -15 -17 -15 -7 0 -7 6 0 21 13 23 26 19 17
-6z m-7956 -18 c-10 -9 -11 -8 -5 6 3 10 9 15 12 12 3 -3 0 -11 -7 -18z m3020
-30 c-13 -13 -15 11 -4 40 7 16 8 15 11 -6 2 -13 -1 -28 -7 -34z m943 -1 c-3
-14 -10 -26 -15 -26 -12 0 -11 4 3 35 14 31 21 26 12 -9z m862 -10 c-7 -21
-16 -35 -18 -30 -6 10 20 79 27 72 2 -2 -2 -21 -9 -42z m2131 22 c-3 -8 -6 -5
-6 6 -1 11 2 17 5 13 3 -3 4 -12 1 -19z m1843 0 c0 -13 -5 -30 -10 -38 -7 -11
-10 -5 -10 23 0 20 5 37 10 37 6 0 10 -10 10 -22z m2866 -45 c-14 -25 -15 -26
-16 -6 0 12 5 34 12 50 11 26 12 27 15 6 3 -12 -3 -34 -11 -50z m-4492 23 c-3
-15 -8 -25 -11 -23 -2 3 -1 17 3 31 3 15 8 25 11 23 2 -3 1 -17 -3 -31z m4576
27 c-1 -5 -8 -19 -16 -33 -8 -14 -13 -17 -10 -7 3 10 6 25 6 33 0 8 5 14 10
14 6 0 10 -3 10 -7z m-5133 -35 c-3 -7 -5 -2 -5 12 0 14 2 19 5 13 2 -7 2 -19
0 -25z m311 -43 l-1 -40 -12 29 c-6 15 -10 39 -7 53 7 37 21 8 20 -42z m4319
43 c-3 -8 -6 -5 -6 6 -1 11 2 17 5 13 3 -3 4 -12 1 -19z m-8512 -35 c-9 -37
-18 -20 -9 19 4 18 9 27 11 20 3 -7 2 -24 -2 -39z m-3458 -59 c-11 -36 -26
-45 -28 -16 -5 49 -3 59 11 85 l15 28 6 -31 c4 -17 2 -47 -4 -66z m2016 48
c-3 -12 -10 -22 -15 -22 -6 0 -7 8 -3 18 4 9 7 26 7 37 -1 17 1 17 8 4 5 -8 6
-25 3 -37z m533 21 c-10 -10 -19 5 -10 18 6 11 8 11 12 0 2 -7 1 -15 -2 -18z
m9141 5 c-3 -8 -6 -5 -6 6 -1 11 2 17 5 13 3 -3 4 -12 1 -19z m-11091 -34 c-4
-14 -9 -24 -12 -21 -3 2 -2 17 2 31 3 15 9 25 11 22 3 -3 2 -17 -1 -32z m450
10 c-4 -9 -9 -15 -11 -12 -3 3 -3 13 1 22 4 9 9 15 11 12 3 -3 3 -13 -1 -22z
m3565 -5 c-9 -22 -10 -22 -10 -3 -1 11 2 24 6 27 12 12 14 0 4 -24z m6456 -1
c-3 -7 -5 -2 -5 12 0 14 2 19 5 13 2 -7 2 -19 0 -25z m-8658 -30 l-1 -43 -8
35 c-8 32 -6 50 6 50 2 0 4 -19 3 -42z m3892 -41 c-18 -18 -25 1 -11 30 l14
28 4 -24 c2 -13 -1 -28 -7 -34z"/>
<path d="M751 1384 c0 -11 3 -14 6 -6 3 7 2 16 -1 19 -3 4 -6 -2 -5 -13z"/>
<path d="M6606 733 c10 -40 14 -41 14 -5 0 18 -5 32 -10 32 -6 0 -8 -11 -4
-27z"/>
<path d="M5722 610 c0 -14 2 -19 5 -12 2 6 2 18 0 25 -3 6 -5 1 -5 -13z"/>
<path d="M942 1950 c0 -19 2 -27 5 -17 2 9 2 25 0 35 -3 9 -5 1 -5 -18z"/>
<path d="M8322 1950 c0 -14 2 -19 5 -12 2 6 2 18 0 25 -3 6 -5 1 -5 -13z"/>
<path d="M911 1894 c0 -11 3 -14 6 -6 3 7 2 16 -1 19 -3 4 -6 -2 -5 -13z"/>
<path d="M8332 1890 c0 -14 2 -19 5 -12 2 6 2 18 0 25 -3 6 -5 1 -5 -13z"/>
<path d="M7496 1733 c-4 -21 -10 -46 -13 -57 -3 -11 -1 -16 5 -12 12 7 28 94
19 102 -2 3 -8 -12 -11 -33z"/>
<path d="M10151 1694 c1 -27 5 -60 10 -74 5 -16 6 1 2 45 -7 83 -13 99 -12 29z"/>
<path d="M1171 1700 c0 -8 4 -22 9 -30 12 -18 12 -2 0 25 -6 13 -9 15 -9 5z"/>
<path d="M10974 1600 c5 -39 24 -95 31 -88 2 2 -5 31 -16 63 -14 43 -18 50
-15 25z"/>
<path d="M203 1545 c0 -22 2 -30 4 -17 2 12 2 30 0 40 -3 9 -5 -1 -4 -23z"/>
<path d="M6282 1505 c0 -16 2 -22 5 -12 2 9 2 23 0 30 -3 6 -5 -1 -5 -18z"/>
<path d="M3676 1470 c10 -55 123 -354 124 -328 0 10 -98 291 -115 329 l-16 34
7 -35z"/>
<path d="M3611 1484 c-1 -15 30 -106 35 -101 2 2 -5 28 -15 58 -11 30 -20 49
-20 43z"/>
<path d="M321 1464 c0 -11 3 -14 6 -6 3 7 2 16 -1 19 -3 4 -6 -2 -5 -13z"/>
<path d="M2215 1460 c4 -14 14 -36 21 -50 l14 -25 -6 30 c-4 17 -13 39 -21 50
-14 19 -15 19 -8 -5z"/>
<path d="M6321 1470 c0 -8 6 -28 14 -45 17 -39 18 -21 0 25 -7 19 -14 28 -14
20z"/>
<path d="M11791 1445 c1 -19 18 -51 18 -35 0 8 -4 22 -9 30 -5 8 -9 11 -9 5z"/>
<path d="M11311 1430 c0 -8 4 -24 9 -35 5 -13 9 -14 9 -5 0 8 -4 24 -9 35 -5
13 -9 14 -9 5z"/>
<path d="M4151 1404 c0 -11 3 -14 6 -6 3 7 2 16 -1 19 -3 4 -6 -2 -5 -13z"/>
<path d="M6192 1405 c0 -11 3 -29 8 -40 11 -25 11 1 0 35 -6 20 -8 21 -8 5z"/>
<path d="M1651 1384 c0 -11 3 -14 6 -6 3 7 2 16 -1 19 -3 4 -6 -2 -5 -13z"/>
<path d="M2456 1387 c3 -10 9 -15 12 -12 3 3 0 11 -7 18 -10 9 -11 8 -5 -6z"/>
<path d="M275 1345 c9 -58 36 -147 42 -141 3 3 -2 38 -12 78 -20 84 -40 125
-30 63z"/>
<path d="M4303 1285 c0 -33 2 -45 4 -27 2 18 2 45 0 60 -2 15 -4 0 -4 -33z"/>
<path d="M4151 1314 c0 -11 3 -14 6 -6 3 7 2 16 -1 19 -3 4 -6 -2 -5 -13z"/>
<path d="M2610 1300 c6 -11 13 -20 16 -20 2 0 0 9 -6 20 -6 11 -13 20 -16 20
-2 0 0 -9 6 -20z"/>
<path d="M9042 1310 c0 -8 8 -37 19 -65 15 -41 18 -44 13 -15 -7 40 -32 103
-32 80z"/>
<path d="M6221 1300 c0 -8 4 -22 9 -30 12 -18 12 -2 0 25 -6 13 -9 15 -9 5z"/>
<path d="M6213 1235 c0 -22 2 -30 4 -17 2 12 2 30 0 40 -3 9 -5 -1 -4 -23z"/>
<path d="M4051 1204 c0 -11 3 -14 6 -6 3 7 2 16 -1 19 -3 4 -6 -2 -5 -13z"/>
</g>
</svg>
