<?xml version="1.0" standalone="no"?>
<!DOCTYPE svg PUBLIC "-//W3C//DTD SVG 20010904//EN"
 "http://www.w3.org/TR/2001/REC-SVG-20010904/DTD/svg10.dtd">
<svg version="1.0" xmlns="http://www.w3.org/2000/svg"
 width="853.000000pt" height="1280.000000pt" viewBox="0 0 853.000000 1280.000000"
 preserveAspectRatio="xMidYMid meet">
<metadata>
Created by potrace 1.15, written by Peter Selinger 2001-2017
</metadata>
<g transform="translate(0.000000,1280.000000) scale(0.100000,-0.100000)"
fill="#fafaf9" stroke="none">
<path d="M4657 10363 c-17 -16 -3 -49 41 -98 26 -28 63 -79 82 -111 19 -32 43
-70 55 -84 11 -14 35 -57 54 -95 18 -39 38 -79 44 -90 38 -70 39 -74 26 -109
-10 -28 -10 -43 0 -73 6 -21 18 -79 26 -128 7 -50 26 -128 40 -174 22 -68 25
-93 19 -130 -4 -25 -8 -119 -8 -208 -1 -154 -2 -164 -23 -185 -30 -29 -60 -18
-105 41 -18 25 -60 65 -93 91 -59 46 -108 118 -152 225 -10 22 -34 72 -54 112
-21 39 -47 102 -58 138 -12 37 -30 78 -41 92 -11 14 -20 32 -20 40 0 8 -21 67
-46 131 -32 81 -58 129 -84 157 -20 22 -47 56 -59 77 -20 33 -48 55 -58 44 -6
-6 116 -389 157 -496 49 -127 74 -237 75 -330 l0 -84 -60 -43 c-38 -27 -93
-53 -150 -72 -134 -43 -345 -149 -400 -201 -38 -36 -75 -105 -75 -139 0 -25 5
-32 28 -37 38 -9 45 -16 127 -124 41 -53 92 -110 114 -128 24 -19 50 -54 66
-89 15 -32 40 -85 56 -117 34 -69 37 -106 9 -131 -16 -14 -36 -17 -112 -16
-58 1 -112 -4 -143 -14 -28 -8 -67 -15 -88 -15 -37 0 -119 -22 -225 -61 -30
-10 -64 -19 -77 -19 -13 0 -37 -12 -54 -26 -61 -51 -96 -7 -39 50 30 30 49 37
156 62 98 23 123 32 128 48 12 38 -21 48 -138 43 -116 -5 -121 -3 -106 48 4
16 8 43 8 58 0 15 20 75 45 131 42 98 53 152 39 190 -16 43 -101 -8 -124 -74
-18 -51 -53 -68 -65 -31 -5 17 -12 20 -33 15 -53 -13 -58 -21 -86 -130 -15
-59 -33 -116 -41 -128 -8 -11 -15 -28 -15 -36 0 -22 -20 -40 -36 -33 -19 7
-17 47 5 91 10 20 28 78 41 127 15 63 38 118 76 182 75 132 85 153 168 392 37
105 40 148 8 136 -21 -8 -94 -61 -138 -100 -43 -38 -125 -175 -160 -268 -15
-40 -44 -112 -64 -162 -52 -124 -125 -355 -139 -441 -7 -39 -11 -93 -9 -120 3
-44 1 -49 -19 -52 -18 -3 -23 -10 -23 -31 0 -30 -22 -57 -39 -47 -5 3 -12 24
-16 46 -5 29 -14 43 -33 52 -24 12 -75 85 -104 151 -7 15 -16 27 -21 27 -4 0
-45 35 -90 78 -46 42 -103 90 -127 107 -25 16 -59 41 -76 56 -20 16 -59 33
-105 44 -105 25 -184 66 -291 152 -107 86 -209 150 -256 159 -28 6 -32 4 -32
-15 0 -42 39 -98 102 -147 62 -48 141 -129 174 -179 9 -13 67 -63 129 -109
111 -84 125 -99 125 -138 0 -11 44 -68 103 -131 134 -146 161 -180 245 -314
100 -158 105 -169 104 -235 0 -32 4 -60 9 -64 14 -8 93 -170 113 -231 9 -28
24 -57 32 -64 43 -36 104 -190 104 -264 0 -97 -74 -82 -95 18 -6 30 -13 38
-93 98 -59 45 -76 77 -87 159 -13 105 -197 383 -382 579 l-99 104 -89 -2 c-50
-1 -94 -6 -99 -11 -5 -5 3 -29 19 -57 16 -26 43 -76 61 -109 18 -34 63 -100
101 -147 37 -46 81 -111 97 -143 36 -73 247 -393 276 -419 23 -21 140 -207
140 -223 0 -6 16 -24 36 -39 41 -32 62 -70 111 -197 19 -50 59 -140 88 -201
65 -131 125 -292 125 -334 0 -66 -44 -110 -96 -97 -43 11 -119 70 -220 171
-50 49 -110 101 -133 115 -23 14 -63 39 -89 57 -26 17 -89 57 -140 88 -77 47
-102 68 -142 124 -48 65 -53 68 -152 111 -222 93 -424 147 -530 141 -27 -2
-22 -34 10 -66 30 -31 104 -67 173 -85 39 -10 102 -39 336 -153 59 -28 205
-140 406 -311 49 -41 122 -91 162 -111 61 -30 89 -53 172 -143 55 -59 126
-145 158 -192 31 -47 70 -98 85 -115 15 -16 53 -69 84 -117 30 -47 64 -89 75
-93 27 -8 34 -27 105 -300 19 -71 37 -137 41 -146 3 -9 -1 -21 -8 -28 -17 -13
-24 -8 -72 60 -16 23 -46 54 -66 68 -20 15 -65 59 -100 99 -35 40 -94 94 -131
120 -111 78 -290 228 -335 280 -46 54 -202 189 -261 226 -20 12 -70 33 -109
45 -53 16 -107 44 -200 107 -163 109 -232 144 -299 151 -90 10 -121 -26 -93
-106 10 -27 15 -31 49 -31 41 0 61 -13 156 -99 203 -186 268 -238 483 -386 63
-43 146 -107 185 -142 39 -36 102 -83 139 -106 124 -77 234 -156 351 -253 45
-37 62 -58 64 -79 5 -36 84 -133 166 -201 33 -28 71 -62 83 -75 12 -13 41 -40
65 -59 70 -57 178 -169 178 -186 0 -34 -32 -26 -74 17 -23 24 -71 69 -106 99
-35 30 -77 69 -94 85 -17 17 -56 43 -87 58 -37 18 -74 47 -108 87 -43 49 -60
61 -92 66 -28 5 -60 24 -113 68 -41 33 -100 74 -131 90 -53 27 -59 28 -97 15
-40 -13 -141 -6 -313 20 -33 5 -101 14 -152 20 -108 11 -149 29 -206 87 -40
41 -43 42 -92 38 -83 -8 -92 -12 -99 -39 -10 -38 17 -78 74 -115 62 -40 99
-75 151 -147 52 -70 117 -117 274 -198 133 -68 157 -85 309 -213 47 -40 119
-95 159 -121 40 -27 95 -73 121 -102 64 -72 167 -154 239 -190 32 -17 79 -45
105 -63 26 -18 80 -50 121 -71 40 -21 83 -52 94 -67 12 -16 46 -43 77 -60 30
-17 65 -40 77 -51 27 -24 30 -62 7 -71 -22 -8 -184 85 -211 122 -11 16 -54 46
-94 67 -41 21 -94 52 -119 70 -25 18 -72 47 -105 65 -118 62 -173 95 -211 126
-22 17 -64 39 -94 47 -30 9 -86 37 -124 62 -77 50 -101 54 -165 25 -57 -26
-91 -25 -149 5 -26 13 -70 29 -98 34 -28 6 -69 17 -92 26 -44 18 -83 17 -89
-2 -3 -7 22 -41 54 -77 32 -35 75 -84 95 -109 20 -24 72 -66 115 -92 43 -27
97 -65 120 -84 114 -99 250 -191 281 -191 13 0 52 -21 86 -46 33 -26 81 -56
106 -69 63 -31 214 -120 260 -153 21 -15 76 -54 122 -86 45 -33 122 -96 169
-140 56 -53 120 -100 184 -136 99 -56 116 -73 97 -92 -8 -8 -22 -7 -49 5 -21
9 -54 19 -73 23 -50 10 -122 59 -223 153 -102 95 -199 161 -236 161 -14 0 -65
10 -113 22 -84 22 -89 22 -117 5 -16 -9 -49 -17 -73 -18 -87 -1 -89 -12 -8
-52 58 -28 100 -61 185 -142 61 -58 122 -112 137 -120 14 -8 61 -40 105 -71
43 -31 152 -92 243 -135 339 -163 432 -217 445 -260 4 -12 37 -58 73 -102 80
-100 92 -121 92 -169 0 -60 -28 -49 -106 38 -62 69 -197 174 -277 216 -18 9
-48 32 -66 52 -19 20 -43 36 -53 36 -29 0 -58 -58 -58 -116 0 -44 6 -61 40
-111 55 -83 114 -148 158 -174 20 -12 48 -32 62 -45 34 -30 199 -141 274 -184
42 -24 65 -45 75 -68 10 -22 21 -32 37 -32 28 0 80 -43 101 -84 9 -17 24 -79
35 -139 31 -181 71 -249 130 -220 13 6 40 14 60 18 47 7 68 28 68 67 0 35 63
183 92 214 10 12 37 29 58 39 26 12 65 49 116 109 42 50 98 106 124 123 28 19
55 48 65 70 26 54 40 197 25 256 -16 62 -8 88 32 111 18 11 56 40 83 66 28 25
65 55 83 66 19 10 48 39 66 64 24 33 56 58 117 92 47 26 97 50 112 53 22 6 27
13 27 40 0 44 -19 94 -39 104 -29 15 -148 -50 -244 -133 -48 -42 -105 -85
-125 -95 -21 -11 -63 -45 -94 -75 -71 -71 -120 -75 -104 -10 8 31 96 117 156
152 25 14 81 57 125 94 44 38 105 80 135 95 93 45 136 81 212 180 40 52 89
116 109 142 48 61 136 107 254 131 50 10 125 32 166 48 87 35 147 48 249 57
153 12 162 14 158 38 -4 31 -77 68 -146 74 -32 3 -104 0 -160 -6 -115 -12
-142 -6 -142 33 0 19 20 38 88 87 148 106 253 199 269 238 8 20 27 50 42 66
33 36 91 127 91 143 0 6 -14 21 -31 33 l-32 22 -48 -27 c-27 -15 -71 -34 -99
-42 -37 -11 -69 -32 -118 -78 -37 -34 -91 -75 -119 -91 -29 -15 -60 -39 -68
-52 -22 -34 -86 -73 -142 -87 -40 -10 -54 -20 -83 -61 -19 -27 -80 -96 -134
-152 -83 -85 -114 -110 -186 -147 -47 -25 -110 -54 -140 -65 -30 -12 -89 -46
-130 -77 -41 -31 -97 -67 -125 -81 -61 -31 -119 -71 -164 -113 -42 -39 -75
-38 -79 3 -3 22 5 36 39 67 23 21 69 54 101 72 66 37 138 83 225 144 32 23 76
47 98 54 22 7 76 31 120 53 96 48 230 172 306 284 43 63 55 74 92 83 89 23
108 33 138 70 17 21 54 50 82 65 29 16 79 54 112 85 61 58 115 91 170 104 17
4 61 28 99 53 37 24 93 53 123 64 74 25 131 74 204 173 l60 81 -22 18 c-26 21
-89 22 -127 3 -15 -7 -54 -18 -87 -24 -63 -11 -263 -91 -421 -168 -72 -35
-102 -56 -137 -98 -59 -68 -135 -96 -260 -96 -81 0 -85 -1 -137 -40 -29 -21
-75 -47 -102 -56 -57 -19 -257 -181 -298 -242 -14 -21 -56 -79 -94 -130 -60
-80 -73 -93 -95 -90 -50 6 -38 43 54 167 47 63 85 117 85 121 0 3 63 59 139
124 76 64 141 126 144 136 3 11 18 25 34 32 67 30 152 110 224 213 44 62 109
197 109 224 0 24 -7 25 -79 11 -62 -12 -91 -1 -91 35 0 37 22 51 119 75 52 13
111 35 138 52 26 17 76 39 110 48 99 29 265 133 250 158 -4 5 -37 20 -73 32
-61 19 -69 20 -107 6 -23 -8 -58 -17 -78 -21 -21 -3 -53 -17 -73 -30 -20 -13
-69 -40 -110 -59 -42 -19 -86 -48 -102 -67 -56 -65 -76 -79 -110 -79 -28 0
-33 -4 -39 -29 -12 -54 -68 -78 -77 -33 -8 41 21 143 56 196 20 30 54 89 76
130 56 106 145 240 208 314 29 35 58 76 65 90 19 46 126 215 170 269 23 28 54
71 69 95 35 56 218 286 292 365 38 41 65 82 81 124 36 92 34 103 -22 124 -88
31 -98 31 -123 -7 -13 -18 -39 -49 -59 -69 -49 -48 -148 -162 -192 -220 -38
-51 -103 -111 -187 -174 -59 -44 -274 -321 -319 -410 -14 -27 -40 -70 -57 -95
-18 -25 -45 -77 -60 -116 -16 -42 -48 -98 -78 -135 -69 -87 -100 -134 -118
-183 -11 -30 -22 -42 -39 -44 -31 -5 -43 15 -35 58 9 51 36 98 108 187 73 89
121 195 111 244 -7 33 9 68 61 130 71 85 156 222 182 293 33 91 114 206 182
256 28 21 65 57 82 79 16 22 44 49 63 61 18 11 48 37 66 57 l32 37 -27 9 c-40
13 -113 -8 -171 -51 -27 -21 -68 -46 -89 -57 -52 -26 -146 -114 -204 -189 -25
-34 -75 -93 -111 -132 -36 -39 -78 -84 -92 -100 -83 -91 -200 -196 -230 -204
-93 -27 -119 -9 -140 97 -11 55 -11 69 5 120 10 32 22 91 27 131 5 45 22 105
44 160 60 145 82 202 116 312 18 58 47 133 65 167 18 34 40 86 49 115 27 84
75 189 107 236 41 59 121 230 153 327 25 73 70 169 160 345 40 76 145 329 145
348 0 16 -45 15 -78 -2 -86 -45 -321 -361 -431 -581 -72 -143 -112 -246 -193
-490 -44 -132 -95 -284 -115 -339 -19 -54 -43 -137 -53 -185 -10 -47 -23 -99
-29 -116 -6 -16 -18 -55 -27 -85 -24 -82 -55 -110 -84 -74 -11 12 -10 25 4 70
14 46 17 92 16 268 0 175 2 219 16 256 10 28 20 95 24 175 7 129 49 328 115
545 24 80 47 188 65 310 7 41 18 102 25 135 8 33 21 103 31 155 17 100 78 239
157 362 20 31 37 60 37 63 0 3 -13 -1 -30 -10 -36 -18 -35 -19 -54 1 -14 13
-14 19 -2 42 21 39 76 89 119 107 20 8 37 19 37 24 0 5 -17 15 -37 22 -21 6
-44 17 -52 23 -11 8 -16 7 -25 -8 -6 -10 -31 -43 -55 -73 -35 -44 -48 -54 -70
-51 -43 5 -39 39 12 101 28 34 53 80 67 122 12 37 42 110 67 163 25 52 58 136
74 186 32 99 93 213 171 318 59 80 107 124 164 149 45 21 178 49 234 50 19 0
44 4 55 8 18 7 17 10 -15 30 -19 11 -47 21 -63 21 -15 0 -53 9 -84 20 -76 27
-208 27 -278 1 -27 -11 -87 -33 -133 -49 -46 -17 -90 -36 -98 -43 -8 -6 -31
-44 -50 -83 -43 -86 -62 -108 -88 -104 -33 5 -30 37 13 128 28 59 58 104 101
149 40 41 69 84 86 125 65 153 136 257 235 344 27 24 49 49 49 56 0 14 -53 56
-72 56 -38 0 -142 -65 -219 -136 -97 -91 -100 -93 -123 -157 -36 -96 -96 -135
-130 -85 -16 22 -16 22 -35 3 -11 -11 -32 -49 -48 -85 -28 -63 -29 -66 -14
-113 14 -44 13 -51 -9 -120 -26 -83 -35 -97 -61 -97 -36 0 -49 38 -49 148 0
87 -4 112 -25 162 -14 33 -25 73 -25 91 0 17 -11 63 -24 102 -13 40 -34 106
-46 147 -25 84 -55 120 -170 200 -35 25 -86 62 -114 83 -50 37 -67 43 -79 30z
m1101 -880 c-2 -9 -23 -31 -48 -48 -25 -17 -47 -40 -48 -51 -2 -10 -12 -28
-22 -39 -44 -49 -172 -250 -218 -341 -27 -54 -62 -137 -76 -184 -15 -47 -50
-141 -77 -210 -28 -69 -60 -156 -70 -195 -11 -38 -35 -97 -53 -130 -18 -33
-41 -84 -50 -112 -22 -66 -46 -96 -68 -88 -26 10 -30 39 -14 96 9 29 16 63 16
76 0 13 11 46 25 73 14 27 31 73 39 102 18 69 83 263 96 286 16 29 57 135 69
177 11 42 114 229 193 350 25 39 60 96 78 128 24 44 37 57 55 57 13 0 47 16
76 35 58 38 103 46 97 18z m-933 -640 c3 -20 19 -62 35 -92 37 -74 50 -142 50
-259 0 -53 5 -117 11 -141 13 -56 5 -81 -27 -81 -41 0 -55 52 -64 225 -7 145
-9 154 -44 232 -40 88 -46 146 -19 162 27 14 50 -4 58 -46z m-242 24 c10 -6
20 -30 24 -52 4 -29 17 -51 48 -80 51 -48 80 -120 90 -225 4 -41 16 -91 26
-112 32 -63 40 -117 48 -343 6 -153 14 -241 26 -288 15 -56 16 -75 6 -107 -10
-34 -9 -45 6 -72 12 -23 18 -64 21 -133 4 -109 -7 -155 -36 -155 -32 0 -42 22
-42 88 0 56 -3 68 -29 97 -16 19 -31 50 -35 75 -4 23 -16 54 -26 68 -11 14
-20 40 -20 61 -1 62 -20 123 -58 186 -20 33 -67 119 -103 190 -158 313 -162
319 -276 432 -40 39 -73 76 -73 81 0 18 -68 42 -118 42 -55 0 -76 15 -70 51 5
33 108 85 279 141 197 64 280 79 312 55z m-1953 -778 c21 -27 46 -70 56 -96
10 -26 30 -70 45 -98 15 -27 32 -68 38 -91 6 -22 20 -49 31 -59 41 -37 9 -86
-40 -62 -27 14 -70 81 -70 111 0 10 -13 42 -29 70 -16 28 -34 67 -40 86 -6 19
-28 58 -49 85 -48 64 -55 81 -37 99 23 22 53 8 95 -45z m1659 -188 c71 -37
190 -206 197 -283 2 -25 20 -68 43 -107 50 -83 63 -126 90 -281 27 -152 30
-165 75 -265 51 -116 108 -322 101 -365 -3 -19 1 -64 9 -99 21 -89 4 -130 -54
-131 -39 0 -65 24 -95 87 -41 89 -93 167 -212 319 -127 163 -147 194 -163 252
-14 54 -62 108 -168 188 -56 42 -96 65 -124 69 -38 7 -43 5 -83 -35 -40 -39
-48 -43 -116 -50 -41 -5 -82 -12 -91 -15 -31 -12 -83 -95 -167 -262 -69 -138
-85 -181 -107 -280 -14 -65 -30 -147 -35 -182 -5 -35 -16 -76 -26 -90 -12 -17
-20 -56 -24 -116 -15 -201 -28 -243 -67 -218 -32 20 -53 281 -32 394 12 61 11
73 -4 114 -15 38 -17 69 -13 188 6 182 31 386 56 461 12 32 30 108 42 169 23
123 61 217 105 261 65 64 218 154 317 186 37 12 80 32 95 45 67 56 99 63 270
64 122 1 148 -2 181 -18z m-347 -782 c11 -6 31 -36 44 -66 14 -31 43 -80 64
-110 21 -30 65 -116 96 -191 58 -136 122 -235 226 -349 46 -51 65 -91 73 -157
7 -50 13 -58 91 -121 27 -21 51 -59 85 -130 26 -55 73 -134 104 -174 56 -73
110 -170 125 -222 11 -37 -13 -87 -45 -95 -38 -9 -70 18 -131 109 -65 99 -87
122 -154 165 -70 44 -114 85 -152 142 -43 62 -95 116 -148 152 -70 48 -119 99
-131 137 -16 50 -34 67 -91 88 -28 10 -77 41 -109 68 -112 96 -150 125 -165
125 -44 0 -68 73 -43 137 6 15 15 66 20 113 7 63 17 100 41 145 17 33 44 91
60 130 44 106 82 135 140 104z m-259 -846 c8 -10 24 -40 34 -68 14 -39 26 -54
53 -66 96 -46 96 -119 1 -293 -45 -82 -74 -177 -77 -255 -2 -71 -24 -91 -100
-91 -111 0 -131 40 -114 222 15 153 22 206 48 338 12 58 24 121 27 141 8 54
39 89 79 89 19 0 40 -8 49 -17z m737 -743 c32 -34 55 -93 46 -115 -7 -18 -50
-20 -63 -2 -6 6 -23 35 -39 64 -24 43 -26 54 -15 67 20 24 40 20 71 -14z m947
-66 c3 -9 -13 -42 -41 -82 -31 -45 -46 -78 -46 -99 0 -33 -20 -49 -39 -30 -28
28 -8 91 57 179 37 50 58 59 69 32z m-1754 -27 c35 -32 35 -32 42 -150 8 -126
2 -189 -20 -223 -8 -12 -17 -56 -21 -99 -5 -53 -11 -78 -21 -82 -20 -8 -27 6
-47 86 -10 36 -24 89 -31 116 -24 84 -20 339 5 370 20 24 56 17 93 -18z m557
-104 c14 -28 33 -60 43 -70 32 -37 10 -81 -36 -69 -32 8 -119 112 -119 142 0
36 21 55 56 52 26 -3 35 -11 56 -55z m477 -85 c12 -13 32 -45 46 -73 14 -27
41 -74 61 -103 40 -60 81 -182 72 -217 -7 -27 -33 -40 -51 -25 -8 6 -23 42
-34 80 -24 77 -54 135 -76 144 -7 2 -32 30 -55 61 -40 55 -58 109 -47 140 9
23 60 19 84 -7z m-513 -209 c68 -75 70 -97 17 -268 -22 -69 -45 -152 -52 -185
-24 -109 -82 -160 -137 -119 -45 34 -49 75 -19 215 15 68 33 176 41 241 16
133 29 157 81 157 25 0 41 -9 69 -41z m342 -293 c48 -48 42 -96 -13 -96 -16 0
-28 11 -43 40 -23 45 -25 61 -8 78 18 18 27 15 64 -22z m-1822 -166 c28 -26
63 -46 97 -56 76 -23 125 -50 178 -98 59 -54 134 -107 191 -136 60 -30 117
-76 149 -119 30 -41 229 -232 380 -366 102 -89 131 -126 131 -163 0 -56 -59
-24 -180 96 -122 122 -202 190 -234 198 -15 3 -69 47 -121 96 -52 50 -127 113
-167 140 -40 27 -84 60 -98 73 -14 12 -54 37 -89 56 -36 18 -87 54 -115 80
-28 25 -69 59 -91 75 -65 47 -145 118 -145 130 0 17 23 34 47 34 13 0 42 -17
67 -40z m1934 -88 c4 -30 -26 -64 -52 -60 -29 4 -31 29 -5 62 25 32 53 31 57
-2z m-618 -182 c20 -19 30 -36 26 -47 -3 -10 -8 -36 -11 -58 -3 -22 -14 -69
-25 -105 -10 -36 -22 -83 -27 -105 -6 -31 -13 -41 -31 -43 -13 -2 -30 2 -38 8
-19 16 -18 110 1 174 8 27 15 74 15 105 0 58 19 101 45 101 7 0 27 -13 45 -30z
m780 -309 c0 -9 6 -25 14 -36 18 -27 48 -102 81 -205 15 -47 37 -95 48 -108
26 -28 37 -143 17 -167 -7 -8 -9 -22 -6 -31 12 -30 -4 -84 -25 -84 -13 0 -19
7 -19 24 0 14 -5 37 -10 51 -6 15 -17 71 -26 124 -8 53 -39 166 -70 254 -55
163 -63 202 -41 210 16 6 37 -12 37 -32z m-510 -116 c8 -10 11 -31 7 -58 -14
-106 -29 -172 -48 -209 -26 -50 -49 -157 -59 -273 -18 -207 -58 -294 -97 -214
-9 19 -9 38 2 89 7 36 16 108 20 160 9 129 29 228 55 277 12 23 25 68 30 100
9 59 23 114 35 133 9 15 41 12 55 -5z m290 -200 c38 -19 48 -39 60 -117 26
-171 32 -208 40 -271 6 -37 10 -100 10 -140 0 -51 8 -96 27 -152 23 -72 39
-189 46 -350 2 -38 0 -40 -29 -43 -19 -2 -36 3 -47 15 -21 24 -43 116 -52 213
-3 41 -19 127 -35 190 -16 63 -34 146 -40 184 -6 38 -13 73 -16 77 -2 4 -11
81 -19 171 -9 90 -18 171 -21 181 -9 27 5 57 27 57 11 0 33 -7 49 -15z m-150
-1065 c12 -7 16 -36 18 -127 3 -112 5 -119 30 -146 25 -26 27 -36 30 -123 5
-117 -3 -160 -29 -175 -32 -17 -63 11 -82 73 -20 68 -34 456 -17 487 12 23 27
26 50 11z"/>
<path d="M5191 6601 c-10 -6 -10 -10 -1 -16 13 -8 24 -1 19 14 -3 6 -10 7 -18
2z"/>
<path d="M4310 1548 c0 -8 7 -23 15 -34 14 -19 14 -19 15 2 0 12 -7 27 -15 34
-12 10 -15 10 -15 -2z"/>
</g>
</svg>
