<?xml version='1.0' encoding='utf-8'?>
<svg xmlns="http://www.w3.org/2000/svg" width="387.49356mm" height="398.47214mm" viewBox="0 0 387.49356 398.47214" version="1.1" id="svg5" xml:space="preserve"><defs id="defs2" /><g id="layer1"><path style="fill:#ffffff;stroke-width:1" d="m 110.52399999999943 397.8250000000007 c -0.767,-0.354 -2.76,-1.937 -4.418,-3.519 -3.639,-3.486 -4.728,-4.384 -11.845,-9.744 -7.265,-5.476 -10.52,-8.227 -15.842,-13.413 -11.449,-11.136 -21.684,-24.865 -26.202,-35.14 -3.218,-7.298 -4.48,-13.435 -4.195,-20.342 0.21,-5.32 0.977,-9.651 3.341,-18.868 6.486,-25.373 13.565,-39.945 25.41,-52.351 6.102,-6.389 10.062,-9.602 28.194,-22.915 7.401,-5.43 9.555,-7.403 10.099,-9.255 0.322,-1.092 0.31,-1.526 0,-2.282 -1.448,-3.005 -6.621,-2.297 -15.52,2.119 -11.25,5.593 -23.404,14.285 -30.756,22.017 -13.949,14.654 -24.061,35.494 -26.4,54.403 -0.557,4.542 -0.247,12.14 0.631,15.416 0.83,3.118 2.253,6.357 2.959,6.771 1.064,0.619 -0.545,0.349 -2.674,-0.449 -5.074,-1.912 -9.134,-4.58 -13.305,-8.758 -8.131,-8.136 -14.109,-19.328 -20.223,-37.9 -4.085,-12.385 -5.409,-19.25 -4.716,-24.437 0.891,-6.742 4.258,-13.269 11.56,-22.441 12.08,-15.154 32.811,-31.802 55.089,-44.219 2.698,-1.505 9.852,-5.14 15.879,-8.078 15.496,-7.539 14.58,-7.053 14.58,-7.757 0,-0.34 -0.26,-0.783 -0.582,-0.983 -0.643,-0.408 -1.955,0.02 -12.352,4.056 -21.189,8.221 -33.306,14.774 -53.183,28.767 -10.99,7.743 -21.411,17.971 -26.907,26.414 -1.93,2.979 -5.198,9.349 -6.027,11.788 l -0.569,1.638 -0.421,-2.452 c -0.644,-3.821 -0.248,-12.612 0.792,-17.546 1.993,-9.509 4.951,-15.56 11.263,-23.092 10.656,-12.703 26.585,-23.083 46.969,-30.616 19.803,-7.311 27.91,-10.867 36.512,-15.997 9.059,-5.402 12.178,-10.203 8.193,-12.629 -1.609,-0.988 -3.453,-0.847 -14.753,1.134 -26.164,4.583 -36.697,6.71 -52.131,10.536 -22.699,5.62 -26.944,7.245 -31.969,12.224 -3.577,3.546 -4.926,6.1 -5.186,9.799 l -0.185,2.49 -0.817,-2.455 c -0.743,-2.223 -0.817,-2.969 -0.817,-7.859 0,-5.955 0.421,-8.584 2.178,-13.865 3.614,-10.765 10.83,-19.387 20.595,-24.581 3.317,-1.766 9.394,-3.842 13.899,-4.75 12.204,-2.458 31.833,-2.874 55.51,-1.176 9.678,0.693 15.842,0.646 17.562,-0.136 3.354,-1.524 3.194,-4.706 -0.359,-6.898 -4.963,-3.068 -22.872,-6.444 -39.952,-7.534 -15.025,-0.956 -31.065,0.463 -41.028,3.634 -8.045,2.561 -15.818,8.186 -18.256,13.224 -0.668,1.376 -0.792,1.501 -0.805,0.78 0,-1.961 1.708,-7.456 3.553,-11.276 4.814,-9.966 12.376,-18.787 27.129,-31.676 15.088,-13.176 22.068,-17.935 30.311,-20.659 5.037,-1.667 7.673,-2.007 15.298,-1.984 6.423,0.02 7.401,0.1 11.139,0.922 9.356,2.06 17.191,5.715 25.421,11.863 3.689,2.758 8.478,7.492 15.521,15.355 8.045,8.972 9.468,10.258 20.285,18.244 2.079,1.529 4.765,3.7 5.978,4.824 5.05,4.662 9.047,11.097 10.285,16.527 0.557,2.487 0.644,2.629 2.067,3.544 1.324,0.849 1.72,0.94 3.614,0.838 3.936,-0.212 7.636,-2.826 9.567,-6.742 0.99,-2.011 1.077,-2.426 1.065,-5.3 0,-2.799 -0.124,-3.383 -1.127,-5.72 -1.534,-3.598 -4.121,-7.306 -9.381,-13.444 -8.751,-10.186 -12.266,-17.129 -13.231,-26.1 -0.755,-7.04 1.04,-15.446 4.679,-21.873 3.762,-6.664 11.559,-15.993 19.369,-23.182 9.208,-8.481 17.154,-12.026 29.506,-13.162 5.099,-0.471 17.018,-0.405 28.479,0.157 16.35,0.801 22.526,0.616 33.17,-0.994 6.423,-0.969 7.611,-0.991 10.21,-0.182 2.29,0.716 4.06,1.936 4.765,3.306 2.996,5.789 -7.525,23.194 -25.52,42.243 -1.275,1.351 -6.845,7.135 -12.39,12.853 -12.921,13.345 -14.369,15.28 -14.406,19.227 0,2.229 0.978,4.286 2.562,5.268 3.391,2.093 11.114,-1.18 20.446,-8.658 3.033,-2.437 10.83,-9.183 16.696,-14.464 9.32,-8.376 19.098,-16.855 21.858,-18.938 3.403,-2.577 7.933,-4.902 10.891,-5.589 1.176,-0.272 3.305,-0.495 4.753,-0.495 3.49,0 6.263,0.69 9.815,2.445 5.223,2.577 11.077,7.964 18.156,16.702 8.268,10.221 11.647,16.34 12.266,22.268 l 0.21,1.964 -0.928,-1.97 c -1.176,-2.468 -3.466,-4.56 -5.743,-5.236 -3.503,-1.039 -8.763,-0.504 -17.736,1.806 -13.763,3.546 -24.753,6.987 -42.563,13.333 -14.84,5.286 -24.085,8.405 -33.405,11.272 -8.75,2.691 -10.656,3.506 -11.857,5.084 -1.696,2.228 -0.953,5.443 1.671,7.246 4.245,2.903 17.76,0.894 43.591,-6.476 27.971,-7.983 43.813,-10.936 53.12,-9.899 9.382,1.046 14.06,4.089 23.529,15.294 5.309,6.277 10.149,13.284 12.426,18.007 2.141,4.402 4.208,12.005 2.252,8.251 -1.955,-3.755 -8.044,-8.848 -13.168,-11.02 -6.201,-2.631 -9.852,-3.199 -23.541,-3.663 -13.057,-0.442 -23.553,-0.112 -37.6,1.173 -10.979,1.006 -19.184,1.498 -25.026,1.498 -5.161,0 -7.451,0.5 -8.515,1.852 -0.854,1.09 -0.854,2.087 0,3.185 1.534,1.96 1.819,2.004 12.735,2 5.496,0 15.446,-0.13 22.105,-0.286 9.963,-0.233 13.577,-0.188 20.31,0.251 4.493,0.294 12.451,0.754 17.674,1.023 10.347,0.532 13.293,0.839 17.526,1.828 12.364,2.89 18.689,13.641 16.56,28.121 -1.696,11.472 -6.349,24.009 -11.152,30.059 -2.574,3.25 -7.908,7.43 -6.25,4.905 0.272,-0.407 0.73,-1.697 1.027,-2.865 0.817,-3.164 0.508,-7.489 -0.829,-11.468 -4.864,-14.539 -18.045,-25.011 -36.028,-28.61 -7.86,-1.572 -10.941,-1.804 -39.631,-2.981 -14.134,-0.58 -19.27,-0.911 -28.157,-1.809 -3.502,-0.355 -7.5,-0.645 -8.886,-0.645 -2.24,0 -2.649,0.1 -3.54,0.848 -1.287,1.084 -1.361,2.606 -0.198,3.992 1.015,1.208 4.369,2.972 8.193,4.315 4.357,1.529 18.541,4.946 30.62,7.38 34.767,7.002 44.68,10.523 56.847,20.178 7.104,5.64 11.225,11.416 13.181,18.465 0.829,3.015 0.718,10.462 -0.223,14.899 -2.921,13.598 -10.161,25.497 -17.142,28.128 l -0.891,0.333 0.978,-1.541 c 1.163,-1.834 2.104,-4.729 2.413,-7.435 0.718,-6.279 -2.933,-14.87 -9.059,-21.313 -9.481,-9.991 -23.528,-16.83 -57.069,-27.795 -12.154,-3.971 -19.952,-6.719 -30.67,-10.794 -5.111,-1.945 -6.894,-2.218 -8.923,-1.369 -1.498,0.626 -2.154,1.692 -2.154,3.481 0,2.389 1.337,4.643 4.889,8.203 4.554,4.565 8.428,7.436 27.191,20.135 13.293,8.994 22.761,16.619 30.15,24.279 14.332,14.867 19.295,26.833 17.154,41.305 -0.581,3.902 -1.955,8.525 -3.626,12.148 -3.354,7.318 -10.842,15.66 -17.142,19.124 -2.785,1.528 -6.3,2.837 -7.612,2.837 -1.052,0 -1.052,0 -0.321,-0.512 4.096,-2.869 3.292,-18.005 -1.622,-30.761 -2.599,-6.714 -8.119,-16.059 -12.822,-21.704 -3.305,-3.956 -8.837,-9.102 -12.092,-11.239 -7.055,-4.631 -14.555,-7.174 -21.152,-7.169 -3.75,0 -5.062,0.408 -6.745,2.09 -1.782,1.776 -2.476,3.794 -2.476,7.149 0,5.361 1.362,9.578 6.944,21.541 7.154,15.323 9.282,20.99 11.263,30.103 3.539,16.268 -0.124,26.79 -14.097,40.815 -7.006,7.009 -14.221,12.226 -19.84,14.342 l -2.141,0.805 1.039,-2.067 c 2.401,-4.763 2.698,-12.459 0.817,-21.288 -2.983,-14.044 -9.196,-27.535 -20.434,-44.35 -9.617,-14.39 -18.095,-25.147 -21.3,-27.027 -3.713,-2.175 -7.129,0.148 -7.129,4.847 0,3.56 1.287,6.54 8.317,19.21 8.552,15.398 12.302,24.387 18.775,45.002 5.756,18.281 6.461,22.659 4.58,28.188 -2.018,5.937 -7.253,11.545 -14.939,16.028 -2.116,1.235 -6.535,3.144 -8.268,3.575 -0.903,0.223 -0.903,0.204 0.483,-1.502 4.381,-5.395 6.213,-12.376 6.263,-23.833 0,-8.57 -1.028,-15.489 -3.924,-25.87 -4.183,-14.941 -12.649,-34.068 -19.84,-44.802 -3.391,-5.064 -5.223,-6.599 -7.896,-6.608 -1.794,0 -3.639,2.21 -4.158,4.981 -0.879,4.81 1.435,10.814 11.163,28.917 9.196,17.127 13.738,28.181 16.684,40.599 1.374,5.808 1.758,8.455 1.77,12.28 0,9.313 -3.639,14.396 -13.936,19.296 -4.765,2.264 -9.852,4.061 -21.041,7.432 -13.007,3.916 -16.584,5.409 -22.575,9.415 -2.945,1.973 -4.814,2.831 -6.101,2.816 -0.273,0 -1.139,-0.293 -1.919,-0.647 z m 8.899,-33.237 c 0.743,-4.277 1.139,-8.176 1.708,-17.027 0.693,-11.016 1.559,-18.221 3.292,-27.344 1.287,-6.858 3.614,-17.33 5.087,-22.922 0.73,-2.792 1.609,-6.181 1.955,-7.532 0.755,-3.009 1.139,-3.761 2.092,-4.197 1.498,-0.685 2.55,0.74 4.567,6.239 0.607,1.668 2.537,6.718 4.282,11.22 4.704,12.156 6.808,18.621 9.382,28.98 1.287,5.134 2.376,9.396 2.451,9.47 0.928,1.077 -0.582,-8.948 -2.513,-16.74 -1.733,-6.966 -3.156,-11.016 -11.424,-32.47 -4.208,-10.901 -4.604,-12.556 -4.034,-16.992 0.829,-6.534 5.185,-22.016 6.745,-23.976 0.854,-1.063 2.512,-1.287 3.342,-0.451 0.272,0.269 1.93,3.277 3.7,6.685 1.758,3.409 5.05,9.293 7.303,13.075 4.356,7.287 7.327,12.505 11.374,19.976 1.361,2.521 2.735,4.929 3.032,5.35 0.644,0.914 1.708,0.832 1.844,-0.141 0.161,-1.143 -3.54,-8.053 -10.458,-19.498 -8.144,-13.48 -11.015,-18.627 -13.243,-23.756 -3.862,-8.846 -3.775,-11.275 1.027,-26.527 2.352,-7.459 2.97,-8.749 4.282,-8.88 0.545,-0.05 1.164,0.1 1.362,0.343 0.198,0.242 0.668,2.386 1.027,4.762 1.473,9.612 3.49,15.003 8.243,22.01 2.104,3.089 3.8,5.161 10.768,13.114 2.611,2.982 6.51,7.598 8.651,10.262 2.141,2.663 4.233,4.996 4.641,5.184 1.102,0.501 1.882,0.112 1.585,-0.806 -0.458,-1.459 -5.137,-7.25 -12.748,-15.771 -10.224,-11.452 -12.687,-14.688 -15.199,-19.964 -2.55,-5.328 -4.79,-15.346 -5.149,-22.965 -0.148,-3.259 -0.124,-3.962 0.805,-7.368 1.188,-4.564 1.72,-5.85 3.032,-7.348 1.275,-1.44 2.847,-1.916 4.852,-1.465 2.921,0.653 4.406,2.273 16.077,17.491 9.567,12.473 14.072,19.805 21.226,34.548 1.881,3.871 6.04,12.419 9.245,18.993 7.34,15.086 10.929,23.092 13.367,29.8 1.486,4.105 3.614,11.646 4.332,15.3 l 0.619,3.202 -0.173,-2.741 c -0.644,-10.454 -5.236,-26.811 -11.956,-42.657 -2.735,-6.46 -10.359,-21.903 -14.035,-28.447 -5.842,-10.4 -10.471,-16.93 -25.546,-36.021 -10.273,-13.01 -11.287,-14.526 -12.315,-18.381 -0.977,-3.692 -0.421,-7.663 2.488,-17.411 1.795,-6.055 3.515,-10.577 4.641,-12.223 1.102,-1.612 2.958,-2.536 4.58,-2.279 2.648,0.423 4.096,1.499 11.064,8.191 13.726,13.179 13.206,12.56 14.791,17.706 0.557,1.802 1.423,4.086 1.918,5.077 1.312,2.602 5.495,8.457 9.654,13.486 4.183,5.07 25.125,26.059 26.288,26.352 1.002,0.251 1.51,-0.271 1.213,-1.246 -0.124,-0.423 -5.607,-6.127 -12.166,-12.674 -11.647,-11.606 -16.214,-16.635 -20.286,-22.316 -4.381,-6.123 -4.802,-7.86 -1.881,-7.86 2.265,0 5.965,3.08 27.946,23.219 24.605,22.557 35.67,33.92 44.804,46.04 6.337,8.404 10.632,15.502 12.352,20.419 1.188,3.403 0.941,1.465 -0.297,-2.307 -5.545,-16.885 -21.263,-38.334 -40.459,-55.194 -2.958,-2.601 -10.186,-8.735 -16.053,-13.631 -5.854,-4.897 -12.859,-10.752 -15.57,-13.013 -2.698,-2.263 -7.191,-5.935 -9.988,-8.163 -11.473,-9.162 -22.439,-19.28 -26.907,-24.835 -4.27,-5.319 -6.089,-11.506 -4.728,-16.161 0.941,-3.263 3.144,-4.031 6.746,-2.359 3.737,1.732 14.555,8.225 16.25,9.751 1.56,1.4 1.844,1.87 2.438,3.93 1.634,5.735 2.773,8.924 4.246,11.908 4.579,9.301 11.894,17.478 30.941,34.641 22.588,20.347 32.106,30.347 41.858,43.994 11.882,16.638 15.706,27.887 15.224,44.748 -0.124,3.505 -0.124,4.862 0.136,4.095 0.507,-1.932 0.693,-13.678 0.272,-16.897 -1.473,-11.141 -5.978,-21.92 -15.013,-35.825 -8.503,-13.093 -17.872,-23.002 -35.929,-37.984 -3.788,-3.137 -8.652,-7.247 -10.805,-9.13 -4.976,-4.332 -15.063,-14.465 -17.823,-17.893 -3.119,-3.874 -6.349,-8.988 -7.871,-12.445 -1.721,-3.935 -2.921,-8.463 -2.451,-9.224 0.829,-1.315 1.25,-1.278 5.929,0.523 12.735,4.9 29.072,10.546 37.513,12.971 8.095,2.327 20.212,5.345 35.46,8.834 18.416,4.215 25.917,6.511 33.751,10.332 10.124,4.939 19.568,13.011 26.424,22.588 0.57,0.787 0.57,0.778 0,-0.337 -2.129,-4.495 -10.037,-13.693 -15.693,-18.228 -4.567,-3.666 -10.682,-7.132 -16.536,-9.38 -6.745,-2.592 -11.696,-3.898 -28.701,-7.571 -29.692,-6.413 -45.584,-11.171 -68.369,-20.476 -8.738,-3.567 -12.55,-5.422 -20.397,-9.93 -9.914,-5.697 -12.859,-7.833 -12.859,-9.333 0,-0.526 2.017,-0.466 8.341,0.251 3.689,0.418 17.402,0.401 24.939,-0.02 7.365,-0.421 10.595,-0.156 16.363,1.342 8.032,2.085 14.146,2.517 51.053,3.608 23.64,0.699 31.87,1.026 37.44,1.486 15.211,1.261 26.56,4.009 36.561,8.859 3.292,1.598 6.337,3.524 4.592,2.91 -13.813,-4.859 -19.618,-6.234 -32.427,-7.674 -9.691,-1.089 -17.637,-1.316 -46.339,-1.324 -15.038,0 -31.003,-0.159 -35.484,-0.344 -4.468,-0.184 -8.416,-0.246 -8.75,-0.137 -0.805,0.253 -0.805,1.343 0,1.771 1.733,0.927 23.503,1.689 66.178,2.316 21.944,0.323 30.818,0.8 39.333,2.117 11.61,1.796 21.177,5.161 27.241,9.587 1.374,1.005 1.77,1.195 1.213,0.588 -1.881,-2.056 -9.257,-6.917 -9.889,-6.524 -0.21,0.128 -0.272,0.08 -0.148,-0.132 0.483,-0.779 -8.936,-6.317 -14.877,-8.742 -2.859,-1.166 -9.109,-2.967 -12.996,-3.74 -8.837,-1.76 -15.792,-2.256 -39.37,-2.808 -34.754,-0.815 -46.252,-1.342 -54.197,-2.488 -9.456,-1.363 -10.694,-2.36 -5.248,-4.234 2.327,-0.8 13.552,-3.75 25.384,-6.669 4.778,-1.178 10.743,-2.725 13.268,-3.438 12.686,-3.593 16.882,-4.717 22.588,-6.065 13.379,-3.157 20.087,-4.097 31.078,-4.362 4.294,-0.1 7.611,-0.297 7.364,-0.432 -1.003,-0.542 -7.637,-1.127 -12.402,-1.094 -10.384,0.07 -20.904,2.079 -42.576,8.137 -4.232,1.184 -12.191,3.26 -17.686,4.614 -5.483,1.356 -15.582,3.851 -22.426,5.546 -17.613,4.363 -21.573,4.899 -36.19,4.904 -9.344,0 -11.572,-0.183 -16.374,-1.36 -2.488,-0.612 -4.778,-1.691 -4.369,-2.06 0.619,-0.56 3.539,-1.404 10.272,-2.97 10.78,-2.505 16.028,-4.402 25.991,-9.387 5.83,-2.914 10.186,-5.382 16.251,-9.204 10.087,-6.361 13.058,-8.369 26.783,-18.16 7.34,-5.237 18.305,-12.572 22.996,-15.39 5.075,-3.048 12.067,-6.592 16.981,-8.597 4.567,-1.867 16.436,-6.047 19.456,-6.855 1.226,-0.327 2.166,-0.66 2.08,-0.741 -0.26,-0.264 -8.454,1.245 -13.132,2.419 -7.674,1.925 -16.325,5.43 -23.38,9.462 -5.606,3.216 -10.074,6.202 -19.382,12.956 -22.624,16.428 -34.704,24.256 -47.143,30.547 -10.111,5.119 -17.946,8.025 -26.077,9.674 -4.765,0.964 -8.961,1.288 -8.961,0.692 0,-0.165 2.03,-1.812 4.505,-3.661 5.359,-4.005 12.971,-11.459 16.337,-16.016 4.53,-6.144 6.139,-8.708 14.679,-23.414 9.369,-16.139 18.243,-29.023 27.056,-39.296 3.96,-4.614 12.562,-13.28 19.357,-19.489 2.648,-2.418 4.752,-4.456 4.678,-4.528 -0.185,-0.186 -6.572,4.476 -10.631,7.766 -4.407,3.56 -11.35,10.525 -15.719,15.759 -6.46,7.745 -11.238,14.449 -20.595,28.858 -3.973,6.133 -4.765,6.568 -4.233,2.326 0.681,-5.399 3.095,-13.456 8.701,-29.055 4.778,-13.256 6.696,-19.663 7.129,-23.775 0.347,-3.182 -0.223,-2.08 -1.794,3.473 -1.288,4.531 -2.971,9.353 -8.652,24.77 -4.431,12.024 -6.596,19.679 -8.688,30.696 -0.755,3.954 -2.03,6.826 -5.904,13.261 -6.881,11.434 -14.864,20.447 -22.624,25.564 -2.352,1.548 -9.221,5.091 -9.902,5.101 -0.26,0 -0.804,1.629 -1.473,4.338 -1.213,5.015 -6.052,20.448 -11.04,35.28 -1.906,5.672 -4.369,13.188 -5.458,16.7 -5.111,16.495 -10.755,33.245 -14.134,41.916 -0.804,2.071 -2.5,7.082 -3.763,11.134 -4.455,14.264 -5.297,16.916 -7.265,22.595 -1.076,3.152 -3.143,10.459 -4.579,16.239 -1.436,5.779 -2.909,11.203 -3.28,12.05 -1.077,2.533 -2.525,4.383 -7.203,9.217 -6.523,6.754 -11.684,14.365 -16.857,24.876 -5.421,10.973 -8.243,19.995 -9.852,31.437 -0.52,3.724 -1.003,11.227 -0.706,10.952 0.124,-0.1 0.644,-2.76 1.176,-5.911 2.736,-16.005 5.075,-23.548 11.003,-35.495 5.891,-11.88 14.072,-23.641 17.055,-24.533 1.956,-0.583 1.857,1.746 -0.482,11.473 -5.496,22.788 -7.092,34.271 -8.058,57.76 -0.123,2.43 -0.26,5.82 -0.346,7.531 -0.211,3.74 0.198,3.385 0.94,-0.818 z m -45.051,-25.296 c 0.346,-0.495 1.869,-3.111 3.379,-5.812 3.131,-5.617 7.599,-12.343 13.354,-20.14 2.191,-2.972 6.015,-8.203 8.478,-11.625 2.463,-3.421 6.683,-9.242 9.369,-12.935 2.686,-3.692 5.335,-7.67 5.892,-8.841 2.153,-4.559 0.668,-8.475 -2.847,-7.505 -3.948,1.09 -16.61,14.104 -25.174,25.87 -8.528,11.717 -13.776,23.449 -15.001,33.513 -0.52,4.364 0.173,8.376 1.473,8.376 0.247,0 0.743,-0.405 1.077,-0.901 z m 161.912,-17.947 c 0.643,-3.709 0.73,-5.364 0.73,-13.244 0,-7.53 -0.124,-9.729 -0.705,-13.426 -2.909,-18.534 -12.154,-39.697 -25.558,-58.449 -7.785,-10.895 -11.944,-15.887 -13.231,-15.887 -1.436,0 -0.916,1.085 2.933,6.157 4.221,5.549 10.731,15.231 14.493,21.548 6.362,10.695 13.788,27.485 16.833,38.046 3.23,11.219 4.653,25.375 3.688,36.737 -0.149,1.705 -0.186,3.024 -0.124,2.929 0.124,-0.1 0.495,-2.079 0.904,-4.411 z m -170.044,-19.723 c 0.829,-0.863 2.674,-3.625 4.097,-6.14 5.47,-9.617 11.993,-19.048 18.429,-26.682 5.136,-6.076 14.27,-14.526 29.209,-27.013 7.933,-6.632 12.476,-11.019 16.139,-15.596 2.76,-3.437 3.948,-4.565 5.867,-5.54 2.735,-1.397 3.824,-0.556 3.255,2.516 -0.532,2.884 -3.156,10.402 -4.802,13.766 -2.191,4.474 -3.664,5.786 -15.261,13.547 -11.263,7.544 -15.199,10.364 -21.709,15.575 -6.497,5.206 -9.171,7.728 -8.911,8.416 0.446,1.166 1.634,0.503 6.065,-3.411 6.497,-5.74 13.985,-11.27 26.622,-19.649 6.523,-4.328 7.488,-4.874 8.565,-4.874 1.151,0 1.559,0.615 1.559,2.39 0,2.219 -0.582,2.671 -8.565,6.744 -13.515,6.896 -21.188,11.973 -29.555,19.55 -4.01,3.631 -10.174,10.227 -10.78,11.536 -0.273,0.593 -0.248,0.826 0.124,1.06 0.754,0.474 0.854,0.41 2.661,-1.574 4.381,-4.811 13.503,-13.597 16.312,-15.709 5.372,-4.045 11.671,-7.817 20.397,-12.237 8.738,-4.423 10.334,-5.475 11.337,-7.472 0.73,-1.451 2.958,-8.233 5.557,-16.895 1.894,-6.322 3.379,-10.738 12.302,-36.513 2.278,-6.574 5.595,-16.669 7.377,-22.431 1.782,-5.764 4.728,-15.048 6.547,-20.631 4.778,-14.596 11.065,-35.526 10.731,-35.677 0,-0.02 -0.965,-0.275 -2.042,-0.567 -1.077,-0.291 -2.278,-0.631 -2.661,-0.754 -0.557,-0.182 -0.73,-0.06 -0.904,0.633 -0.346,1.365 -1.497,1.692 -3.75,1.064 -5.495,-1.526 -18.59,-8.748 -31.486,-17.359 -7.859,-5.247 -10.991,-7.486 -21.622,-15.449 -10.174,-7.629 -12.959,-9.606 -17.204,-12.213 -6.523,-4.005 -14.394,-7.147 -21.436,-8.561 -3.565,-0.718 -15.756,-2.38 -15.966,-2.177 0,0.06 1.633,0.512 3.75,0.998 11.238,2.566 18.354,4.876 24.506,7.953 6.98,3.495 8.849,4.715 26.684,17.442 22.971,16.389 32.687,22.736 43.058,28.129 6.907,3.593 6.783,4.093 -0.953,3.81 -5.792,-0.21 -14.282,-1.13 -30.483,-3.296 -34.965,-4.677 -37.428,-4.911 -52.069,-4.906 -14.048,0 -18.008,0.358 -25.533,2.286 -7.377,1.884 -12.996,4.503 -20.632,9.605 -4.951,3.302 -13.751,9.873 -15.892,11.852 l -1.473,1.366 1.646,-1.168 c 8.107,-5.793 19.32,-12.661 24.457,-14.979 10.619,-4.801 19.988,-6.679 35.137,-7.052 7.921,-0.194 10,0.04 8.986,1.019 -0.483,0.466 -6.746,1.617 -15.211,2.796 -14.456,2.013 -21.338,3.618 -29.519,6.886 -3.886,1.553 -9.282,4.113 -9.282,4.402 0,0.09 0.99,-0.237 2.215,-0.706 8.589,-3.319 21.065,-6.231 35.521,-8.293 16.362,-2.336 18.454,-2.788 18.776,-4.052 0.123,-0.422 0.136,-1.044 0.123,-1.384 -0.123,-0.557 0.124,-0.607 1.857,-0.517 5.817,0.296 15.483,1.467 35.694,4.323 23.17,3.276 32.563,4.327 42.7,4.781 4.282,0.191 5.136,0.317 5.644,0.832 0.334,0.334 0.606,0.811 0.606,1.061 0,0.746 -4.072,4.323 -6.411,5.631 -5.037,2.818 -8.985,3.929 -23.169,6.523 -20.731,3.787 -37.291,8.052 -57.849,14.899 -13.565,4.516 -24.741,10.397 -36.326,19.097 -6.93,5.207 -15.941,13.322 -14.79,13.322 0.235,0 3.552,-2.331 7.352,-5.181 11.634,-8.704 17.785,-12.61 27.674,-17.576 9.184,-4.604 17.934,-7.869 34.16,-12.748 15.446,-4.648 21.201,-5.989 39.383,-9.187 5.656,-0.998 12.735,-2.328 15.731,-2.957 2.982,-0.629 5.854,-1.143 6.374,-1.143 0.544,0 1.373,0.362 1.955,0.847 0.928,0.78 1.003,1.013 1.003,2.866 0,2.429 -0.421,4.256 -2.599,11.456 -2.822,9.275 -4.877,13.312 -8.689,17.087 -2.364,2.338 -4.517,3.562 -7.253,4.124 -1.72,0.352 -2.413,0.334 -4.814,-0.136 -5.124,-1.009 -6.312,-0.726 -13.02,3.107 -4.803,2.749 -13.516,7.467 -24.853,13.454 -4.951,2.615 -11.51,6.189 -14.58,7.943 -30.31,17.354 -51.759,40.035 -61.104,64.609 -1.324,3.488 -3.354,10.903 -3.7,13.49 -0.235,1.79 0.272,1.09 0.594,-0.82 0.569,-3.386 3.416,-11.076 6.027,-16.321 9.32,-18.693 26.784,-37.446 47.96,-51.508 6.795,-4.51 14.728,-9.108 29.543,-17.143 5.409,-2.928 13.305,-7.294 17.563,-9.702 8.577,-4.862 9.728,-5.367 12.302,-5.367 1.708,0 3.701,0.693 3.701,1.29 0,0.47 -1.844,1.891 -4.022,3.09 -1.114,0.614 -4.679,2.585 -7.922,4.377 -3.242,1.792 -10.173,5.511 -15.396,8.264 -5.223,2.752 -11.857,6.257 -14.741,7.788 -27.427,14.57 -45.125,29.248 -57.75,47.888 -2.314,3.424 -5.024,7.825 -6.658,10.808 l -0.631,1.146 0.767,-0.955 c 0.408,-0.524 2.364,-3.104 4.332,-5.731 14.295,-19.091 25.211,-29.037 44.902,-40.882 5.137,-3.091 32.18,-16.779 33.145,-16.781 0.31,0 1.597,0.521 2.859,1.158 5.656,2.864 12.773,1.362 17.823,-3.759 2.772,-2.803 4.084,-5.386 4.95,-9.707 0.743,-3.651 1.176,-4.569 2.748,-5.803 1.621,-1.265 3.181,-1.864 4.839,-1.858 1.696,0 2.08,0.219 2.55,1.458 0.272,0.741 0.235,1.546 -0.173,3.562 -1.238,6.13 -5.83,20.464 -8.763,27.394 -3.181,7.473 -5.198,9.119 -12.686,10.301 -8.738,1.378 -12.971,2.923 -22.006,8.017 -10.136,5.723 -23.33,14.472 -25.558,16.961 -0.619,0.685 -0.47,1.724 0.248,1.724 0.223,0 2.017,-1.125 3.973,-2.5 17.983,-12.625 29.964,-19.416 37.551,-21.283 2.326,-0.57 3.836,-0.253 3.836,0.802 0,0.961 -0.717,1.42 -7.698,4.919 -18.268,9.164 -38.281,23.779 -47.143,34.427 -5.495,6.6 -9.493,14.75 -12.884,26.225 -2.512,8.547 -3.267,13.851 -2.141,15.101 0.792,0.866 1.052,0.771 2.71,-0.968 z m 130.847,-38.926 c 0.854,-0.853 1.151,-1.949 1.138,-4.31 0,-6.646 -5.074,-18.997 -12.265,-29.86 -5.644,-8.529 -8.404,-10.767 -11.448,-9.321 -4.369,2.076 -3.874,10.857 1.114,19.556 1.893,3.302 3.515,5.581 9.839,13.833 6.089,7.951 8.627,10.644 10.05,10.644 0.569,0 1.275,-0.244 1.572,-0.542 z m -176.084,-10.182 c 0.533,-0.676 1.807,-2.555 2.847,-4.176 4.777,-7.464 12.488,-16.792 19.258,-23.29 9.295,-8.937 17.241,-15.025 35.695,-27.35 17.537,-11.713 21.04,-14.469 22.797,-17.905 0.953,-1.865 0.879,-2.787 -0.309,-3.784 -4.022,-3.391 -14.468,0.46 -30.719,11.329 -18.924,12.649 -31.684,25.802 -41.771,43.025 -3.911,6.673 -8.553,17.736 -9.233,21.986 -0.273,1.749 0.148,1.797 1.435,0.165 z m 183.547,-31.197 c 0.458,-0.364 1.176,-1.199 1.584,-1.858 0.916,-1.48 0.978,-4.389 0.136,-6.815 -2.438,-7.081 -11.931,-22.742 -16.696,-27.535 -3.589,-3.604 -6.361,-4.278 -8.775,-2.127 -0.916,0.822 -1.052,1.156 -1.163,3.077 -0.174,2.606 0.656,5.625 2.623,9.54 2.649,5.305 5.669,9.507 14.432,20.074 5.668,6.848 6.015,7.097 7.859,5.644 z m 134.498,-22.629 c -5.718,-5.12 -14.766,-10.625 -22.439,-13.652 -9.196,-3.633 -16.845,-5.629 -37.328,-9.741 -17.786,-3.572 -18.924,-3.871 -33.566,-8.895 -19.035,-6.53 -18.33,-6.338 -18.788,-5.152 -0.285,0.752 0.619,1.352 3.478,2.289 1.485,0.49 7.859,2.731 14.159,4.98 20.582,7.341 22.884,7.997 42.737,12.205 25.199,5.341 34.518,8.355 46.227,14.945 1.732,0.979 3.948,2.351 4.913,3.047 2.253,1.632 2.451,1.624 0.607,-0.02 z m -218.957,-29.518 c 2.649,-1.238 6.3,-4.948 7.723,-7.858 0.941,-1.918 1.065,-2.431 0.891,-3.87 -0.532,-4.445 -4.121,-6.273 -9.988,-5.083 -5.024,1.018 -15.186,5.099 -16.473,6.611 -1.856,2.205 0,5.893 4.406,8.716 4.245,2.723 9.518,3.306 13.441,1.484 z m 177.321,-51.985 c 26.982,-5.406 29.853,-5.752 45.237,-5.465 9.58,0.178 13.417,0.532 18.64,1.719 3.515,0.798 3.131,0.371 -0.545,-0.615 -7.451,-2.002 -16.114,-2.972 -26.288,-2.946 -10.446,0.02 -15.818,0.687 -28.986,3.565 -3.775,0.825 -10.966,2.296 -15.966,3.268 -10.124,1.967 -11.573,2.309 -11.87,2.794 -0.383,0.603 0.137,1.284 0.966,1.284 0.445,0 8.911,-1.621 18.812,-3.604 z m -105.202,-5.714 c 3.317,-3.459 5.817,-11.471 6.696,-21.44 0.235,-2.605 0.322,-7.211 0.211,-11.588 -0.124,-3.996 -0.335,-14.412 -0.533,-23.147 -0.42,-18.825 -0.841,-27.852 -1.497,-32.092 -0.768,-4.968 -1.139,-5.636 -1.003,-1.801 0.124,1.801 0.285,17.053 0.495,33.893 0.384,32.34 0.31,35.37 -1.015,41.551 -0.94,4.396 -2.995,10.593 -4.492,13.546 -1.51,3.004 -1.089,3.405 1.138,1.078 z m -66.735,-10.398 c 0.136,-0.71 -3.7,-2.661 -14.344,-7.288 -11.746,-5.113 -17.811,-7.265 -28.69,-10.165 -18.082,-4.827 -29.902,-4.872 -43.516,-0.161 -4.703,1.625 -5.743,2.303 -1.498,0.971 5.929,-1.861 10.446,-2.434 19.172,-2.439 8.292,0 10.433,0.223 18.911,1.995 7.723,1.616 19.333,5.156 26.771,8.161 4.679,1.886 12.996,5.595 18.998,8.466 2.587,1.24 4.01,1.396 4.196,0.46 z m 23.961,-0.243 c 0,-0.312 -0.977,-1.955 -2.178,-3.649 -7.215,-10.2 -7.661,-10.775 -8.441,-10.775 -1.002,0 -0.705,1.067 0.953,3.375 0.953,1.34 3.082,4.436 4.716,6.878 1.633,2.443 3.23,4.583 3.54,4.755 0.73,0.412 1.41,0.131 1.41,-0.584 z m 111.106,-4.968 c 2.995,-1.509 16.263,-9.445 24.469,-14.637 19.691,-12.449 27.612,-16.434 43.714,-22.006 5.793,-2.004 10.459,-3.895 10.211,-4.142 -0.123,-0.07 -0.557,0.04 -1.076,0.236 -0.52,0.199 -4.407,1.24 -8.639,2.313 -18.046,4.575 -25.509,8.128 -47.663,22.719 -10.372,6.824 -16.461,10.613 -20.57,12.787 -3.676,1.944 -3.973,2.19 -3.689,2.95 0.26,0.681 1.647,0.586 3.243,-0.22 z m -161.268,-10.857 c 0.284,-1.476 -13.318,-5.994 -23.021,-7.647 -3.775,-0.642 -14.419,-0.81 -18.664,-0.294 -2.55,0.308 -2.451,0.323 3.762,0.538 3.515,0.124 8.082,0.469 10.149,0.771 7.538,1.098 16.424,3.419 23.095,6.033 3.528,1.383 4.505,1.508 4.679,0.599 z m 134.547,-10.798 c 0.544,-0.585 2.698,-3.348 4.765,-6.14 7.797,-10.493 20.818,-26.61 28.937,-35.824 11.114,-12.601 12.946,-14.899 14.777,-18.533 1.201,-2.378 1.461,-3.745 0.372,-1.967 -1.609,2.651 -4.122,5.504 -11.362,12.925 -12.402,12.69 -17.476,18.768 -31.053,37.177 -6.684,9.073 -8.627,11.951 -8.627,12.823 0,0.948 1.077,0.722 2.191,-0.461 z m -39.073,-4.174 c 0,-1.171 -0.211,-4.111 -0.409,-6.534 -0.445,-5.384 -0.47,-18.682 0,-25.558 0.508,-8.562 0.706,-17.59 0.359,-16.866 -0.309,0.638 -1.98,14.352 -2.636,21.614 -0.483,5.271 -0.396,14.427 0.186,21.227 0.618,7.311 0.891,8.488 1.881,8.347 0.656,-0.1 0.718,-0.27 0.668,-2.23 z m 17.339,-9.087 c 3.85,-2.884 8.973,-13.307 13.157,-26.771 2.24,-7.189 3.441,-12.1 3.441,-13.996 0,-2.5 -1.176,-3.468 -3.045,-2.497 -2.414,1.256 -7.055,6.276 -10.508,11.366 -6.139,9.034 -10.755,23.417 -9.369,29.178 0.841,3.504 3.663,4.716 6.324,2.72 z" id="path337" /></g></svg>