<?xml version="1.0" standalone="no"?>
<!DOCTYPE svg PUBLIC "-//W3C//DTD SVG 20010904//EN"
 "http://www.w3.org/TR/2001/REC-SVG-20010904/DTD/svg10.dtd">
<svg version="1.0" xmlns="http://www.w3.org/2000/svg"
 width="1280.000000pt" height="648.000000pt" viewBox="0 0 1280.000000 648.000000"
 preserveAspectRatio="xMidYMid meet">
<metadata>
Created by potrace 1.15, written by Peter Selinger 2001-2017
</metadata>
<g transform="translate(0.000000,648.000000) scale(0.100000,-0.100000)"
fill="#000000" stroke="none">
<path d="M8489 6467 c-95 -27 -175 -92 -219 -177 -17 -33 -29 -42 -80 -61 -33
-12 -60 -23 -60 -25 0 -2 29 -17 64 -33 56 -27 66 -37 89 -83 24 -48 25 -53 9
-62 -37 -19 -123 -121 -152 -179 -93 -192 -94 -441 0 -630 65 -133 181 -242
332 -315 43 -20 78 -42 78 -48 0 -5 -20 -20 -45 -32 -79 -38 -217 -128 -337
-219 l-118 -89 -53 25 -54 25 29 54 c55 105 26 192 -63 192 -67 0 -115 -30
-155 -96 -10 -18 -13 -17 -49 10 -25 20 -53 31 -84 34 -40 3 -52 0 -79 -23
-28 -23 -32 -33 -32 -74 0 -37 7 -57 30 -89 l29 -41 -32 -20 c-60 -37 -82 -68
-82 -117 0 -36 6 -49 33 -76 27 -28 39 -33 76 -32 27 1 55 9 74 22 16 12 33
22 36 22 3 0 6 -17 6 -38 0 -20 4 -52 10 -71 9 -34 9 -35 -88 -135 -54 -56
-240 -252 -414 -436 -373 -397 -813 -830 -841 -830 -4 0 14 32 39 70 114 176
165 341 165 536 1 252 -77 479 -243 713 -79 110 -126 204 -174 346 -142 424
-43 730 273 845 53 19 77 22 155 18 80 -4 103 -9 163 -38 141 -68 236 -203
243 -348 7 -123 -35 -201 -130 -242 -61 -26 -118 -23 -177 11 -59 34 -76 64
-76 141 0 60 3 70 29 97 75 79 183 60 217 -37 12 -36 32 -38 37 -4 4 29 -23
67 -63 86 -41 20 -127 21 -164 1 -64 -33 -110 -121 -97 -187 8 -46 70 -116
120 -139 80 -36 196 -15 261 48 165 160 73 483 -174 606 -204 102 -443 57
-607 -115 -100 -105 -143 -227 -144 -406 0 -111 18 -208 69 -359 20 -62 35
-113 33 -113 -2 0 -24 14 -48 31 -120 82 -272 140 -428 162 l-90 12 65 38 c93
54 152 108 202 185 116 178 136 362 59 548 l-30 71 25 32 24 31 -38 0 -38 1
39 34 c22 19 37 37 35 39 -2 2 -35 0 -74 -5 -65 -8 -75 -7 -130 18 -33 14 -82
28 -108 31 l-49 5 4 65 c3 66 -4 80 -32 62 -12 -8 -13 -13 -2 -30 14 -23 16
-96 3 -104 -11 -7 -34 109 -26 134 7 23 -20 39 -37 22 -8 -8 -6 -20 4 -44 19
-39 34 -133 21 -125 -9 6 -34 60 -47 100 -3 9 -10 17 -16 17 -23 0 -20 -30 9
-73 17 -25 31 -47 31 -50 0 -3 -21 -17 -46 -32 -69 -40 -182 -153 -317 -314
-216 -258 -336 -363 -447 -392 -28 -7 -50 -16 -50 -20 0 -14 129 -125 183
-157 132 -79 290 -129 420 -133 31 -1 57 -3 57 -5 0 -2 -35 -21 -78 -44 -242
-126 -402 -360 -402 -590 0 -227 168 -425 390 -461 155 -25 316 54 382 189 18
36 24 68 26 139 3 81 1 99 -21 146 -30 67 -86 130 -145 164 -53 31 -167 43
-227 23 -50 -16 -114 -75 -136 -125 -74 -163 75 -360 239 -316 134 37 157 235
38 326 -36 27 -56 26 -56 -1 0 -9 28 -42 61 -74 60 -58 62 -60 57 -104 -13
-116 -142 -169 -240 -100 -108 75 -118 222 -22 318 112 112 314 52 389 -115
51 -113 23 -253 -67 -334 -109 -99 -258 -118 -404 -51 -115 53 -213 202 -222
339 -11 176 62 320 240 474 82 71 163 113 275 145 109 30 285 31 400 0 200
-52 406 -198 522 -371 58 -85 124 -226 157 -336 25 -82 27 -105 28 -260 1
-149 -2 -180 -22 -249 -132 -458 -639 -877 -1392 -1153 -147 -54 -519 -131
-811 -168 -405 -51 -952 -45 -1872 21 -54 4 -99 10 -102 13 -2 4 33 13 78 20
157 24 369 104 521 195 327 196 516 471 516 751 0 199 -90 387 -266 555 -172
164 -387 276 -675 352 -122 32 -128 32 -344 32 -204 1 -228 -1 -332 -26 -459
-109 -774 -402 -773 -718 1 -133 68 -266 196 -390 268 -258 716 -358 1066
-239 183 62 356 197 420 327 29 59 33 76 33 152 0 202 -24 235 -263 359 -176
92 -246 145 -303 233 l-37 58 -20 -32 c-60 -100 -76 -263 -34 -349 53 -110
199 -207 397 -263 89 -26 158 -34 140 -17 -6 5 -61 35 -123 67 -138 71 -239
146 -269 199 -38 66 -26 70 30 9 62 -68 188 -153 321 -215 92 -42 96 -45 96
-76 0 -70 -39 -144 -119 -224 -88 -88 -173 -139 -304 -182 -78 -25 -112 -30
-227 -35 -207 -7 -370 33 -556 139 -90 50 -225 177 -267 251 -81 141 -72 313
22 455 184 275 599 441 1009 403 574 -53 1042 -419 1046 -820 1 -133 -33 -240
-113 -359 -193 -284 -576 -487 -1034 -547 -211 -28 -401 -16 -1002 60 -511 64
-933 120 -1007 132 l-38 6 0 -229 0 -229 478 -13 c1021 -26 1283 -31 1747 -31
670 0 1381 24 1485 50 19 5 121 18 225 30 105 12 300 36 435 55 135 19 304 41
375 50 72 9 168 24 215 34 47 11 86 18 87 17 1 -1 -14 -22 -33 -46 -20 -25
-52 -79 -72 -120 -33 -68 -36 -84 -40 -180 -5 -123 12 -180 82 -283 80 -117
188 -176 337 -185 129 -7 199 19 292 107 60 57 87 108 94 177 5 45 1 62 -21
109 -33 67 -75 101 -143 115 -95 21 -171 -18 -193 -99 -15 -53 -12 -79 11
-120 50 -89 171 -116 213 -48 8 13 8 20 -4 27 -10 6 -24 2 -47 -16 -44 -34
-78 -31 -119 10 -30 30 -34 41 -34 84 0 79 56 132 140 132 51 0 88 -19 128
-64 75 -86 44 -220 -73 -308 -68 -52 -133 -72 -232 -72 -74 0 -88 3 -156 37
-87 43 -135 93 -178 182 -74 156 -59 297 50 451 79 113 108 133 266 188 363
125 701 309 1051 571 284 214 530 435 1021 917 492 484 669 645 883 805 328
246 619 363 898 363 248 0 479 -75 720 -233 442 -290 751 -724 876 -1232 158
-642 -42 -1300 -523 -1722 -196 -173 -414 -286 -651 -339 -112 -26 -321 -23
-425 5 -278 75 -524 290 -630 554 -126 314 -63 651 164 872 182 178 432 235
674 154 307 -103 492 -418 422 -718 -46 -192 -189 -335 -373 -371 -176 -35
-358 31 -448 163 -46 67 -54 103 -54 257 0 131 -10 203 -30 215 -20 12 -48 -6
-59 -37 -6 -17 -11 -66 -11 -109 0 -191 123 -402 281 -482 253 -127 568 -17
700 245 49 96 62 167 56 293 -6 119 -23 182 -77 283 -90 170 -275 316 -465
367 -138 38 -327 28 -468 -25 -130 -49 -274 -172 -362 -310 -96 -149 -134
-275 -142 -466 -5 -119 -3 -140 22 -240 69 -278 265 -513 540 -649 128 -63
225 -90 375 -105 170 -17 367 10 550 76 160 57 372 179 508 293 34 28 62 50
62 49 0 -2 -16 -48 -36 -103 -81 -228 -122 -473 -110 -664 21 -358 179 -577
486 -673 97 -30 282 -32 374 -4 244 73 389 240 411 471 8 86 -13 198 -50 260
-100 171 -332 207 -468 71 -49 -49 -67 -94 -67 -169 0 -59 3 -70 33 -109 79
-103 214 -124 319 -49 43 30 58 58 58 106 0 67 -35 56 -51 -16 -25 -110 -140
-150 -241 -83 -114 74 -100 255 26 329 95 56 213 43 295 -31 76 -68 96 -124
96 -265 0 -113 -1 -116 -39 -193 -89 -180 -267 -286 -479 -286 -156 0 -327 70
-433 176 -66 66 -132 183 -160 284 -24 90 -29 315 -10 450 43 290 147 583 266
750 168 237 272 481 325 767 26 136 31 460 11 603 -38 263 -110 486 -233 729
-40 80 -73 146 -73 147 0 1 69 -30 153 -71 341 -163 614 -241 887 -252 89 -3
179 -1 234 6 345 46 608 249 773 597 187 394 110 871 -183 1144 -226 211 -561
277 -809 161 -231 -108 -336 -414 -220 -641 40 -78 90 -127 172 -167 68 -34
84 -38 143 -36 139 4 259 84 317 210 50 110 29 249 -50 331 -105 110 -288 102
-371 -16 -52 -74 -47 -194 11 -263 53 -63 141 -78 204 -36 106 70 97 227 -15
278 -53 24 -76 24 -76 0 0 -25 17 -37 73 -52 36 -9 51 -19 62 -40 37 -70 -4
-156 -86 -179 -100 -29 -202 79 -185 195 15 95 99 165 201 165 128 0 225 -102
225 -237 0 -88 -26 -149 -91 -215 -45 -45 -67 -60 -114 -74 -154 -44 -308 28
-388 181 -30 57 -32 66 -32 170 0 104 2 114 33 180 53 113 140 189 262 231 67
23 246 26 330 5 82 -19 247 -103 317 -160 169 -138 282 -364 299 -595 17 -231
-81 -493 -256 -679 -123 -131 -235 -201 -407 -254 -82 -25 -100 -27 -283 -27
-229 -1 -321 15 -560 94 -342 113 -782 356 -990 545 -100 91 -276 225 -375
285 -67 41 -224 120 -310 155 l-40 16 92 49 c111 58 242 151 331 234 65 60
195 206 189 212 -1 2 -72 8 -156 14 -183 13 -291 31 -431 71 -256 74 -447 213
-543 398 -40 76 -61 141 -81 258 -35 204 -137 310 -306 319 -36 2 -86 -2 -111
-9z m-17 -132 c14 -30 -3 -55 -37 -55 -12 0 -28 7 -35 15 -20 24 3 65 35 65
17 0 29 -8 37 -25z m-2841 -876 c17 -33 -4 -71 -37 -67 -15 2 -33 12 -40 23
-12 18 -11 24 2 43 20 28 60 29 75 1z m2189 -909 c35 -37 47 -84 30 -116 -15
-27 -67 -54 -104 -54 -32 0 -72 37 -82 74 -24 99 89 168 156 96z"/>
<path d="M5572 5458 c-25 -25 0 -64 32 -52 21 8 21 50 0 58 -20 8 -18 8 -32
-6z"/>
<path d="M9740 4079 c-90 -36 -130 -146 -107 -296 l8 -53 -40 0 c-89 0 -200
-61 -236 -131 -32 -60 -15 -128 47 -185 45 -43 83 -61 162 -75 54 -10 66 -16
61 -28 -4 -9 -11 -41 -17 -73 -21 -119 33 -234 121 -258 84 -22 199 47 251
151 13 24 24 46 26 48 2 2 25 -10 52 -27 69 -45 165 -68 218 -53 145 40 165
199 43 344 l-42 50 29 20 c80 57 144 157 144 227 0 52 -31 101 -81 130 -36 20
-57 24 -115 24 -61 -1 -83 -6 -147 -36 l-75 -36 -21 59 c-30 81 -88 151 -152
183 -56 27 -88 31 -129 15z m247 -421 c46 -27 77 -97 68 -153 -21 -144 -199
-183 -287 -64 -31 41 -34 100 -9 152 43 89 141 117 228 65z"/>
<path d="M6957 3972 c-15 -10 -34 -27 -41 -38 -14 -19 -15 -19 -38 2 -75 69
-158 55 -158 -27 0 -19 9 -48 20 -66 19 -32 19 -32 0 -38 -28 -9 -70 -67 -70
-97 0 -42 34 -63 101 -63 52 1 59 -2 59 -18 0 -31 40 -87 67 -93 13 -4 35 -1
48 6 22 12 55 74 55 103 0 9 16 13 50 13 57 0 100 31 100 72 0 24 -51 84 -79
94 -13 4 -13 9 -1 37 40 98 -29 168 -113 113z m-13 -154 c33 -47 7 -108 -46
-108 -17 0 -40 7 -50 17 -22 20 -23 70 -1 95 23 26 78 24 97 -4z"/>
<path d="M11183 3605 c-23 -16 -46 -73 -41 -102 2 -14 -6 -19 -41 -24 -47 -6
-81 -36 -81 -71 0 -25 41 -65 74 -74 25 -6 26 -9 20 -55 -13 -98 51 -132 123
-65 l37 34 28 -21 c60 -45 137 -9 124 58 -4 16 -16 43 -27 58 l-21 28 36 35
c40 39 49 90 19 119 -17 17 -78 17 -115 1 -13 -6 -19 -2 -23 17 -14 52 -76 87
-112 62z m109 -162 c37 -34 7 -103 -45 -103 -47 0 -78 68 -47 105 17 20 69 19
92 -2z"/>
<path d="M5444 3221 c-35 -21 -64 -75 -72 -133 -3 -26 -9 -37 -18 -34 -104 40
-224 -19 -210 -103 7 -46 32 -79 87 -116 l45 -31 -18 -29 c-46 -75 -44 -166 5
-200 45 -32 129 -13 188 42 l26 24 27 -36 c31 -41 92 -75 134 -75 84 0 125
114 76 211 -13 26 -12 27 32 44 136 52 161 171 47 226 -36 17 -56 21 -104 16
-53 -5 -59 -3 -59 13 0 61 -25 127 -60 163 -43 43 -77 48 -126 18z m87 -261
c24 -13 49 -61 49 -96 0 -35 -59 -94 -94 -94 -35 0 -83 25 -96 49 -46 88 53
187 141 141z"/>
<path d="M10167 2349 c-27 -16 -47 -64 -47 -114 0 -26 -4 -44 -9 -40 -17 10
-92 -13 -117 -36 -51 -48 -13 -137 66 -154 30 -7 30 -7 24 -60 -8 -69 0 -101
32 -121 36 -24 93 -5 133 43 l31 37 24 -23 c37 -35 116 -41 145 -12 31 31 28
86 -9 144 l-29 46 31 22 c35 26 72 100 63 129 -9 29 -54 60 -87 60 -16 0 -44
-7 -63 -15 l-35 -14 -14 32 c-16 41 -70 87 -99 87 -12 0 -30 -5 -40 -11z m133
-204 c58 -62 -10 -163 -83 -124 -52 28 -63 84 -22 124 32 33 74 33 105 0z"/>
<path d="M9901 914 c-13 -17 -21 -41 -21 -65 0 -36 -2 -39 -27 -39 -38 0 -75
-21 -90 -50 -17 -34 6 -74 55 -96 38 -16 39 -17 30 -53 -25 -98 56 -138 133
-65 l26 25 34 -20 c43 -26 73 -27 99 -1 27 27 25 70 -5 114 l-25 36 35 33 c46
42 55 87 25 117 -22 22 -59 24 -117 5 -17 -5 -23 -3 -23 8 0 9 -12 29 -26 46
-33 40 -74 42 -103 5z m121 -141 c22 -20 24 -66 2 -87 -35 -36 -104 -7 -104
42 0 54 62 81 102 45z"/>
<path d="M10641 564 c-14 -11 -21 -26 -21 -50 0 -29 -3 -34 -23 -34 -68 0 -90
-72 -30 -100 29 -14 32 -18 27 -51 -11 -65 42 -90 89 -43 25 24 27 25 49 10
59 -41 106 4 75 70 -17 35 -17 36 8 66 46 55 25 95 -46 85 -35 -5 -42 -2 -51
18 -15 34 -51 47 -77 29z m73 -107 c12 -9 17 -23 14 -42 -3 -27 -7 -30 -38
-30 -31 0 -35 3 -38 30 -3 26 17 55 38 55 3 0 14 -6 24 -13z"/>
</g>
</svg>
