<?xml version="1.0" standalone="no"?>
<!DOCTYPE svg PUBLIC "-//W3C//DTD SVG 20010904//EN"
 "http://www.w3.org/TR/2001/REC-SVG-20010904/DTD/svg10.dtd">
<svg version="1.0" xmlns="http://www.w3.org/2000/svg"
 width="1065.000000pt" height="1280.000000pt" viewBox="0 0 1065.000000 1280.000000"
 preserveAspectRatio="xMidYMid meet">
<metadata>
Created by potrace 1.15, written by Peter Selinger 2001-2017
</metadata>
<g transform="translate(0.000000,1280.000000) scale(0.100000,-0.100000)"
fill="#fafaf9" stroke="none">
<path d="M7296 12789 c-87 -21 -155 -87 -225 -220 -93 -177 -139 -209 -321
-220 -258 -17 -330 -70 -465 -340 -73 -145 -126 -218 -237 -324 -117 -112
-106 -115 -133 35 -51 282 -173 498 -322 572 -59 29 -77 33 -138 32 -116 -2
-200 -42 -490 -229 -274 -176 -350 -197 -610 -171 -101 10 -167 12 -204 6
-149 -25 -435 -224 -574 -400 -74 -93 -95 -134 -186 -350 -113 -268 -133 -320
-165 -429 l-32 -103 -84 -34 c-266 -107 -461 -245 -553 -389 -17 -27 -66 -97
-108 -155 -285 -395 -526 -880 -598 -1209 l-9 -44 63 7 c113 11 278 76 410
161 28 17 102 78 165 135 182 162 278 196 400 138 46 -21 162 -102 569 -396
l24 -17 -30 -46 c-16 -26 -35 -66 -43 -90 -19 -58 -84 -124 -135 -138 -49 -13
-131 -14 -208 -1 -225 36 -354 33 -447 -13 -34 -17 -46 -28 -48 -48 -3 -22 9
-37 71 -88 114 -97 197 -137 382 -186 55 -15 197 -59 315 -98 l215 -72 71 -72
c47 -46 119 -141 205 -270 212 -317 303 -426 414 -498 54 -35 140 -65 186 -65
26 0 27 -1 18 -37 -4 -21 -15 -73 -24 -116 l-17 -78 -76 69 c-42 38 -174 147
-292 242 -391 315 -510 429 -666 637 -107 143 -116 147 -269 113 -97 -22 -112
-23 -189 -12 -45 7 -116 23 -156 37 -91 31 -360 147 -635 275 -342 159 -466
197 -609 188 -90 -6 -143 -29 -266 -118 -53 -38 -112 -76 -131 -84 -19 -8
-123 -37 -232 -65 -507 -131 -662 -240 -789 -559 -16 -42 -42 -106 -56 -142
-26 -62 -27 -72 -24 -229 2 -180 11 -231 47 -267 64 -63 231 -10 740 234 116
56 237 108 269 117 105 27 214 36 541 45 317 9 381 15 523 45 42 8 123 15 191
15 165 0 226 -23 431 -160 115 -77 200 -123 290 -156 63 -23 91 -28 175 -28
97 -1 103 1 194 42 154 70 248 66 416 -18 88 -44 284 -183 438 -311 94 -77 98
-83 92 -113 -14 -70 -12 -69 -61 -35 -69 47 -181 97 -269 119 -129 32 -368 69
-545 85 -91 8 -189 19 -219 25 -71 15 -193 0 -326 -41 -331 -101 -422 -138
-566 -235 -91 -61 -211 -166 -275 -240 -103 -119 -346 -438 -425 -557 -210
-317 -278 -577 -205 -784 33 -94 186 -339 288 -459 173 -206 287 -238 352
-100 14 30 26 61 26 68 0 7 13 29 29 48 56 69 78 125 191 490 79 256 133 338
330 502 137 115 244 223 273 277 14 26 42 95 61 155 55 166 96 238 195 336
141 140 282 194 576 219 162 14 250 13 311 -3 56 -15 132 -53 176 -89 l28 -22
-66 -255 c-162 -634 -246 -929 -316 -1108 -15 -39 -15 -39 -140 12 -234 98
-487 118 -681 54 -208 -68 -365 -215 -486 -454 -157 -311 -148 -613 26 -877
59 -91 214 -246 319 -320 97 -68 138 -112 173 -187 23 -48 26 -68 26 -155 -1
-117 -20 -188 -91 -330 -86 -173 -187 -297 -416 -510 -76 -71 -91 -91 -131
-175 -46 -98 -79 -213 -117 -405 -49 -243 -105 -385 -191 -480 -62 -67 -123
-111 -199 -142 -73 -30 -38 -30 43 1 197 74 300 167 402 360 24 44 80 173 125
286 141 353 185 417 390 565 142 103 166 128 278 287 112 161 250 320 296 342
61 29 122 30 246 6 96 -19 134 -21 225 -16 155 9 279 43 366 101 l39 25 38
-18 c50 -26 191 -73 345 -116 280 -78 378 -155 433 -341 14 -46 18 -93 18
-205 -1 -270 -47 -410 -227 -698 -162 -258 -215 -379 -224 -518 -10 -139 24
-235 168 -474 162 -270 194 -353 193 -500 0 -71 -6 -110 -21 -155 -12 -33 -20
-61 -19 -63 7 -6 48 73 67 131 26 76 27 188 3 283 -9 38 -46 145 -81 238 -85
225 -106 315 -101 431 8 147 58 261 238 546 147 231 210 352 246 474 24 82 27
112 34 340 8 250 15 295 52 370 42 84 91 118 240 166 138 45 275 121 367 205
l37 33 44 -30 c136 -92 282 -136 555 -168 223 -27 324 -50 417 -97 85 -43 173
-128 209 -200 45 -94 38 -166 -46 -443 -47 -156 -28 -291 62 -434 22 -34 87
-124 146 -200 173 -225 189 -256 262 -523 26 -93 61 -197 78 -231 51 -100 139
-195 242 -259 19 -11 7 5 -31 43 -111 110 -149 203 -189 461 -47 301 -63 351
-201 617 -136 263 -153 349 -120 581 17 114 21 298 11 534 -6 135 -4 178 9
235 22 92 99 246 185 370 266 381 302 444 340 590 25 94 28 231 7 332 -8 37
-17 113 -21 168 -22 334 -148 544 -402 669 -135 67 -284 96 -490 96 -83 0
-187 -7 -250 -17 -158 -24 -156 -24 -164 17 -9 44 -39 312 -39 351 0 25 4 29
29 29 146 0 447 147 578 282 91 93 109 124 153 255 34 101 49 126 101 161 169
114 322 316 336 445 l5 44 49 -18 c66 -25 134 -24 254 6 123 30 183 31 235 5
72 -37 101 -90 149 -281 16 -64 41 -141 56 -170 56 -112 215 -224 375 -265 84
-21 226 -21 309 0 135 35 248 119 331 246 22 36 73 128 112 205 83 165 163
290 215 335 68 60 102 70 258 70 122 0 244 15 261 32 9 9 -75 248 -115 328
-137 275 -302 389 -603 421 -130 13 -283 0 -583 -51 -394 -67 -552 -64 -717
13 -99 46 -180 110 -283 222 -98 107 -159 149 -248 172 -312 80 -821 -265
-1138 -771 -34 -54 -59 -84 -67 -81 -8 3 -34 5 -58 5 l-44 0 0 205 0 205 43 0
c64 0 218 35 268 60 101 52 214 140 459 360 270 242 432 337 624 364 l49 8 -6
52 c-12 119 -96 216 -251 291 -86 41 -146 61 -310 103 l-68 17 -28 86 c-16 48
-55 138 -87 200 -32 63 -59 118 -61 122 -2 4 54 5 124 1 214 -11 268 -37 471
-228 174 -163 246 -216 343 -254 76 -29 109 -37 315 -72 193 -33 252 -49 330
-88 120 -60 153 -107 224 -314 72 -214 41 -191 249 -186 161 3 181 6 220 26
55 29 76 74 97 208 29 182 46 257 67 298 58 113 19 297 -103 478 -103 154
-412 514 -505 589 -223 180 -467 279 -784 318 -159 20 -543 11 -669 -15 -31
-6 -34 -5 -26 12 4 10 41 114 81 229 89 253 138 356 205 429 68 74 123 113
286 203 298 163 448 307 460 440 5 57 4 59 -56 152 -87 134 -88 127 59 316 39
51 45 64 48 119 17 269 -356 512 -1007 657 -264 59 -462 80 -555 58z m-1307
-2546 l30 -47 -117 -27 c-248 -58 -477 -154 -679 -286 l-27 -18 33 50 c18 28
115 129 214 225 100 96 229 222 287 280 l105 106 62 -118 c34 -64 76 -139 92
-165z m-1118 -1741 c133 -85 210 -253 244 -534 9 -73 24 -259 34 -413 l18
-280 -106 -197 c-58 -108 -107 -195 -109 -193 -2 2 1 52 7 111 16 159 14 219
-19 512 -46 402 -81 590 -135 719 -8 19 -15 50 -15 69 0 56 22 234 29 234 4 0
27 -13 52 -28z m455 -342 l39 -75 -17 -100 c-9 -55 -17 -113 -17 -129 -2 -64
-12 -11 -31 165 -11 101 -23 195 -26 209 -8 36 7 16 52 -70z m890 -397 c-3
-43 -9 -177 -13 -297 l-6 -219 -41 -16 c-85 -33 -219 -102 -299 -155 -162
-108 -268 -212 -371 -365 l-53 -80 -6 57 c-3 31 -11 127 -18 212 l-12 155 128
258 c121 245 130 260 190 315 138 126 317 206 469 211 l39 1 -7 -77z m326 35
l58 -12 0 -71 c0 -38 -3 -140 -7 -226 l-6 -157 -46 -5 c-25 -3 -59 -9 -76 -12
l-30 -7 6 249 c4 136 7 249 8 251 2 5 38 1 93 -10z m1151 -152 c73 -30 102
-90 167 -346 23 -90 51 -183 61 -208 11 -25 18 -47 16 -49 -2 -2 -20 3 -39 11
-19 8 -88 31 -154 51 -65 20 -175 60 -244 89 -69 29 -168 64 -220 77 -52 13
-97 25 -99 26 -17 11 170 208 254 268 123 87 192 109 258 81z m-3022 -798 c13
-45 13 -77 3 -141 l-6 -39 -22 21 c-22 20 -22 21 -7 111 8 49 16 90 18 90 1 0
8 -19 14 -42z m538 -210 c-3 -14 12 -334 16 -358 1 -8 6 -82 10 -165 l7 -150
-51 74 c-68 96 -64 88 -96 226 l-27 121 66 132 c60 120 81 153 75 120z m561
-39 c59 -37 183 -165 290 -299 46 -58 106 -130 132 -159 44 -50 48 -59 48
-106 0 -64 35 -414 55 -555 16 -110 58 -324 69 -350 5 -12 -8 -23 -48 -43 -82
-40 -227 -131 -290 -183 l-56 -45 -72 20 c-40 11 -98 23 -129 27 l-56 6 -13
57 c-21 94 -87 286 -149 435 l-60 141 -16 350 c-17 368 -16 395 17 515 58 212
148 273 278 189z m-1140 -146 c0 -37 -5 -40 -32 -16 -19 17 -23 39 -12 68 11
27 44 -11 44 -52z m-80 -231 c0 -10 -7 -27 -15 -38 -14 -18 -15 -17 -9 11 10
47 24 62 24 27z m-130 -608 c-77 -230 -79 -234 -26 -32 35 129 81 256 91 246
3 -2 -27 -98 -65 -214z m478 74 c98 -183 122 -239 181 -421 42 -129 51 -171
51 -229 l0 -71 -37 7 c-237 42 -508 -16 -695 -150 -27 -19 -48 -31 -48 -28 0
3 18 46 39 97 22 51 51 124 65 162 15 39 73 162 130 275 57 113 132 269 167
348 35 78 67 142 70 142 4 0 38 -60 77 -132z"/>
</g>
</svg>
