<?xml version="1.0" standalone="no"?>
<!DOCTYPE svg PUBLIC "-//W3C//DTD SVG 20010904//EN"
 "http://www.w3.org/TR/2001/REC-SVG-20010904/DTD/svg10.dtd">
<svg version="1.0" xmlns="http://www.w3.org/2000/svg"
 width="941.000000pt" height="1280.000000pt" viewBox="0 0 941.000000 1280.000000"
 preserveAspectRatio="xMidYMid meet">
<metadata>
Created by potrace 1.15, written by Peter Selinger 2001-2017
</metadata>
<g transform="translate(0.000000,1280.000000) scale(0.100000,-0.100000)"
fill="#fafaf9" stroke="none">
<path d="M5080 12785 c-648 -103 -1043 -739 -1194 -1925 -33 -256 -65 -713
-67 -955 -1 -66 -4 -130 -7 -142 -5 -17 48 -133 211 -463 119 -242 217 -444
217 -449 0 -4 -26 -6 -57 -4 -32 2 -251 10 -488 18 -236 8 -478 18 -536 21
l-105 6 -29 46 c-75 122 -216 282 -306 348 -133 98 -269 129 -359 82 -56 -29
-105 -92 -127 -166 -25 -79 -24 -295 0 -412 38 -181 129 -406 224 -559 l46
-74 -30 -61 c-41 -83 -48 -118 -29 -154 46 -89 147 -96 198 -14 l21 34 53 -54
c52 -51 54 -54 44 -88 -20 -71 36 -150 107 -150 28 0 44 8 74 39 36 36 41 38
88 33 140 -13 238 96 260 290 5 47 7 111 4 143 l-6 58 26 -7 c23 -5 787 -245
1286 -403 l183 -58 440 -890 c242 -489 441 -891 442 -893 5 -4 295 27 441 49
640 94 1161 253 1700 519 423 209 797 457 1175 779 99 85 340 304 387 353 l42
43 -298 640 c-164 352 -567 1216 -895 1920 -329 704 -601 1284 -606 1289 -5 5
-26 -5 -52 -26 -79 -63 -80 -57 -9 32 12 14 21 28 21 32 0 4 -66 61 -147 126
-987 792 -1763 1138 -2343 1047z m465 -205 c185 -39 405 -120 619 -227 309
-155 778 -468 1127 -753 l107 -87 -221 -5 c-142 -3 -227 -2 -235 5 -7 5 -30
39 -51 74 -43 71 -43 71 -57 -33 -3 -28 -9 -56 -13 -61 -3 -6 -51 -18 -106
-27 -569 -95 -1191 -383 -1844 -853 l-84 -60 -46 12 c-25 6 -56 15 -68 19 -21
7 -21 5 -12 -26 23 -82 24 -81 -164 -229 -94 -75 -241 -196 -326 -268 -84 -72
-155 -131 -158 -131 -7 0 3 252 18 455 75 1050 297 1726 666 2025 127 103 245
157 403 186 104 18 317 11 445 -16z"/>
<path d="M2450 7778 c0 -13 -20 -66 -45 -118 -57 -120 -58 -150 -6 -201 58
-59 125 -48 171 26 31 49 22 92 -34 174 -25 36 -52 83 -61 104 -17 42 -25 47
-25 15z"/>
<path d="M2870 7429 c0 -12 -19 -61 -41 -108 -23 -47 -43 -102 -46 -121 -9
-74 75 -146 138 -119 40 16 89 74 89 105 0 34 -24 88 -64 143 -18 25 -39 63
-47 84 -14 41 -29 49 -29 16z"/>
<path d="M2495 7293 c-3 -20 -24 -71 -46 -113 -52 -103 -52 -139 0 -191 27
-27 47 -39 67 -39 68 0 132 78 119 143 -4 18 -25 59 -48 92 -22 32 -48 78 -59
102 -10 24 -20 43 -22 43 -2 0 -7 -16 -11 -37z"/>
<path d="M2156 6973 c-3 -3 -6 -14 -6 -23 0 -9 -18 -53 -39 -98 -54 -110 -59
-142 -31 -187 25 -41 49 -56 91 -57 41 -1 76 19 101 60 28 46 20 98 -27 164
-21 28 -48 73 -60 100 -12 26 -25 45 -29 41z"/>
<path d="M2791 6838 c-7 -23 -28 -72 -47 -109 -51 -99 -47 -151 12 -198 55
-44 134 -19 167 52 21 43 10 86 -40 158 -19 29 -44 72 -55 96 -10 23 -20 43
-22 43 -2 0 -8 -19 -15 -42z"/>
<path d="M2470 6470 c-6 -25 -27 -72 -45 -105 -47 -86 -51 -116 -24 -164 45
-80 130 -88 184 -17 38 50 34 101 -12 167 -20 30 -49 79 -64 109 l-27 55 -12
-45z"/>
<path d="M1640 6142 c-134 -38 -255 -121 -350 -239 -71 -88 -161 -265 -187
-368 -9 -38 -17 -71 -18 -72 0 -1 -29 6 -65 15 -104 25 -380 22 -490 -6 -247
-63 -435 -218 -506 -417 -26 -71 -26 -240 0 -315 64 -188 192 -340 379 -451
40 -24 74 -44 76 -46 2 -1 -21 -29 -51 -62 -164 -177 -258 -397 -258 -604 0
-260 156 -452 404 -497 81 -15 203 -8 296 15 124 32 294 123 408 219 24 20 47
36 50 36 4 0 17 -18 29 -39 12 -21 50 -73 83 -115 l60 -76 -1 -697 c-1 -626
-2 -694 -15 -664 -24 54 -61 96 -118 136 -92 63 -117 67 -456 75 -343 8 -382
15 -451 77 -44 40 -49 30 -18 -37 74 -163 357 -434 544 -520 129 -60 236 -76
328 -48 60 18 133 91 162 163 l25 60 0 -832 0 -833 55 0 55 0 0 1078 1 1077
28 -60 c89 -190 273 -226 526 -100 102 50 173 102 292 210 130 119 264 298
279 372 l6 32 -41 -39 c-70 -66 -102 -72 -466 -80 -342 -8 -370 -11 -458 -63
-59 -35 -121 -98 -145 -150 l-21 -42 -1 388 c0 213 2 387 5 387 3 0 31 -17 63
-39 274 -186 557 -181 748 14 70 71 130 182 159 295 31 121 30 352 -1 462 -4
13 8 20 53 33 320 90 555 291 632 540 25 80 28 235 7 306 -52 171 -211 341
-394 421 -63 27 -157 57 -203 64 -34 6 -40 11 -61 62 l-24 55 -14 -46 -13 -47
-69 0 -70 0 6 83 c8 92 -6 249 -30 347 -68 275 -238 490 -453 571 -80 30 -225
35 -311 11z"/>
<path d="M2495 6028 c-4 -17 -25 -67 -46 -112 -42 -86 -47 -121 -25 -165 45
-87 164 -77 203 17 19 46 10 78 -43 159 -24 37 -50 82 -56 100 -15 41 -24 42
-33 1z"/>
<path d="M2970 5898 c0 -13 -20 -66 -45 -118 -57 -120 -58 -150 -6 -201 42
-43 73 -49 121 -24 32 17 70 72 70 104 0 25 -33 92 -66 137 -13 16 -33 51 -44
77 -23 52 -30 58 -30 25z"/>
</g>
</svg>
